G75*
%MOIN*%
%OFA0B0*%
%FSLAX24Y24*%
%IPPOS*%
%LPD*%
%AMOC8*
5,1,8,0,0,1.08239X$1,22.5*
%
%ADD10R,0.0375X0.0375*%
%ADD11C,0.0820*%
%ADD12OC8,0.0540*%
%ADD13R,0.0308X0.0387*%
%ADD14R,0.0860X0.0320*%
%ADD15R,0.0690X0.0572*%
%ADD16R,0.0572X0.0690*%
%ADD17R,0.0296X0.0926*%
D10*
X003835Y003238D03*
X004465Y003238D03*
X004465Y003863D03*
X003835Y003863D03*
X003835Y004488D03*
X004465Y004488D03*
X005773Y004550D03*
X006402Y004550D03*
X006402Y003800D03*
X005773Y003800D03*
X005580Y003175D03*
X006210Y003175D03*
X006465Y002276D03*
X005835Y002276D03*
X005835Y001550D03*
X006465Y001550D03*
X009585Y002175D03*
X010215Y002175D03*
D11*
X002838Y002863D03*
X002838Y003863D03*
X008025Y009175D03*
X009025Y009175D03*
X010025Y009175D03*
X011025Y009175D03*
X012025Y009175D03*
X013025Y009175D03*
X014025Y009175D03*
X014775Y003925D03*
X014775Y002925D03*
D12*
X013775Y005425D03*
X014775Y006425D03*
X013775Y007425D03*
X011775Y006425D03*
X010775Y007425D03*
X008775Y006425D03*
X007775Y007425D03*
X005775Y006425D03*
X004775Y007425D03*
X002775Y006425D03*
X001775Y007425D03*
X001775Y005425D03*
X004775Y005425D03*
X007775Y005425D03*
X010775Y005425D03*
D13*
X005228Y002488D03*
X004322Y002488D03*
X004322Y001613D03*
X005228Y001613D03*
D14*
X009940Y002925D03*
X009940Y003425D03*
X009940Y003925D03*
X009940Y004425D03*
X012360Y004425D03*
X012360Y003925D03*
X012360Y003425D03*
X012360Y002925D03*
D15*
X013525Y003531D03*
X013525Y004319D03*
D16*
X013419Y001550D03*
X012631Y001550D03*
X011669Y001550D03*
X010881Y001550D03*
D17*
X008900Y002276D03*
X008400Y002276D03*
X007900Y002276D03*
X007400Y002276D03*
X007400Y004324D03*
X007900Y004324D03*
X008400Y004324D03*
X008900Y004324D03*
M02*
