G75*
%MOIN*%
%OFA0B0*%
%FSLAX24Y24*%
%IPPOS*%
%LPD*%
%AMOC8*
5,1,8,0,0,1.08239X$1,22.5*
%
%ADD10C,0.0050*%
%ADD11C,0.0120*%
%ADD12C,0.0060*%
%ADD13C,0.0080*%
%ADD14C,0.0090*%
%ADD15C,0.0070*%
D10*
X002450Y001595D02*
X002450Y001775D01*
X002495Y001820D01*
X002585Y001820D01*
X002630Y001775D01*
X002630Y001685D02*
X002540Y001685D01*
X002630Y001685D02*
X002630Y001595D01*
X002585Y001550D01*
X002495Y001550D01*
X002450Y001595D01*
X002745Y001550D02*
X002745Y001820D01*
X002925Y001550D01*
X002925Y001820D01*
X003039Y001820D02*
X003174Y001820D01*
X003219Y001775D01*
X003219Y001595D01*
X003174Y001550D01*
X003039Y001550D01*
X003039Y001820D01*
X004095Y002680D02*
X004255Y002680D01*
X004255Y002995D02*
X004095Y002995D01*
X004095Y003305D02*
X004255Y003305D01*
X004255Y003620D02*
X004095Y003620D01*
X004095Y003930D02*
X004255Y003930D01*
X004255Y004245D02*
X004095Y004245D01*
X003077Y004113D02*
X003077Y004383D01*
X002896Y004383D02*
X003077Y004113D01*
X002896Y004113D02*
X002896Y004383D01*
X002790Y004383D02*
X002700Y004383D01*
X002745Y004383D02*
X002745Y004113D01*
X002700Y004113D02*
X002790Y004113D01*
X002278Y005925D02*
X002232Y005925D01*
X002232Y006015D01*
X002278Y006060D01*
X002278Y006150D01*
X002232Y006195D01*
X002142Y006195D01*
X002097Y006150D01*
X002097Y006060D01*
X002142Y006015D01*
X002142Y005925D01*
X002097Y005925D01*
X001987Y005925D02*
X001852Y006015D01*
X001987Y006105D01*
X001852Y006195D02*
X001852Y005925D01*
X001737Y005970D02*
X001692Y005925D01*
X001602Y005925D01*
X001557Y005970D01*
X001737Y006150D01*
X001737Y005970D01*
X001557Y005970D02*
X001557Y006150D01*
X001602Y006195D01*
X001692Y006195D01*
X001737Y006150D01*
X001443Y005925D02*
X001263Y005925D01*
X001353Y005925D02*
X001353Y006195D01*
X001263Y006105D01*
X001209Y007397D02*
X001209Y007668D01*
X001344Y007668D01*
X001389Y007623D01*
X001389Y007533D01*
X001344Y007488D01*
X001209Y007488D01*
X001094Y007488D02*
X001094Y007623D01*
X001049Y007668D01*
X001004Y007623D01*
X001004Y007488D01*
X000914Y007488D02*
X000914Y007668D01*
X000959Y007668D01*
X001004Y007623D01*
X000800Y007623D02*
X000800Y007533D01*
X000755Y007488D01*
X000665Y007488D01*
X000620Y007533D01*
X000620Y007623D01*
X000665Y007668D01*
X000755Y007668D01*
X000800Y007623D01*
X000505Y007713D02*
X000460Y007758D01*
X000370Y007758D01*
X000325Y007713D01*
X000325Y007533D01*
X000370Y007488D01*
X000460Y007488D01*
X000505Y007533D01*
X000763Y007925D02*
X000763Y008195D01*
X000898Y008195D01*
X000943Y008150D01*
X000943Y008060D01*
X000898Y008015D01*
X000763Y008015D01*
X001057Y007970D02*
X001102Y007925D01*
X001192Y007925D01*
X001237Y007970D01*
X001237Y008060D01*
X001192Y008105D01*
X001102Y008105D01*
X001057Y008060D01*
X001057Y007970D01*
X001352Y007925D02*
X001442Y007925D01*
X001397Y007925D02*
X001397Y008195D01*
X001352Y008195D01*
X001548Y008060D02*
X001593Y008105D01*
X001683Y008105D01*
X001728Y008060D01*
X001728Y008015D01*
X001548Y008015D01*
X001548Y007970D02*
X001548Y008060D01*
X001548Y007970D02*
X001593Y007925D01*
X001683Y007925D01*
X001639Y007668D02*
X001549Y007668D01*
X001504Y007623D01*
X001504Y007533D01*
X001549Y007488D01*
X001639Y007488D01*
X001684Y007578D02*
X001504Y007578D01*
X001639Y007668D02*
X001684Y007623D01*
X001684Y007578D01*
X001798Y007488D02*
X001798Y007668D01*
X001933Y007668D01*
X001978Y007623D01*
X001978Y007488D01*
X002093Y007488D02*
X002228Y007488D01*
X002273Y007533D01*
X002228Y007578D01*
X002138Y007578D01*
X002093Y007623D01*
X002138Y007668D01*
X002273Y007668D01*
X002433Y007668D02*
X002523Y007668D01*
X002568Y007623D01*
X002568Y007488D01*
X002433Y007488D01*
X002388Y007533D01*
X002433Y007578D01*
X002568Y007578D01*
X002682Y007668D02*
X002772Y007668D01*
X002727Y007713D02*
X002727Y007533D01*
X002772Y007488D01*
X002879Y007488D02*
X002969Y007488D01*
X002924Y007488D02*
X002924Y007668D01*
X002879Y007668D01*
X002924Y007758D02*
X002924Y007803D01*
X003017Y007925D02*
X002972Y007970D01*
X002972Y008060D01*
X003017Y008105D01*
X003108Y008105D01*
X003153Y008060D01*
X003153Y007970D01*
X003108Y007925D01*
X003017Y007925D01*
X002862Y008105D02*
X002817Y008105D01*
X002727Y008015D01*
X002727Y007925D02*
X002727Y008105D01*
X002612Y008060D02*
X002612Y008015D01*
X002432Y008015D01*
X002432Y007970D02*
X002432Y008060D01*
X002477Y008105D01*
X002567Y008105D01*
X002612Y008060D01*
X002567Y007925D02*
X002477Y007925D01*
X002432Y007970D01*
X002318Y007925D02*
X002138Y007925D01*
X002138Y007970D01*
X002318Y008150D01*
X002318Y008195D01*
X002138Y008195D01*
X003075Y007623D02*
X003075Y007533D01*
X003120Y007488D01*
X003210Y007488D01*
X003255Y007533D01*
X003255Y007623D01*
X003210Y007668D01*
X003120Y007668D01*
X003075Y007623D01*
X003370Y007668D02*
X003370Y007488D01*
X003370Y007668D02*
X003505Y007668D01*
X003550Y007623D01*
X003550Y007488D01*
X003950Y007533D02*
X003995Y007488D01*
X004085Y007488D01*
X004130Y007533D01*
X004130Y007623D01*
X004085Y007668D01*
X004040Y007668D01*
X003950Y007623D01*
X003950Y007758D01*
X004130Y007758D01*
X004245Y007713D02*
X004290Y007758D01*
X004380Y007758D01*
X004425Y007713D01*
X004245Y007533D01*
X004290Y007488D01*
X004380Y007488D01*
X004425Y007533D01*
X004425Y007713D01*
X004539Y007713D02*
X004584Y007758D01*
X004674Y007758D01*
X004719Y007713D01*
X004539Y007533D01*
X004584Y007488D01*
X004674Y007488D01*
X004719Y007533D01*
X004719Y007713D01*
X004539Y007713D02*
X004539Y007533D01*
X004245Y007533D02*
X004245Y007713D01*
X004227Y007988D02*
X004182Y008033D01*
X004227Y008078D01*
X004362Y008078D01*
X004362Y008123D02*
X004362Y007988D01*
X004227Y007988D01*
X004068Y008033D02*
X004068Y008123D01*
X003978Y008123D01*
X004068Y008213D02*
X004023Y008258D01*
X003933Y008258D01*
X003888Y008213D01*
X003888Y008033D01*
X003933Y007988D01*
X004023Y007988D01*
X004068Y008033D01*
X004227Y008168D02*
X004317Y008168D01*
X004362Y008123D01*
X004477Y008168D02*
X004522Y008168D01*
X004522Y007988D01*
X004477Y007988D02*
X004567Y007988D01*
X004673Y007988D02*
X004673Y008168D01*
X004808Y008168D01*
X004853Y008123D01*
X004853Y007988D01*
X005129Y007758D02*
X005129Y007488D01*
X005129Y007578D02*
X005264Y007668D01*
X005374Y007623D02*
X005374Y007533D01*
X005419Y007488D01*
X005509Y007488D01*
X005554Y007578D02*
X005374Y007578D01*
X005374Y007623D02*
X005419Y007668D01*
X005509Y007668D01*
X005554Y007623D01*
X005554Y007578D01*
X005669Y007578D02*
X005759Y007488D01*
X005849Y007578D01*
X005849Y007758D01*
X005852Y007897D02*
X005897Y007897D01*
X005942Y007942D01*
X005942Y008168D01*
X005942Y008258D02*
X005942Y008303D01*
X005737Y008258D02*
X005737Y007988D01*
X005602Y007988D01*
X005557Y008033D01*
X005557Y008123D01*
X005602Y008168D01*
X005737Y008168D01*
X005443Y008168D02*
X005443Y007988D01*
X005443Y008123D02*
X005263Y008123D01*
X005263Y008168D02*
X005263Y007988D01*
X005263Y008168D02*
X005353Y008258D01*
X005443Y008168D01*
X005669Y007758D02*
X005669Y007578D01*
X005264Y007488D02*
X005129Y007578D01*
X004522Y008258D02*
X004522Y008303D01*
X003684Y009113D02*
X003600Y009029D01*
X003642Y009113D02*
X003684Y009113D01*
X003684Y009154D01*
X003642Y009154D01*
X003642Y009113D01*
X003491Y009113D02*
X003491Y009238D01*
X003449Y009279D01*
X003324Y009279D01*
X003324Y009113D01*
X003215Y009154D02*
X003215Y009238D01*
X003173Y009279D01*
X003090Y009279D01*
X003048Y009238D01*
X003048Y009154D01*
X003090Y009113D01*
X003173Y009113D01*
X003215Y009154D01*
X002947Y009113D02*
X002906Y009154D01*
X002906Y009321D01*
X002947Y009279D02*
X002864Y009279D01*
X002754Y009279D02*
X002629Y009279D01*
X002588Y009238D01*
X002629Y009196D01*
X002713Y009196D01*
X002754Y009154D01*
X002713Y009113D01*
X002588Y009113D01*
X002478Y009196D02*
X002311Y009196D01*
X002311Y009238D02*
X002353Y009279D01*
X002436Y009279D01*
X002478Y009238D01*
X002478Y009196D01*
X002436Y009113D02*
X002353Y009113D01*
X002311Y009154D01*
X002311Y009238D01*
X002202Y009113D02*
X002202Y009363D01*
X002035Y009363D02*
X002035Y009113D01*
X002119Y009196D01*
X002202Y009113D01*
X001649Y009196D02*
X001483Y009196D01*
X001483Y009238D02*
X001524Y009279D01*
X001608Y009279D01*
X001649Y009238D01*
X001649Y009196D01*
X001608Y009113D02*
X001524Y009113D01*
X001483Y009154D01*
X001483Y009238D01*
X001378Y009279D02*
X001252Y009196D01*
X001378Y009113D01*
X001252Y009113D02*
X001252Y009363D01*
X001143Y009279D02*
X001143Y009113D01*
X001018Y009113D01*
X000976Y009154D01*
X000976Y009279D01*
X000867Y009113D02*
X000700Y009113D01*
X000700Y009363D01*
X000745Y009613D02*
X000790Y009613D01*
X000835Y009658D01*
X000835Y009883D01*
X000790Y009883D02*
X000880Y009883D01*
X000995Y009883D02*
X001175Y009883D01*
X001289Y009883D02*
X001289Y009613D01*
X001469Y009613D01*
X001379Y009748D02*
X001289Y009748D01*
X001289Y009883D02*
X001469Y009883D01*
X001584Y009883D02*
X001764Y009883D01*
X001674Y009883D02*
X001674Y009613D01*
X002173Y009613D02*
X002173Y009883D01*
X002308Y009883D01*
X002353Y009838D01*
X002353Y009748D01*
X002308Y009703D01*
X002173Y009703D01*
X002468Y009613D02*
X002468Y009883D01*
X002558Y009793D01*
X002648Y009883D01*
X002648Y009613D01*
X002853Y009613D02*
X002853Y009883D01*
X002763Y009883D02*
X002943Y009883D01*
X003352Y009838D02*
X003352Y009658D01*
X003397Y009613D01*
X003487Y009613D01*
X003532Y009658D01*
X003647Y009613D02*
X003647Y009883D01*
X003692Y009793D02*
X003782Y009793D01*
X003827Y009748D01*
X003827Y009613D01*
X003941Y009658D02*
X003986Y009703D01*
X004121Y009703D01*
X004121Y009748D02*
X004121Y009613D01*
X003986Y009613D01*
X003941Y009658D01*
X003986Y009793D02*
X004076Y009793D01*
X004121Y009748D01*
X004236Y009793D02*
X004236Y009613D01*
X004236Y009703D02*
X004326Y009793D01*
X004371Y009793D01*
X004481Y009748D02*
X004481Y009658D01*
X004526Y009613D01*
X004662Y009613D01*
X004662Y009567D02*
X004662Y009793D01*
X004526Y009793D01*
X004481Y009748D01*
X004571Y009522D02*
X004616Y009522D01*
X004662Y009567D01*
X004776Y009658D02*
X004776Y009748D01*
X004821Y009793D01*
X004911Y009793D01*
X004956Y009748D01*
X004956Y009703D01*
X004776Y009703D01*
X004776Y009658D02*
X004821Y009613D01*
X004911Y009613D01*
X005015Y009363D02*
X004890Y009238D01*
X005056Y009238D01*
X005015Y009113D02*
X005015Y009363D01*
X004697Y009363D02*
X004697Y009113D01*
X004780Y009113D02*
X004613Y009113D01*
X004504Y009154D02*
X004462Y009113D01*
X004379Y009113D01*
X004337Y009154D01*
X004504Y009321D01*
X004504Y009154D01*
X004613Y009279D02*
X004697Y009363D01*
X004504Y009321D02*
X004462Y009363D01*
X004379Y009363D01*
X004337Y009321D01*
X004337Y009154D01*
X004228Y009113D02*
X004061Y009113D01*
X004228Y009279D01*
X004228Y009321D01*
X004186Y009363D01*
X004103Y009363D01*
X004061Y009321D01*
X003647Y009748D02*
X003692Y009793D01*
X003532Y009838D02*
X003487Y009883D01*
X003397Y009883D01*
X003352Y009838D01*
X005365Y009793D02*
X005365Y009613D01*
X005365Y009748D02*
X005545Y009748D01*
X005545Y009793D02*
X005545Y009613D01*
X005660Y009613D02*
X005660Y009793D01*
X005705Y009793D01*
X005750Y009748D01*
X005795Y009793D01*
X005840Y009748D01*
X005840Y009613D01*
X005750Y009613D02*
X005750Y009748D01*
X005545Y009793D02*
X005455Y009883D01*
X005365Y009793D01*
X005955Y009793D02*
X005955Y009522D01*
X005955Y009613D02*
X006090Y009613D01*
X006135Y009658D01*
X006135Y009748D01*
X006090Y009793D01*
X005955Y009793D01*
X007290Y007758D02*
X007290Y007488D01*
X007200Y007488D02*
X007380Y007488D01*
X007200Y007668D02*
X007290Y007758D01*
X007789Y007758D02*
X007789Y007488D01*
X007969Y007488D02*
X007969Y007758D01*
X007879Y007668D01*
X007789Y007758D01*
X008084Y007623D02*
X008129Y007668D01*
X008219Y007668D01*
X008264Y007623D01*
X008264Y007578D01*
X008084Y007578D01*
X008084Y007533D02*
X008084Y007623D01*
X008084Y007533D02*
X008129Y007488D01*
X008219Y007488D01*
X008379Y007578D02*
X008469Y007488D01*
X008559Y007578D01*
X008559Y007758D01*
X008379Y007758D02*
X008379Y007578D01*
X010200Y007488D02*
X010380Y007668D01*
X010380Y007713D01*
X010335Y007758D01*
X010245Y007758D01*
X010200Y007713D01*
X010200Y007488D02*
X010380Y007488D01*
X010789Y007488D02*
X010789Y007758D01*
X010879Y007668D01*
X010969Y007758D01*
X010969Y007488D01*
X011084Y007533D02*
X011084Y007623D01*
X011129Y007668D01*
X011219Y007668D01*
X011264Y007623D01*
X011264Y007578D01*
X011084Y007578D01*
X011084Y007533D02*
X011129Y007488D01*
X011219Y007488D01*
X011379Y007578D02*
X011469Y007488D01*
X011559Y007578D01*
X011559Y007758D01*
X011379Y007758D02*
X011379Y007578D01*
X013075Y007623D02*
X013165Y007668D01*
X013210Y007668D01*
X013255Y007623D01*
X013255Y007533D01*
X013210Y007488D01*
X013120Y007488D01*
X013075Y007533D01*
X013075Y007623D02*
X013075Y007758D01*
X013255Y007758D01*
X013664Y007758D02*
X013664Y007488D01*
X013844Y007488D02*
X013844Y007758D01*
X013754Y007668D01*
X013664Y007758D01*
X013959Y007623D02*
X013959Y007533D01*
X014004Y007488D01*
X014094Y007488D01*
X014139Y007578D02*
X013959Y007578D01*
X013959Y007623D02*
X014004Y007668D01*
X014094Y007668D01*
X014139Y007623D01*
X014139Y007578D01*
X014254Y007578D02*
X014254Y007758D01*
X014434Y007758D02*
X014434Y007578D01*
X014344Y007488D01*
X014254Y007578D01*
X014174Y006195D02*
X014084Y006195D01*
X014039Y006150D01*
X014039Y006060D01*
X014084Y006015D01*
X014084Y005925D01*
X014039Y005925D01*
X013925Y005925D02*
X013925Y006195D01*
X013835Y006105D01*
X013745Y006195D01*
X013745Y005925D01*
X013630Y005925D02*
X013450Y005925D01*
X013630Y006105D01*
X013630Y006150D01*
X013585Y006195D01*
X013495Y006195D01*
X013450Y006150D01*
X014174Y006195D02*
X014219Y006150D01*
X014219Y006060D01*
X014174Y006015D01*
X014174Y005925D01*
X014219Y005925D01*
X014495Y004445D02*
X014450Y004400D01*
X014450Y004220D01*
X014495Y004175D01*
X014585Y004175D01*
X014630Y004220D01*
X014630Y004400D01*
X014585Y004445D01*
X014495Y004445D01*
X014745Y004445D02*
X014745Y004220D01*
X014790Y004175D01*
X014880Y004175D01*
X014925Y004220D01*
X014925Y004445D01*
X015039Y004445D02*
X015219Y004445D01*
X015129Y004445D02*
X015129Y004175D01*
X015112Y001883D02*
X014977Y001883D01*
X014977Y001613D01*
X015112Y001613D01*
X015157Y001658D01*
X015157Y001838D01*
X015112Y001883D01*
X014862Y001883D02*
X014862Y001613D01*
X014682Y001883D01*
X014682Y001613D01*
X014568Y001658D02*
X014568Y001748D01*
X014478Y001748D01*
X014568Y001838D02*
X014523Y001883D01*
X014433Y001883D01*
X014388Y001838D01*
X014388Y001658D01*
X014433Y001613D01*
X014523Y001613D01*
X014568Y001658D01*
X011713Y002425D02*
X011713Y002508D01*
X011713Y002467D02*
X011462Y002467D01*
X011462Y002508D02*
X011462Y002425D01*
X011504Y002609D02*
X011671Y002609D01*
X011713Y002651D01*
X011713Y002734D01*
X011671Y002776D01*
X011713Y002885D02*
X011462Y002885D01*
X011504Y002776D02*
X011462Y002734D01*
X011462Y002651D01*
X011504Y002609D01*
X011713Y002885D02*
X011713Y003052D01*
X011713Y003162D02*
X011671Y003162D01*
X011504Y003328D01*
X011462Y003328D01*
X011462Y003162D01*
X011587Y003438D02*
X011587Y003563D01*
X011629Y003605D01*
X011671Y003605D01*
X011713Y003563D01*
X011713Y003480D01*
X011671Y003438D01*
X011587Y003438D01*
X011504Y003521D01*
X011462Y003605D01*
X011587Y003714D02*
X011587Y003839D01*
X011629Y003881D01*
X011671Y003881D01*
X011713Y003839D01*
X011713Y003756D01*
X011671Y003714D01*
X011587Y003714D01*
X011504Y003798D01*
X011462Y003881D01*
X011504Y003990D02*
X011462Y004032D01*
X011462Y004115D01*
X011504Y004157D01*
X011671Y003990D01*
X011713Y004032D01*
X011713Y004115D01*
X011671Y004157D01*
X011504Y004157D01*
X011504Y003990D02*
X011671Y003990D01*
X011385Y005925D02*
X011340Y005925D01*
X011340Y006015D01*
X011385Y006060D01*
X011385Y006150D01*
X011340Y006195D01*
X011250Y006195D01*
X011204Y006150D01*
X011204Y006060D01*
X011250Y006015D01*
X011250Y005925D01*
X011204Y005925D01*
X011094Y005925D02*
X010959Y006015D01*
X011094Y006105D01*
X010959Y006195D02*
X010959Y005925D01*
X010844Y005970D02*
X010799Y005925D01*
X010709Y005925D01*
X010664Y005970D01*
X010844Y006150D01*
X010844Y005970D01*
X010664Y005970D02*
X010664Y006150D01*
X010709Y006195D01*
X010799Y006195D01*
X010844Y006150D01*
X010550Y006150D02*
X010550Y005970D01*
X010505Y005925D01*
X010415Y005925D01*
X010370Y005970D01*
X010550Y006150D01*
X010505Y006195D01*
X010415Y006195D01*
X010370Y006150D01*
X010370Y005970D01*
X010255Y005925D02*
X010075Y005925D01*
X010255Y006105D01*
X010255Y006150D01*
X010210Y006195D01*
X010120Y006195D01*
X010075Y006150D01*
X008385Y006150D02*
X008385Y006060D01*
X008340Y006015D01*
X008340Y005925D01*
X008385Y005925D01*
X008250Y005925D02*
X008250Y006015D01*
X008204Y006060D01*
X008204Y006150D01*
X008250Y006195D01*
X008340Y006195D01*
X008385Y006150D01*
X008250Y005925D02*
X008204Y005925D01*
X008094Y005925D02*
X007959Y006015D01*
X008094Y006105D01*
X007959Y006195D02*
X007959Y005925D01*
X007844Y005970D02*
X007799Y005925D01*
X007709Y005925D01*
X007664Y005970D01*
X007844Y006150D01*
X007844Y005970D01*
X007664Y005970D02*
X007664Y006150D01*
X007709Y006195D01*
X007799Y006195D01*
X007844Y006150D01*
X007550Y006150D02*
X007550Y005970D01*
X007505Y005925D01*
X007415Y005925D01*
X007370Y005970D01*
X007550Y006150D01*
X007505Y006195D01*
X007415Y006195D01*
X007370Y006150D01*
X007370Y005970D01*
X007255Y005925D02*
X007075Y005925D01*
X007255Y006105D01*
X007255Y006150D01*
X007210Y006195D01*
X007120Y006195D01*
X007075Y006150D01*
X005385Y006150D02*
X005385Y006060D01*
X005340Y006015D01*
X005340Y005925D01*
X005385Y005925D01*
X005250Y005925D02*
X005250Y006015D01*
X005204Y006060D01*
X005204Y006150D01*
X005250Y006195D01*
X005340Y006195D01*
X005385Y006150D01*
X005250Y005925D02*
X005204Y005925D01*
X005094Y005925D02*
X004959Y006015D01*
X005094Y006105D01*
X004959Y006195D02*
X004959Y005925D01*
X004844Y005970D02*
X004799Y005925D01*
X004709Y005925D01*
X004664Y005970D01*
X004844Y006150D01*
X004844Y005970D01*
X004664Y005970D02*
X004664Y006150D01*
X004709Y006195D01*
X004799Y006195D01*
X004844Y006150D01*
X004550Y006150D02*
X004550Y005970D01*
X004505Y005925D01*
X004415Y005925D01*
X004370Y005970D01*
X004550Y006150D01*
X004505Y006195D01*
X004415Y006195D01*
X004370Y006150D01*
X004370Y005970D01*
X004255Y005925D02*
X004075Y005925D01*
X004255Y006105D01*
X004255Y006150D01*
X004210Y006195D01*
X004120Y006195D01*
X004075Y006150D01*
X006033Y004307D02*
X006193Y004307D01*
X006193Y003993D02*
X006033Y003993D01*
X006033Y003557D02*
X006193Y003557D01*
X006193Y003243D02*
X006033Y003243D01*
X006000Y002932D02*
X005840Y002932D01*
X005840Y002618D02*
X006000Y002618D01*
X006095Y002034D02*
X006255Y002034D01*
X006255Y001719D02*
X006095Y001719D01*
X006095Y001307D02*
X006255Y001307D01*
X006255Y000993D02*
X006095Y000993D01*
X007575Y002738D02*
X007755Y002738D01*
X007870Y002738D02*
X007870Y003008D01*
X008050Y003008D01*
X008164Y002963D02*
X008209Y003008D01*
X008299Y003008D01*
X008344Y002963D01*
X008344Y002918D01*
X008299Y002873D01*
X008344Y002828D01*
X008344Y002783D01*
X008299Y002738D01*
X008209Y002738D01*
X008164Y002783D01*
X008254Y002873D02*
X008299Y002873D01*
X008459Y002873D02*
X008459Y003008D01*
X008639Y003008D01*
X008594Y002918D02*
X008549Y002918D01*
X008459Y002873D01*
X008459Y002783D02*
X008504Y002738D01*
X008594Y002738D01*
X008639Y002783D01*
X008639Y002873D01*
X008594Y002918D01*
X008754Y002963D02*
X008799Y003008D01*
X008889Y003008D01*
X008934Y002963D01*
X008934Y002918D01*
X008889Y002873D01*
X008934Y002828D01*
X008934Y002783D01*
X008889Y002738D01*
X008799Y002738D01*
X008754Y002783D01*
X008844Y002873D02*
X008889Y002873D01*
X007960Y002873D02*
X007870Y002873D01*
X007575Y003008D02*
X007575Y002738D01*
X009845Y001932D02*
X010005Y001932D01*
X010005Y001618D02*
X009845Y001618D01*
X012540Y009470D02*
X012540Y009650D01*
X012450Y009560D02*
X012630Y009560D01*
X012745Y009605D02*
X012835Y009695D01*
X012835Y009425D01*
X012745Y009425D02*
X012925Y009425D01*
X013039Y009470D02*
X013219Y009650D01*
X013219Y009470D01*
X013174Y009425D01*
X013084Y009425D01*
X013039Y009470D01*
X013039Y009650D01*
X013084Y009695D01*
X013174Y009695D01*
X013219Y009650D01*
X013334Y009695D02*
X013334Y009515D01*
X013424Y009425D01*
X013514Y009515D01*
X013514Y009695D01*
X013700Y009650D02*
X013700Y009470D01*
X013745Y009425D01*
X013835Y009425D01*
X013880Y009470D01*
X013880Y009560D01*
X013790Y009560D01*
X013700Y009650D02*
X013745Y009695D01*
X013835Y009695D01*
X013880Y009650D01*
X013995Y009695D02*
X014175Y009425D01*
X014175Y009695D01*
X014289Y009695D02*
X014424Y009695D01*
X014469Y009650D01*
X014469Y009470D01*
X014424Y009425D01*
X014289Y009425D01*
X014289Y009695D01*
X013995Y009695D02*
X013995Y009425D01*
X001085Y009748D02*
X000995Y009748D01*
X000995Y009613D02*
X000995Y009883D01*
X000745Y009613D02*
X000700Y009658D01*
D11*
X006050Y007588D02*
X006550Y007588D01*
X006925Y007588D01*
X006550Y007588D02*
X006113Y008025D01*
X008800Y007588D02*
X009925Y007588D01*
X011800Y007588D02*
X012863Y007588D01*
D12*
X012550Y007375D02*
X013200Y007375D01*
X013700Y007375D01*
X015050Y007375D01*
X015150Y007275D01*
X015150Y004775D01*
X015050Y004675D01*
X013700Y004675D01*
X013200Y004675D01*
X012550Y004675D01*
X012450Y004775D01*
X012450Y005025D01*
X012450Y005775D01*
X012450Y006275D01*
X012450Y007025D01*
X012450Y007275D01*
X012550Y007375D01*
X012150Y007275D02*
X012050Y007375D01*
X010700Y007375D01*
X010200Y007375D01*
X009550Y007375D01*
X009450Y007275D01*
X009450Y007025D01*
X009450Y006275D01*
X009450Y005775D01*
X009450Y005025D01*
X009450Y004775D01*
X009550Y004675D01*
X010200Y004675D01*
X010700Y004675D01*
X012050Y004675D01*
X012150Y004775D01*
X012150Y007275D01*
X011300Y007900D02*
X011550Y008150D01*
X011550Y008650D01*
X011300Y008900D01*
X010800Y008900D01*
X010550Y008650D01*
X010300Y008900D01*
X009800Y008900D01*
X009550Y008650D01*
X009550Y008150D01*
X009800Y007900D01*
X010300Y007900D01*
X010550Y008150D01*
X010550Y008650D01*
X010550Y008150D02*
X010800Y007900D01*
X011300Y007900D01*
X012550Y008525D02*
X012800Y008275D01*
X013300Y008275D01*
X013550Y008525D01*
X013800Y008275D01*
X014300Y008275D01*
X014550Y008525D01*
X014550Y009025D01*
X014300Y009275D01*
X013800Y009275D01*
X013550Y009025D01*
X013550Y008525D01*
X013550Y009025D02*
X013300Y009275D01*
X012800Y009275D01*
X012550Y009025D01*
X012550Y008525D01*
X011300Y009900D02*
X010800Y009900D01*
X010550Y010150D01*
X010300Y009900D01*
X009800Y009900D01*
X009550Y010150D01*
X009300Y009900D01*
X008800Y009900D01*
X008550Y010150D01*
X008300Y009900D01*
X007800Y009900D01*
X007550Y010150D01*
X007300Y009900D01*
X006800Y009900D01*
X006550Y010150D01*
X006550Y010650D01*
X006800Y010900D01*
X007300Y010900D01*
X007550Y010650D01*
X007800Y010900D01*
X008300Y010900D01*
X008550Y010650D01*
X008550Y010150D01*
X008550Y010650D02*
X008800Y010900D01*
X009300Y010900D01*
X009550Y010650D01*
X009800Y010900D01*
X010300Y010900D01*
X010550Y010650D01*
X010800Y010900D01*
X011300Y010900D01*
X011550Y010650D01*
X011550Y010150D01*
X011300Y009900D01*
X010550Y010150D02*
X010550Y010650D01*
X009550Y010650D02*
X009550Y010150D01*
X009300Y008900D02*
X008800Y008900D01*
X008550Y008650D01*
X008300Y008900D01*
X007800Y008900D01*
X007550Y008650D01*
X007300Y008900D01*
X006800Y008900D01*
X006550Y008650D01*
X006550Y008150D01*
X006800Y007900D01*
X007300Y007900D01*
X007550Y008150D01*
X007550Y008650D01*
X007550Y008150D02*
X007800Y007900D01*
X008300Y007900D01*
X008550Y008150D01*
X008550Y008650D01*
X008550Y008150D02*
X008800Y007900D01*
X009300Y007900D01*
X009550Y008150D01*
X009550Y008650D02*
X009300Y008900D01*
X007550Y010150D02*
X007550Y010650D01*
X007700Y007375D02*
X007200Y007375D01*
X006550Y007375D01*
X006450Y007275D01*
X006450Y007025D01*
X006450Y006275D01*
X006450Y005775D01*
X006450Y005025D01*
X006450Y004775D01*
X006550Y004675D01*
X007200Y004675D01*
X007700Y004675D01*
X009050Y004675D01*
X009150Y004775D01*
X009150Y007275D01*
X009050Y007375D01*
X007700Y007375D01*
X006150Y007275D02*
X006050Y007375D01*
X004700Y007375D01*
X004200Y007375D01*
X003550Y007375D01*
X003450Y007275D01*
X003450Y007025D01*
X003450Y006275D01*
X003450Y005775D01*
X003450Y005025D01*
X003450Y004775D01*
X003550Y004675D01*
X004200Y004675D01*
X004700Y004675D01*
X006050Y004675D01*
X006150Y004775D01*
X006150Y007275D01*
X003150Y007275D02*
X003050Y007375D01*
X001700Y007375D01*
X001200Y007375D01*
X000550Y007375D01*
X000450Y007275D01*
X000450Y007025D01*
X000450Y006275D01*
X000450Y005775D01*
X000450Y005025D01*
X000450Y004775D01*
X000550Y004675D01*
X001200Y004675D01*
X001700Y004675D01*
X003050Y004675D01*
X003150Y004775D01*
X003150Y007275D01*
X003113Y003963D02*
X002613Y003963D01*
X002363Y003713D01*
X002363Y003213D01*
X002613Y002963D01*
X002363Y002713D01*
X002363Y002213D01*
X002613Y001963D01*
X003113Y001963D01*
X003363Y002213D01*
X003363Y002713D01*
X003113Y002963D01*
X002613Y002963D01*
X003113Y002963D02*
X003363Y003213D01*
X003363Y003713D01*
X003113Y003963D01*
X010468Y004125D02*
X010468Y002425D01*
X010470Y002402D01*
X010475Y002379D01*
X010484Y002357D01*
X010497Y002337D01*
X010512Y002319D01*
X010530Y002304D01*
X010550Y002291D01*
X010572Y002282D01*
X010595Y002277D01*
X010618Y002275D01*
X010975Y002275D01*
X010977Y002302D01*
X010982Y002329D01*
X010992Y002355D01*
X011004Y002379D01*
X011020Y002401D01*
X011038Y002421D01*
X011060Y002438D01*
X011083Y002453D01*
X011108Y002463D01*
X011134Y002471D01*
X011161Y002475D01*
X011189Y002475D01*
X011216Y002471D01*
X011242Y002463D01*
X011267Y002453D01*
X011290Y002438D01*
X011312Y002421D01*
X011330Y002401D01*
X011346Y002379D01*
X011358Y002355D01*
X011368Y002329D01*
X011373Y002302D01*
X011375Y002275D01*
X011733Y002275D01*
X011756Y002277D01*
X011779Y002282D01*
X011801Y002291D01*
X011821Y002304D01*
X011839Y002319D01*
X011854Y002337D01*
X011867Y002357D01*
X011876Y002379D01*
X011881Y002402D01*
X011883Y002425D01*
X011883Y004125D01*
X011881Y004148D01*
X011876Y004171D01*
X011867Y004193D01*
X011854Y004213D01*
X011839Y004231D01*
X011821Y004246D01*
X011801Y004259D01*
X011779Y004268D01*
X011756Y004273D01*
X011733Y004275D01*
X010618Y004275D01*
X010595Y004273D01*
X010572Y004268D01*
X010550Y004259D01*
X010530Y004246D01*
X010512Y004231D01*
X010497Y004213D01*
X010484Y004193D01*
X010475Y004171D01*
X010470Y004148D01*
X010468Y004125D01*
X014300Y003775D02*
X014300Y003275D01*
X014550Y003025D01*
X014300Y002775D01*
X014300Y002275D01*
X014550Y002025D01*
X015050Y002025D01*
X015300Y002275D01*
X015300Y002775D01*
X015050Y003025D01*
X014550Y003025D01*
X015050Y003025D02*
X015300Y003275D01*
X015300Y003775D01*
X015050Y004025D01*
X014550Y004025D01*
X014300Y003775D01*
D13*
X005154Y002343D02*
X004997Y002343D01*
X004997Y001832D01*
X004446Y001832D01*
X004446Y001468D02*
X004603Y001468D01*
X004603Y000957D01*
X005154Y000957D01*
X005154Y001468D02*
X004603Y001468D01*
X004603Y000957D02*
X004446Y000957D01*
X004997Y001832D02*
X005154Y001832D01*
X004997Y002343D02*
X004446Y002343D01*
D14*
X006970Y002150D02*
X006972Y002167D01*
X006977Y002184D01*
X006986Y002198D01*
X006998Y002211D01*
X007013Y002221D01*
X007029Y002227D01*
X007046Y002230D01*
X007063Y002229D01*
X007080Y002224D01*
X007095Y002216D01*
X007108Y002205D01*
X007119Y002191D01*
X007126Y002176D01*
X007130Y002159D01*
X007130Y002141D01*
X007126Y002124D01*
X007119Y002109D01*
X007108Y002095D01*
X007095Y002084D01*
X007080Y002076D01*
X007063Y002071D01*
X007046Y002070D01*
X007029Y002073D01*
X007013Y002079D01*
X006998Y002089D01*
X006986Y002102D01*
X006977Y002116D01*
X006972Y002133D01*
X006970Y002150D01*
X012095Y002150D02*
X012097Y002167D01*
X012102Y002184D01*
X012111Y002198D01*
X012123Y002211D01*
X012138Y002221D01*
X012154Y002227D01*
X012171Y002230D01*
X012188Y002229D01*
X012205Y002224D01*
X012220Y002216D01*
X012233Y002205D01*
X012244Y002191D01*
X012251Y002176D01*
X012255Y002159D01*
X012255Y002141D01*
X012251Y002124D01*
X012244Y002109D01*
X012233Y002095D01*
X012220Y002084D01*
X012205Y002076D01*
X012188Y002071D01*
X012171Y002070D01*
X012154Y002073D01*
X012138Y002079D01*
X012123Y002089D01*
X012111Y002102D01*
X012102Y002116D01*
X012097Y002133D01*
X012095Y002150D01*
D15*
X012175Y002150D02*
X012185Y002150D01*
X009175Y002525D02*
X009175Y003275D01*
X009173Y003295D01*
X009169Y003314D01*
X009161Y003332D01*
X009151Y003348D01*
X009138Y003363D01*
X009123Y003376D01*
X009107Y003386D01*
X009089Y003394D01*
X009070Y003398D01*
X009050Y003400D01*
X007300Y003400D01*
X007280Y003398D01*
X007261Y003394D01*
X007243Y003386D01*
X007227Y003376D01*
X007212Y003363D01*
X007199Y003348D01*
X007189Y003332D01*
X007181Y003314D01*
X007177Y003295D01*
X007175Y003275D01*
X007175Y003025D01*
X007300Y002900D02*
X007298Y002880D01*
X007294Y002861D01*
X007286Y002843D01*
X007276Y002827D01*
X007263Y002812D01*
X007248Y002799D01*
X007232Y002789D01*
X007214Y002781D01*
X007195Y002777D01*
X007175Y002775D01*
X007175Y002525D01*
X007177Y002505D01*
X007181Y002486D01*
X007189Y002468D01*
X007199Y002452D01*
X007212Y002437D01*
X007227Y002424D01*
X007243Y002414D01*
X007261Y002406D01*
X007280Y002402D01*
X007300Y002400D01*
X009050Y002400D01*
X009070Y002402D01*
X009089Y002406D01*
X009107Y002414D01*
X009123Y002424D01*
X009138Y002437D01*
X009151Y002452D01*
X009161Y002468D01*
X009169Y002486D01*
X009173Y002505D01*
X009175Y002525D01*
X007300Y002900D02*
X007298Y002920D01*
X007294Y002939D01*
X007286Y002957D01*
X007276Y002973D01*
X007263Y002988D01*
X007248Y003001D01*
X007232Y003011D01*
X007214Y003019D01*
X007195Y003023D01*
X007175Y003025D01*
X007050Y002150D02*
X007050Y002140D01*
M02*
