G75*
%MOIN*%
%OFA0B0*%
%FSLAX24Y24*%
%IPPOS*%
%LPD*%
%AMOC8*
5,1,8,0,0,1.08239X$1,22.5*
%
%ADD10R,0.0375X0.0375*%
%ADD11C,0.0820*%
%ADD12OC8,0.0540*%
%ADD13R,0.0308X0.0387*%
%ADD14R,0.0860X0.0320*%
%ADD15R,0.0690X0.0572*%
%ADD16R,0.0572X0.0690*%
%ADD17R,0.0296X0.0926*%
D10*
X003860Y002838D03*
X004490Y002838D03*
X004490Y003463D03*
X003860Y003463D03*
X003860Y004088D03*
X004490Y004088D03*
X005798Y004150D03*
X006427Y004150D03*
X006427Y003400D03*
X005798Y003400D03*
X005605Y002775D03*
X006235Y002775D03*
X006490Y001876D03*
X005860Y001876D03*
X005860Y001150D03*
X006490Y001150D03*
X009610Y001775D03*
X010240Y001775D03*
D11*
X002863Y002463D03*
X002863Y003463D03*
X007050Y008400D03*
X008050Y008400D03*
X009050Y008400D03*
X010050Y008400D03*
X011050Y008400D03*
X013050Y008775D03*
X014050Y008775D03*
X011050Y010400D03*
X010050Y010400D03*
X009050Y010400D03*
X008050Y010400D03*
X007050Y010400D03*
X014800Y003525D03*
X014800Y002525D03*
D12*
X013800Y005025D03*
X014800Y006025D03*
X013800Y007025D03*
X011800Y006025D03*
X010800Y005025D03*
X008800Y006025D03*
X007800Y005025D03*
X005800Y006025D03*
X004800Y005025D03*
X002800Y006025D03*
X001800Y005025D03*
X001800Y007025D03*
X004800Y007025D03*
X007800Y007025D03*
X010800Y007025D03*
D13*
X005253Y002088D03*
X004347Y002088D03*
X004347Y001213D03*
X005253Y001213D03*
D14*
X009965Y002525D03*
X009965Y003025D03*
X009965Y003525D03*
X009965Y004025D03*
X012385Y004025D03*
X012385Y003525D03*
X012385Y003025D03*
X012385Y002525D03*
D15*
X013550Y003131D03*
X013550Y003919D03*
D16*
X013444Y001150D03*
X012656Y001150D03*
X011694Y001150D03*
X010906Y001150D03*
D17*
X008925Y001876D03*
X008425Y001876D03*
X007925Y001876D03*
X007425Y001876D03*
X007425Y003924D03*
X007925Y003924D03*
X008425Y003924D03*
X008925Y003924D03*
M02*
