G75*
%MOIN*%
%OFA0B0*%
%FSLAX24Y24*%
%IPPOS*%
%LPD*%
%AMOC8*
5,1,8,0,0,1.08239X$1,22.5*
%
%ADD10C,0.0000*%
%ADD11R,0.0315X0.0315*%
%ADD12C,0.0760*%
%ADD13OC8,0.0480*%
%ADD14R,0.0248X0.0327*%
%ADD15R,0.0800X0.0260*%
%ADD16R,0.0630X0.0512*%
%ADD17R,0.0512X0.0630*%
%ADD18R,0.0236X0.0866*%
%ADD19C,0.0160*%
%ADD20C,0.0100*%
%ADD21C,0.0270*%
D10*
X001175Y000150D02*
X014425Y000150D01*
X014485Y000152D01*
X014546Y000157D01*
X014605Y000166D01*
X014664Y000179D01*
X014723Y000195D01*
X014780Y000215D01*
X014835Y000238D01*
X014890Y000265D01*
X014942Y000294D01*
X014993Y000327D01*
X015042Y000363D01*
X015088Y000401D01*
X015132Y000443D01*
X015174Y000487D01*
X015212Y000533D01*
X015248Y000582D01*
X015281Y000633D01*
X015310Y000685D01*
X015337Y000740D01*
X015360Y000795D01*
X015380Y000852D01*
X015396Y000911D01*
X015409Y000970D01*
X015418Y001029D01*
X015423Y001090D01*
X015425Y001150D01*
X015425Y009150D01*
X015423Y009210D01*
X015418Y009271D01*
X015409Y009330D01*
X015396Y009389D01*
X015380Y009448D01*
X015360Y009505D01*
X015337Y009560D01*
X015310Y009615D01*
X015281Y009667D01*
X015248Y009718D01*
X015212Y009767D01*
X015174Y009813D01*
X015132Y009857D01*
X015088Y009899D01*
X015042Y009937D01*
X014993Y009973D01*
X014942Y010006D01*
X014890Y010035D01*
X014835Y010062D01*
X014780Y010085D01*
X014723Y010105D01*
X014664Y010121D01*
X014605Y010134D01*
X014546Y010143D01*
X014485Y010148D01*
X014425Y010150D01*
X012425Y010150D01*
X011425Y011150D01*
X006675Y011150D01*
X005675Y010150D01*
X001175Y010150D01*
X001115Y010148D01*
X001054Y010143D01*
X000995Y010134D01*
X000936Y010121D01*
X000877Y010105D01*
X000820Y010085D01*
X000765Y010062D01*
X000710Y010035D01*
X000658Y010006D01*
X000607Y009973D01*
X000558Y009937D01*
X000512Y009899D01*
X000468Y009857D01*
X000426Y009813D01*
X000388Y009767D01*
X000352Y009718D01*
X000319Y009667D01*
X000290Y009615D01*
X000263Y009560D01*
X000240Y009505D01*
X000220Y009448D01*
X000204Y009389D01*
X000191Y009330D01*
X000182Y009271D01*
X000177Y009210D01*
X000175Y009150D01*
X000175Y001150D01*
X000177Y001090D01*
X000182Y001029D01*
X000191Y000970D01*
X000204Y000911D01*
X000220Y000852D01*
X000240Y000795D01*
X000263Y000740D01*
X000290Y000685D01*
X000319Y000633D01*
X000352Y000582D01*
X000388Y000533D01*
X000426Y000487D01*
X000468Y000443D01*
X000512Y000401D01*
X000558Y000363D01*
X000607Y000327D01*
X000658Y000294D01*
X000710Y000265D01*
X000765Y000238D01*
X000820Y000215D01*
X000877Y000195D01*
X000936Y000179D01*
X000995Y000166D01*
X001054Y000157D01*
X001115Y000152D01*
X001175Y000150D01*
D11*
X003860Y002838D03*
X004490Y002838D03*
X004490Y003463D03*
X003860Y003463D03*
X003860Y004088D03*
X004490Y004088D03*
X005798Y004150D03*
X006427Y004150D03*
X006427Y003400D03*
X005798Y003400D03*
X005605Y002775D03*
X006235Y002775D03*
X006490Y001876D03*
X005860Y001876D03*
X005860Y001150D03*
X006490Y001150D03*
X009610Y001775D03*
X010240Y001775D03*
D12*
X014800Y002525D03*
X014800Y003525D03*
X011050Y008400D03*
X010050Y008400D03*
X009050Y008400D03*
X008050Y008400D03*
X007050Y008400D03*
X007050Y010400D03*
X008050Y010400D03*
X009050Y010400D03*
X010050Y010400D03*
X011050Y010400D03*
X013050Y008775D03*
X014050Y008775D03*
X002863Y003463D03*
X002863Y002463D03*
D13*
X001800Y005025D03*
X002800Y006025D03*
X001800Y007025D03*
X004800Y007025D03*
X005800Y006025D03*
X004800Y005025D03*
X007800Y005025D03*
X008800Y006025D03*
X007800Y007025D03*
X010800Y007025D03*
X011800Y006025D03*
X010800Y005025D03*
X013800Y005025D03*
X014800Y006025D03*
X013800Y007025D03*
D14*
X005253Y002088D03*
X004347Y002088D03*
X004347Y001213D03*
X005253Y001213D03*
D15*
X009965Y002525D03*
X009965Y003025D03*
X009965Y003525D03*
X009965Y004025D03*
X012385Y004025D03*
X012385Y003525D03*
X012385Y003025D03*
X012385Y002525D03*
D16*
X013550Y003131D03*
X013550Y003919D03*
D17*
X013444Y001150D03*
X012656Y001150D03*
X011694Y001150D03*
X010906Y001150D03*
D18*
X008925Y001876D03*
X008425Y001876D03*
X007925Y001876D03*
X007425Y001876D03*
X007425Y003924D03*
X007925Y003924D03*
X008425Y003924D03*
X008925Y003924D03*
D19*
X008925Y003150D01*
X009175Y002775D02*
X007675Y002775D01*
X007425Y003025D01*
X007425Y003924D01*
X007026Y003924D01*
X006800Y004150D01*
X006427Y004150D01*
X006427Y003400D02*
X006800Y003400D01*
X006925Y002775D02*
X006235Y002775D01*
X006235Y002522D01*
X005860Y002147D01*
X005860Y001876D01*
X005860Y001876D01*
X005860Y001150D01*
X005860Y001150D01*
X006490Y001876D02*
X007026Y001876D01*
X007425Y001876D01*
X007925Y001876D02*
X007925Y000838D01*
X007675Y000588D01*
X004550Y000588D01*
X004347Y000790D01*
X004347Y001213D01*
X004347Y002088D01*
X004050Y002088D01*
X003860Y002277D01*
X003860Y002838D01*
X003860Y003463D01*
X002863Y003463D01*
X003860Y003463D02*
X003860Y004088D01*
X004490Y004088D02*
X004490Y003463D01*
X005113Y002963D02*
X005113Y004338D01*
X005488Y004713D01*
X005488Y005338D01*
X004800Y006025D01*
X002800Y006025D01*
X001800Y005025D02*
X003863Y005025D01*
X004490Y004398D01*
X004490Y004088D01*
X005113Y002963D02*
X005300Y002775D01*
X005605Y002775D01*
X007925Y003924D02*
X007925Y004463D01*
X008800Y005338D01*
X008800Y006025D01*
X011800Y006025D01*
X011363Y005463D02*
X011550Y005275D01*
X012113Y005275D01*
X012488Y005650D01*
X012488Y006963D01*
X011050Y008400D01*
X010050Y008400D02*
X011300Y009650D01*
X014425Y009650D01*
X014925Y009150D01*
X014925Y008150D01*
X013800Y007025D01*
X014800Y006025D02*
X014800Y003525D01*
X013550Y003131D02*
X013031Y003131D01*
X012925Y003025D01*
X012385Y003025D01*
X011425Y002775D02*
X011425Y004275D01*
X011800Y004650D01*
X012300Y004650D01*
X013050Y005400D01*
X013050Y008775D01*
X010800Y007025D02*
X010425Y007025D01*
X009050Y008400D01*
X008050Y008400D02*
X008050Y007775D01*
X007800Y007525D01*
X007800Y007025D01*
X008800Y006025D02*
X005800Y006025D01*
X005675Y007025D02*
X004800Y007025D01*
X005675Y007025D02*
X007050Y008400D01*
X009988Y005463D02*
X011363Y005463D01*
X009988Y005463D02*
X009300Y004775D01*
X008738Y004775D01*
X008425Y004463D01*
X008425Y003924D01*
X009965Y004025D02*
X010675Y004025D01*
X011425Y002775D02*
X011175Y002525D01*
X011800Y001900D01*
X012425Y001900D01*
X012656Y001669D01*
X012656Y001150D01*
X010906Y001150D02*
X009610Y001150D01*
X009610Y001775D01*
X009300Y001775D01*
X009199Y001876D01*
X008925Y001876D01*
X009425Y002525D02*
X009175Y002775D01*
X009425Y002525D02*
X009965Y002525D01*
X011175Y002525D01*
X012925Y004025D02*
X013031Y003919D01*
X013550Y003919D01*
X012925Y004025D02*
X012385Y004025D01*
D20*
X004268Y000544D02*
X000665Y000544D01*
X000609Y000584D02*
X000462Y000787D01*
X000385Y001025D01*
X000375Y001150D01*
X000375Y009150D01*
X000385Y009275D01*
X000462Y009513D01*
X000609Y009716D01*
X000812Y009863D01*
X001050Y009940D01*
X001175Y009950D01*
X005758Y009950D01*
X006758Y010950D01*
X011342Y010950D01*
X012225Y010067D01*
X012342Y009950D01*
X014425Y009950D01*
X014550Y009940D01*
X014788Y009863D01*
X014788Y009863D01*
X014991Y009716D01*
X015138Y009513D01*
X015215Y009275D01*
X015225Y009150D01*
X015225Y003850D01*
X015100Y003974D01*
X015030Y004003D01*
X015030Y005703D01*
X015190Y005863D01*
X015225Y005863D01*
X015190Y005863D02*
X015190Y006187D01*
X014962Y006415D01*
X014638Y006415D01*
X014410Y006187D01*
X014410Y005863D01*
X013280Y005863D01*
X013280Y005765D02*
X014509Y005765D01*
X014570Y005703D02*
X014570Y004003D01*
X014500Y003974D01*
X014351Y003825D01*
X014270Y003630D01*
X014270Y003420D01*
X014351Y003225D01*
X014500Y003076D01*
X014623Y003025D01*
X014597Y003016D01*
X014522Y002978D01*
X014455Y002929D01*
X014396Y002870D01*
X014347Y002803D01*
X014309Y002728D01*
X014283Y002649D01*
X014271Y002575D01*
X014750Y002575D01*
X014750Y002475D01*
X014850Y002475D01*
X014850Y001996D01*
X014924Y002008D01*
X015003Y002034D01*
X015078Y002072D01*
X015145Y002121D01*
X015204Y002180D01*
X015225Y002208D01*
X015225Y001150D01*
X015215Y001025D01*
X015138Y000787D01*
X014991Y000584D01*
X014788Y000437D01*
X014550Y000360D01*
X014425Y000350D01*
X001175Y000350D01*
X001050Y000360D01*
X000812Y000437D01*
X000609Y000584D01*
X000567Y000643D02*
X004170Y000643D01*
X004117Y000695D02*
X004455Y000358D01*
X007770Y000358D01*
X007905Y000492D01*
X008155Y000742D01*
X008155Y001343D01*
X008178Y001366D01*
X008187Y001351D01*
X008215Y001323D01*
X008249Y001304D01*
X008287Y001293D01*
X008416Y001293D01*
X008416Y001867D01*
X008434Y001867D01*
X008434Y001293D01*
X008563Y001293D01*
X008601Y001304D01*
X008635Y001323D01*
X008663Y001351D01*
X008672Y001366D01*
X008745Y001293D01*
X009105Y001293D01*
X009193Y001381D01*
X009193Y001557D01*
X009205Y001545D01*
X009313Y001545D01*
X009380Y001478D01*
X009380Y001323D01*
X009368Y001311D01*
X009325Y001207D01*
X009325Y001093D01*
X009368Y000989D01*
X009449Y000908D01*
X009553Y000865D01*
X009667Y000865D01*
X009771Y000908D01*
X009783Y000920D01*
X010500Y000920D01*
X010500Y000773D01*
X010588Y000685D01*
X011224Y000685D01*
X011305Y000765D01*
X011318Y000743D01*
X011346Y000715D01*
X011380Y000695D01*
X011418Y000685D01*
X011644Y000685D01*
X011644Y001100D01*
X011744Y001100D01*
X011744Y001200D01*
X012100Y001200D01*
X012100Y001485D01*
X012089Y001523D01*
X012070Y001557D01*
X012042Y001585D01*
X012008Y001605D01*
X011969Y001615D01*
X011744Y001615D01*
X011744Y001200D01*
X011644Y001200D01*
X011644Y001615D01*
X011418Y001615D01*
X011380Y001605D01*
X011346Y001585D01*
X011318Y001557D01*
X011305Y001535D01*
X011224Y001615D01*
X010588Y001615D01*
X010539Y001565D01*
X010547Y001598D01*
X010547Y001746D01*
X010269Y001746D01*
X010269Y001804D01*
X010211Y001804D01*
X010211Y002082D01*
X010063Y002082D01*
X010025Y002072D01*
X009990Y002053D01*
X009962Y002025D01*
X009943Y001990D01*
X009932Y001952D01*
X009932Y001804D01*
X010211Y001804D01*
X010211Y001746D01*
X009932Y001746D01*
X009932Y001598D01*
X009943Y001560D01*
X009962Y001525D01*
X009990Y001497D01*
X010025Y001478D01*
X010063Y001468D01*
X010211Y001468D01*
X010211Y001746D01*
X010269Y001746D01*
X010269Y001468D01*
X010417Y001468D01*
X010455Y001478D01*
X010490Y001497D01*
X010500Y001508D01*
X010500Y001380D01*
X009840Y001380D01*
X009840Y001478D01*
X009918Y001555D01*
X009918Y001995D01*
X009830Y002082D01*
X009390Y002082D01*
X009354Y002046D01*
X009294Y002106D01*
X009193Y002106D01*
X009193Y002372D01*
X009105Y002459D01*
X008745Y002459D01*
X008672Y002387D01*
X008663Y002402D01*
X008635Y002429D01*
X008601Y002449D01*
X008563Y002459D01*
X008434Y002459D01*
X008434Y001885D01*
X008416Y001885D01*
X008416Y002459D01*
X008287Y002459D01*
X008249Y002449D01*
X008215Y002429D01*
X008187Y002402D01*
X008178Y002387D01*
X008105Y002459D01*
X007745Y002459D01*
X007675Y002390D01*
X007605Y002459D01*
X007245Y002459D01*
X007157Y002372D01*
X007157Y002131D01*
X007083Y002161D01*
X006970Y002161D01*
X006865Y002118D01*
X006853Y002106D01*
X006787Y002106D01*
X006710Y002184D01*
X006270Y002184D01*
X006182Y002096D01*
X006182Y001657D01*
X006270Y001569D01*
X006710Y001569D01*
X006787Y001646D01*
X006853Y001646D01*
X006865Y001635D01*
X006970Y001591D01*
X007083Y001591D01*
X007157Y001622D01*
X007157Y001381D01*
X007245Y001293D01*
X007605Y001293D01*
X007675Y001363D01*
X007695Y001343D01*
X007695Y000933D01*
X007580Y000817D01*
X004645Y000817D01*
X004577Y000886D01*
X004577Y000943D01*
X004621Y000987D01*
X004621Y001438D01*
X004577Y001482D01*
X004577Y001818D01*
X004621Y001862D01*
X004621Y002313D01*
X004533Y002401D01*
X004161Y002401D01*
X004111Y002351D01*
X004090Y002373D01*
X004090Y002540D01*
X004168Y002618D01*
X004168Y003057D01*
X004090Y003135D01*
X004090Y003165D01*
X004168Y003243D01*
X004168Y003682D01*
X004090Y003760D01*
X004090Y003790D01*
X004168Y003868D01*
X004168Y004307D01*
X004080Y004395D01*
X003640Y004395D01*
X003553Y004307D01*
X003553Y003868D01*
X003630Y003790D01*
X003630Y003760D01*
X003563Y003692D01*
X003341Y003692D01*
X003312Y003763D01*
X003163Y003912D01*
X002968Y003992D01*
X002757Y003992D01*
X002562Y003912D01*
X002413Y003763D01*
X002333Y003568D01*
X002333Y003357D01*
X002413Y003162D01*
X002562Y003013D01*
X002685Y002962D01*
X002659Y002954D01*
X002585Y002916D01*
X002517Y002867D01*
X002458Y002808D01*
X002409Y002740D01*
X002371Y002666D01*
X002346Y002587D01*
X002334Y002512D01*
X002812Y002512D01*
X002812Y002413D01*
X002334Y002413D01*
X002346Y002338D01*
X002371Y002259D01*
X002409Y002185D01*
X002458Y002117D01*
X002517Y002058D01*
X002585Y002009D01*
X002659Y001971D01*
X002738Y001946D01*
X002813Y001934D01*
X002813Y002412D01*
X002912Y002412D01*
X002912Y001934D01*
X002987Y001946D01*
X003066Y001971D01*
X003140Y002009D01*
X003208Y002058D01*
X003267Y002117D01*
X003316Y002185D01*
X003354Y002259D01*
X003379Y002338D01*
X003391Y002413D01*
X002913Y002413D01*
X002913Y002512D01*
X003391Y002512D01*
X003379Y002587D01*
X003354Y002666D01*
X003316Y002740D01*
X003267Y002808D01*
X003208Y002867D01*
X003140Y002916D01*
X003066Y002954D01*
X003040Y002962D01*
X003163Y003013D01*
X003312Y003162D01*
X003341Y003233D01*
X003563Y003233D01*
X003630Y003165D01*
X003630Y003135D01*
X003553Y003057D01*
X003553Y002618D01*
X003630Y002540D01*
X003630Y002182D01*
X003820Y001992D01*
X003955Y001858D01*
X004078Y001858D01*
X004117Y001818D01*
X004117Y001482D01*
X004073Y001438D01*
X004073Y000987D01*
X004117Y000943D01*
X004117Y000695D01*
X004117Y000741D02*
X000495Y000741D01*
X000445Y000840D02*
X004117Y000840D01*
X004117Y000938D02*
X000413Y000938D01*
X000384Y001037D02*
X004073Y001037D01*
X004073Y001135D02*
X000376Y001135D01*
X000375Y001234D02*
X004073Y001234D01*
X004073Y001332D02*
X000375Y001332D01*
X000375Y001431D02*
X004073Y001431D01*
X004117Y001529D02*
X000375Y001529D01*
X000375Y001628D02*
X004117Y001628D01*
X004117Y001726D02*
X000375Y001726D01*
X000375Y001825D02*
X004111Y001825D01*
X003889Y001923D02*
X000375Y001923D01*
X000375Y002022D02*
X002568Y002022D01*
X002456Y002120D02*
X000375Y002120D01*
X000375Y002219D02*
X002392Y002219D01*
X002352Y002317D02*
X000375Y002317D01*
X000375Y002416D02*
X002812Y002416D01*
X002813Y002317D02*
X002912Y002317D01*
X002912Y002219D02*
X002813Y002219D01*
X002813Y002120D02*
X002912Y002120D01*
X002912Y002022D02*
X002813Y002022D01*
X003157Y002022D02*
X003791Y002022D01*
X003692Y002120D02*
X003269Y002120D01*
X003333Y002219D02*
X003630Y002219D01*
X003630Y002317D02*
X003373Y002317D01*
X003391Y002514D02*
X003630Y002514D01*
X003630Y002416D02*
X002913Y002416D01*
X003371Y002613D02*
X003558Y002613D01*
X003553Y002711D02*
X003331Y002711D01*
X003265Y002810D02*
X003553Y002810D01*
X003553Y002908D02*
X003151Y002908D01*
X003147Y003007D02*
X003553Y003007D01*
X003600Y003105D02*
X003255Y003105D01*
X003329Y003204D02*
X003592Y003204D01*
X004128Y003204D02*
X004222Y003204D01*
X004182Y003243D02*
X004270Y003155D01*
X004710Y003155D01*
X004797Y003243D01*
X004797Y003682D01*
X004720Y003760D01*
X004720Y003790D01*
X004797Y003868D01*
X004797Y004307D01*
X004720Y004385D01*
X004720Y004493D01*
X004092Y005120D01*
X003958Y005255D01*
X002122Y005255D01*
X001962Y005415D01*
X001638Y005415D01*
X001410Y005187D01*
X001410Y004863D01*
X001638Y004635D01*
X001962Y004635D01*
X002122Y004795D01*
X003767Y004795D01*
X004219Y004343D01*
X004182Y004307D01*
X004182Y003868D01*
X004260Y003790D01*
X004260Y003760D01*
X004182Y003682D01*
X004182Y003243D01*
X004182Y003302D02*
X004168Y003302D01*
X004168Y003401D02*
X004182Y003401D01*
X004168Y003499D02*
X004182Y003499D01*
X004168Y003598D02*
X004182Y003598D01*
X004196Y003696D02*
X004154Y003696D01*
X004094Y003795D02*
X004256Y003795D01*
X004182Y003893D02*
X004168Y003893D01*
X004168Y003992D02*
X004182Y003992D01*
X004168Y004090D02*
X004182Y004090D01*
X004168Y004189D02*
X004182Y004189D01*
X004168Y004287D02*
X004182Y004287D01*
X004177Y004386D02*
X004089Y004386D01*
X004078Y004484D02*
X000375Y004484D01*
X000375Y004386D02*
X003631Y004386D01*
X003553Y004287D02*
X000375Y004287D01*
X000375Y004189D02*
X003553Y004189D01*
X003553Y004090D02*
X000375Y004090D01*
X000375Y003992D02*
X002755Y003992D01*
X002543Y003893D02*
X000375Y003893D01*
X000375Y003795D02*
X002445Y003795D01*
X002386Y003696D02*
X000375Y003696D01*
X000375Y003598D02*
X002345Y003598D01*
X002333Y003499D02*
X000375Y003499D01*
X000375Y003401D02*
X002333Y003401D01*
X002355Y003302D02*
X000375Y003302D01*
X000375Y003204D02*
X002396Y003204D01*
X002470Y003105D02*
X000375Y003105D01*
X000375Y003007D02*
X002578Y003007D01*
X002574Y002908D02*
X000375Y002908D01*
X000375Y002810D02*
X002460Y002810D01*
X002394Y002711D02*
X000375Y002711D01*
X000375Y002613D02*
X002354Y002613D01*
X002334Y002514D02*
X000375Y002514D01*
X002970Y003992D02*
X003553Y003992D01*
X003553Y003893D02*
X003182Y003893D01*
X003280Y003795D02*
X003626Y003795D01*
X003566Y003696D02*
X003339Y003696D01*
X004120Y003105D02*
X004230Y003105D01*
X004240Y003115D02*
X004212Y003087D01*
X004193Y003053D01*
X004182Y003015D01*
X004182Y002866D01*
X004461Y002866D01*
X004461Y002809D01*
X004182Y002809D01*
X004182Y002660D01*
X004193Y002622D01*
X004212Y002588D01*
X004240Y002560D01*
X004275Y002540D01*
X004313Y002530D01*
X004461Y002530D01*
X004461Y002809D01*
X004519Y002809D01*
X004519Y002866D01*
X004797Y002866D01*
X004797Y003015D01*
X004787Y003053D01*
X004767Y003087D01*
X004740Y003115D01*
X004705Y003135D01*
X004667Y003145D01*
X004519Y003145D01*
X004519Y002866D01*
X004461Y002866D01*
X004461Y003145D01*
X004313Y003145D01*
X004275Y003135D01*
X004240Y003115D01*
X004182Y003007D02*
X004168Y003007D01*
X004168Y002908D02*
X004182Y002908D01*
X004168Y002810D02*
X004461Y002810D01*
X004519Y002810D02*
X004940Y002810D01*
X004883Y002867D02*
X005017Y002733D01*
X005017Y002733D01*
X005070Y002680D01*
X005205Y002545D01*
X005308Y002545D01*
X005385Y002468D01*
X005825Y002468D01*
X005913Y002555D01*
X005913Y002995D01*
X005825Y003082D01*
X005385Y003082D01*
X005352Y003049D01*
X005342Y003058D01*
X005342Y004242D01*
X005717Y004617D01*
X005717Y005433D01*
X005583Y005567D01*
X004895Y006255D01*
X003122Y006255D01*
X002962Y006415D01*
X002638Y006415D01*
X002410Y006187D01*
X002410Y005863D01*
X000375Y005863D01*
X000375Y005765D02*
X002509Y005765D01*
X002607Y005666D02*
X000375Y005666D01*
X000375Y005568D02*
X004932Y005568D01*
X004834Y005666D02*
X002993Y005666D01*
X002962Y005635D02*
X003122Y005795D01*
X004705Y005795D01*
X005258Y005242D01*
X005258Y004808D01*
X005017Y004567D01*
X004883Y004433D01*
X004883Y002867D01*
X004883Y002908D02*
X004797Y002908D01*
X004797Y003007D02*
X004883Y003007D01*
X004883Y003105D02*
X004750Y003105D01*
X004758Y003204D02*
X004883Y003204D01*
X004883Y003302D02*
X004797Y003302D01*
X004797Y003401D02*
X004883Y003401D01*
X004883Y003499D02*
X004797Y003499D01*
X004797Y003598D02*
X004883Y003598D01*
X004883Y003696D02*
X004784Y003696D01*
X004724Y003795D02*
X004883Y003795D01*
X004883Y003893D02*
X004797Y003893D01*
X004797Y003992D02*
X004883Y003992D01*
X004883Y004090D02*
X004797Y004090D01*
X004797Y004189D02*
X004883Y004189D01*
X004883Y004287D02*
X004797Y004287D01*
X004720Y004386D02*
X004883Y004386D01*
X004934Y004484D02*
X004720Y004484D01*
X004630Y004583D02*
X005032Y004583D01*
X004962Y004635D02*
X005190Y004863D01*
X005190Y005187D01*
X004962Y005415D01*
X004638Y005415D01*
X004410Y005187D01*
X004410Y004863D01*
X004638Y004635D01*
X004962Y004635D01*
X005008Y004681D02*
X005131Y004681D01*
X005106Y004780D02*
X005229Y004780D01*
X005258Y004878D02*
X005190Y004878D01*
X005190Y004977D02*
X005258Y004977D01*
X005258Y005075D02*
X005190Y005075D01*
X005190Y005174D02*
X005258Y005174D01*
X005228Y005272D02*
X005105Y005272D01*
X005129Y005371D02*
X005006Y005371D01*
X005031Y005469D02*
X000375Y005469D01*
X000375Y005371D02*
X001594Y005371D01*
X001495Y005272D02*
X000375Y005272D01*
X000375Y005174D02*
X001410Y005174D01*
X001410Y005075D02*
X000375Y005075D01*
X000375Y004977D02*
X001410Y004977D01*
X001410Y004878D02*
X000375Y004878D01*
X000375Y004780D02*
X001494Y004780D01*
X001592Y004681D02*
X000375Y004681D01*
X000375Y004583D02*
X003980Y004583D01*
X003881Y004681D02*
X002008Y004681D01*
X002106Y004780D02*
X003783Y004780D01*
X004138Y005075D02*
X004410Y005075D01*
X004410Y004977D02*
X004236Y004977D01*
X004335Y004878D02*
X004410Y004878D01*
X004433Y004780D02*
X004494Y004780D01*
X004532Y004681D02*
X004592Y004681D01*
X004410Y005174D02*
X004039Y005174D01*
X004495Y005272D02*
X002105Y005272D01*
X002006Y005371D02*
X004594Y005371D01*
X004735Y005765D02*
X003091Y005765D01*
X002962Y005635D02*
X002638Y005635D01*
X002410Y005863D01*
X002410Y005962D02*
X000375Y005962D01*
X000375Y006060D02*
X002410Y006060D01*
X002410Y006159D02*
X000375Y006159D01*
X000375Y006257D02*
X002480Y006257D01*
X002579Y006356D02*
X000375Y006356D01*
X000375Y006454D02*
X012258Y006454D01*
X012258Y006356D02*
X012021Y006356D01*
X011962Y006415D02*
X011638Y006415D01*
X011478Y006255D01*
X009122Y006255D01*
X008962Y006415D01*
X008638Y006415D01*
X008478Y006255D01*
X006122Y006255D01*
X005962Y006415D01*
X005638Y006415D01*
X005410Y006187D01*
X005410Y005863D01*
X005287Y005863D01*
X005410Y005863D02*
X005638Y005635D01*
X005962Y005635D01*
X006122Y005795D01*
X008478Y005795D01*
X008570Y005703D01*
X008570Y005433D01*
X008190Y005053D01*
X008190Y005187D01*
X007962Y005415D01*
X007638Y005415D01*
X007410Y005187D01*
X007410Y004863D01*
X007638Y004635D01*
X007772Y004635D01*
X007695Y004558D01*
X007695Y004457D01*
X007675Y004437D01*
X007605Y004507D01*
X007245Y004507D01*
X007157Y004419D01*
X007157Y004154D01*
X007122Y004154D01*
X007030Y004245D01*
X006895Y004380D01*
X006725Y004380D01*
X006647Y004457D01*
X006208Y004457D01*
X006120Y004370D01*
X006120Y003930D01*
X006208Y003843D01*
X006647Y003843D01*
X006715Y003910D01*
X006931Y003694D01*
X007157Y003694D01*
X007157Y003428D01*
X007195Y003390D01*
X007195Y002930D01*
X007330Y002795D01*
X007580Y002545D01*
X009080Y002545D01*
X009330Y002295D01*
X009453Y002295D01*
X009503Y002245D01*
X010427Y002245D01*
X010477Y002295D01*
X011080Y002295D01*
X011705Y001670D01*
X012330Y001670D01*
X012385Y001615D01*
X012338Y001615D01*
X012250Y001527D01*
X012250Y000773D01*
X012338Y000685D01*
X012974Y000685D01*
X013055Y000765D01*
X013068Y000743D01*
X013096Y000715D01*
X013130Y000695D01*
X013168Y000685D01*
X013394Y000685D01*
X013394Y001100D01*
X013494Y001100D01*
X013494Y001200D01*
X013850Y001200D01*
X013850Y001485D01*
X013839Y001523D01*
X013820Y001557D01*
X013792Y001585D01*
X013758Y001605D01*
X013719Y001615D01*
X013494Y001615D01*
X013494Y001200D01*
X013394Y001200D01*
X013394Y001615D01*
X013168Y001615D01*
X013130Y001605D01*
X013096Y001585D01*
X013068Y001557D01*
X013055Y001535D01*
X012974Y001615D01*
X012886Y001615D01*
X012886Y001764D01*
X012520Y002130D01*
X011895Y002130D01*
X011500Y002525D01*
X011520Y002545D01*
X011520Y002545D01*
X011655Y002680D01*
X011655Y004180D01*
X011895Y004420D01*
X012395Y004420D01*
X013280Y005305D01*
X013280Y008297D01*
X013350Y008326D01*
X013499Y008475D01*
X013550Y008598D01*
X013559Y008572D01*
X013597Y008497D01*
X013646Y008430D01*
X013705Y008371D01*
X013772Y008322D01*
X013847Y008284D01*
X013926Y008258D01*
X014000Y008246D01*
X014000Y008725D01*
X014100Y008725D01*
X014100Y008825D01*
X014000Y008825D01*
X014000Y009304D01*
X013926Y009292D01*
X013847Y009266D01*
X013772Y009228D01*
X013705Y009179D01*
X013646Y009120D01*
X013597Y009053D01*
X013559Y008978D01*
X013550Y008952D01*
X013499Y009075D01*
X013350Y009224D01*
X013155Y009305D01*
X012945Y009305D01*
X012750Y009224D01*
X012601Y009075D01*
X012520Y008880D01*
X012520Y008670D01*
X012601Y008475D01*
X012750Y008326D01*
X012820Y008297D01*
X012820Y005495D01*
X012205Y004880D01*
X011705Y004880D01*
X011570Y004745D01*
X011195Y004370D01*
X011195Y002870D01*
X011080Y002755D01*
X010477Y002755D01*
X010457Y002775D01*
X010515Y002833D01*
X010515Y003217D01*
X010457Y003275D01*
X010515Y003333D01*
X010515Y003717D01*
X010457Y003775D01*
X010477Y003795D01*
X010502Y003795D01*
X010514Y003783D01*
X010618Y003740D01*
X010732Y003740D01*
X010836Y003783D01*
X010917Y003864D01*
X010960Y003968D01*
X010960Y004082D01*
X010917Y004186D01*
X010836Y004267D01*
X010732Y004310D01*
X010618Y004310D01*
X010514Y004267D01*
X010502Y004255D01*
X010477Y004255D01*
X010427Y004305D01*
X009503Y004305D01*
X009415Y004217D01*
X009415Y003833D01*
X009473Y003775D01*
X009415Y003717D01*
X009415Y003333D01*
X009473Y003275D01*
X009415Y003217D01*
X009415Y002860D01*
X009405Y002870D01*
X009270Y003005D01*
X009173Y003005D01*
X009210Y003093D01*
X009210Y003207D01*
X009167Y003311D01*
X009155Y003323D01*
X009155Y003390D01*
X009193Y003428D01*
X009193Y004419D01*
X009105Y004507D01*
X008794Y004507D01*
X008833Y004545D01*
X009127Y004545D01*
X009139Y004533D01*
X009243Y004490D01*
X009357Y004490D01*
X009461Y004533D01*
X009542Y004614D01*
X009585Y004718D01*
X009585Y004735D01*
X010083Y005233D01*
X010456Y005233D01*
X010410Y005187D01*
X010410Y004863D01*
X010638Y004635D01*
X010962Y004635D01*
X011190Y004863D01*
X011190Y005187D01*
X011144Y005233D01*
X011267Y005233D01*
X011320Y005180D01*
X011455Y005045D01*
X012208Y005045D01*
X012342Y005180D01*
X012717Y005555D01*
X012717Y007058D01*
X011551Y008224D01*
X011580Y008295D01*
X011580Y008505D01*
X011499Y008700D01*
X011350Y008849D01*
X011155Y008930D01*
X010945Y008930D01*
X010877Y008902D01*
X011395Y009420D01*
X014330Y009420D01*
X014695Y009055D01*
X014695Y008245D01*
X013865Y007415D01*
X013638Y007415D01*
X013410Y007187D01*
X013410Y006863D01*
X013638Y006635D01*
X013962Y006635D01*
X014190Y006863D01*
X014190Y007090D01*
X015155Y008055D01*
X015155Y009245D01*
X015020Y009380D01*
X014520Y009880D01*
X011205Y009880D01*
X011070Y009745D01*
X010226Y008901D01*
X010155Y008930D01*
X009945Y008930D01*
X009750Y008849D01*
X009601Y008700D01*
X009550Y008578D01*
X009499Y008700D01*
X009350Y008849D01*
X009155Y008930D01*
X008945Y008930D01*
X008750Y008849D01*
X008601Y008700D01*
X008550Y008578D01*
X008499Y008700D01*
X008350Y008849D01*
X008155Y008930D01*
X007945Y008930D01*
X007750Y008849D01*
X007601Y008700D01*
X007550Y008578D01*
X007499Y008700D01*
X007350Y008849D01*
X007155Y008930D01*
X006945Y008930D01*
X006750Y008849D01*
X006601Y008700D01*
X006520Y008505D01*
X006520Y008295D01*
X006549Y008224D01*
X005580Y007255D01*
X005122Y007255D01*
X004962Y007415D01*
X004638Y007415D01*
X004410Y007187D01*
X004410Y006863D01*
X004638Y006635D01*
X004962Y006635D01*
X005122Y006795D01*
X005770Y006795D01*
X006874Y007899D01*
X006945Y007870D01*
X007155Y007870D01*
X007350Y007951D01*
X007499Y008100D01*
X007550Y008222D01*
X007601Y008100D01*
X007750Y007951D01*
X007820Y007922D01*
X007820Y007870D01*
X007705Y007755D01*
X007570Y007620D01*
X007570Y007347D01*
X007410Y007187D01*
X007410Y006863D01*
X007638Y006635D01*
X007962Y006635D01*
X008190Y006863D01*
X008190Y007187D01*
X008030Y007347D01*
X008030Y007430D01*
X008280Y007680D01*
X008280Y007922D01*
X008350Y007951D01*
X008499Y008100D01*
X008550Y008222D01*
X008601Y008100D01*
X008750Y007951D01*
X008945Y007870D01*
X009155Y007870D01*
X009226Y007899D01*
X010195Y006930D01*
X010330Y006795D01*
X010478Y006795D01*
X010638Y006635D01*
X010962Y006635D01*
X011190Y006863D01*
X011190Y007187D01*
X010962Y007415D01*
X010638Y007415D01*
X010499Y007276D01*
X009877Y007898D01*
X009945Y007870D01*
X010155Y007870D01*
X010350Y007951D01*
X010499Y008100D01*
X010550Y008222D01*
X010601Y008100D01*
X010750Y007951D01*
X010945Y007870D01*
X011155Y007870D01*
X011226Y007899D01*
X012258Y006867D01*
X012258Y005745D01*
X012017Y005505D01*
X011645Y005505D01*
X011458Y005692D01*
X009892Y005692D01*
X009758Y005558D01*
X009260Y005060D01*
X009243Y005060D01*
X009139Y005017D01*
X009127Y005005D01*
X008793Y005005D01*
X008895Y005108D01*
X009030Y005242D01*
X009030Y005703D01*
X009122Y005795D01*
X011478Y005795D01*
X011638Y005635D01*
X011962Y005635D01*
X012190Y005863D01*
X012258Y005863D01*
X012190Y005863D02*
X012190Y006187D01*
X011962Y006415D01*
X012120Y006257D02*
X012258Y006257D01*
X012258Y006159D02*
X012190Y006159D01*
X012190Y006060D02*
X012258Y006060D01*
X012258Y005962D02*
X012190Y005962D01*
X012258Y005765D02*
X012091Y005765D01*
X012178Y005666D02*
X011993Y005666D01*
X012080Y005568D02*
X011583Y005568D01*
X011607Y005666D02*
X011484Y005666D01*
X011509Y005765D02*
X009091Y005765D01*
X009030Y005666D02*
X009866Y005666D01*
X009767Y005568D02*
X009030Y005568D01*
X009030Y005469D02*
X009669Y005469D01*
X009570Y005371D02*
X009030Y005371D01*
X009030Y005272D02*
X009472Y005272D01*
X009373Y005174D02*
X008961Y005174D01*
X008863Y005075D02*
X009275Y005075D01*
X009630Y004780D02*
X010494Y004780D01*
X010410Y004878D02*
X009728Y004878D01*
X009827Y004977D02*
X010410Y004977D01*
X010410Y005075D02*
X009925Y005075D01*
X010024Y005174D02*
X010410Y005174D01*
X010592Y004681D02*
X009570Y004681D01*
X009511Y004583D02*
X011407Y004583D01*
X011506Y004681D02*
X011008Y004681D01*
X011106Y004780D02*
X011604Y004780D01*
X011703Y004878D02*
X011190Y004878D01*
X011190Y004977D02*
X012301Y004977D01*
X012238Y005075D02*
X012400Y005075D01*
X012336Y005174D02*
X012498Y005174D01*
X012435Y005272D02*
X012597Y005272D01*
X012533Y005371D02*
X012695Y005371D01*
X012632Y005469D02*
X012794Y005469D01*
X012820Y005568D02*
X012717Y005568D01*
X012717Y005666D02*
X012820Y005666D01*
X012820Y005765D02*
X012717Y005765D01*
X012717Y005863D02*
X012820Y005863D01*
X012820Y005962D02*
X012717Y005962D01*
X012717Y006060D02*
X012820Y006060D01*
X012820Y006159D02*
X012717Y006159D01*
X012717Y006257D02*
X012820Y006257D01*
X012820Y006356D02*
X012717Y006356D01*
X012717Y006454D02*
X012820Y006454D01*
X012820Y006553D02*
X012717Y006553D01*
X012717Y006651D02*
X012820Y006651D01*
X012820Y006750D02*
X012717Y006750D01*
X012717Y006848D02*
X012820Y006848D01*
X012820Y006947D02*
X012717Y006947D01*
X012717Y007045D02*
X012820Y007045D01*
X012820Y007144D02*
X012632Y007144D01*
X012533Y007242D02*
X012820Y007242D01*
X012820Y007341D02*
X012435Y007341D01*
X012336Y007439D02*
X012820Y007439D01*
X012820Y007538D02*
X012238Y007538D01*
X012139Y007636D02*
X012820Y007636D01*
X012820Y007735D02*
X012041Y007735D01*
X011942Y007833D02*
X012820Y007833D01*
X012820Y007932D02*
X011844Y007932D01*
X011745Y008030D02*
X012820Y008030D01*
X012820Y008129D02*
X011647Y008129D01*
X011552Y008227D02*
X012820Y008227D01*
X012750Y008326D02*
X011580Y008326D01*
X011580Y008424D02*
X012651Y008424D01*
X012581Y008523D02*
X011573Y008523D01*
X011532Y008621D02*
X012540Y008621D01*
X012520Y008720D02*
X011480Y008720D01*
X011382Y008818D02*
X012520Y008818D01*
X012535Y008917D02*
X011188Y008917D01*
X010990Y009015D02*
X012576Y009015D01*
X012639Y009114D02*
X011089Y009114D01*
X011187Y009212D02*
X012737Y009212D01*
X013363Y009212D02*
X013750Y009212D01*
X013641Y009114D02*
X013461Y009114D01*
X013524Y009015D02*
X013577Y009015D01*
X014000Y009015D02*
X014100Y009015D01*
X014100Y008917D02*
X014000Y008917D01*
X014100Y008825D02*
X014100Y009304D01*
X014174Y009292D01*
X014253Y009266D01*
X014328Y009228D01*
X014395Y009179D01*
X014454Y009120D01*
X014503Y009053D01*
X014541Y008978D01*
X014567Y008899D01*
X014579Y008825D01*
X014100Y008825D01*
X014100Y008818D02*
X014695Y008818D01*
X014695Y008720D02*
X014578Y008720D01*
X014579Y008725D02*
X014100Y008725D01*
X014100Y008246D01*
X014174Y008258D01*
X014253Y008284D01*
X014328Y008322D01*
X014395Y008371D01*
X014454Y008430D01*
X014503Y008497D01*
X014541Y008572D01*
X014567Y008651D01*
X014579Y008725D01*
X014557Y008621D02*
X014695Y008621D01*
X014695Y008523D02*
X014516Y008523D01*
X014449Y008424D02*
X014695Y008424D01*
X014695Y008326D02*
X014333Y008326D01*
X014100Y008326D02*
X014000Y008326D01*
X014000Y008424D02*
X014100Y008424D01*
X014100Y008523D02*
X014000Y008523D01*
X014000Y008621D02*
X014100Y008621D01*
X014100Y008720D02*
X014000Y008720D01*
X013584Y008523D02*
X013519Y008523D01*
X013449Y008424D02*
X013651Y008424D01*
X013767Y008326D02*
X013350Y008326D01*
X013280Y008227D02*
X014677Y008227D01*
X014578Y008129D02*
X013280Y008129D01*
X013280Y008030D02*
X014480Y008030D01*
X014381Y007932D02*
X013280Y007932D01*
X013280Y007833D02*
X014283Y007833D01*
X014184Y007735D02*
X013280Y007735D01*
X013280Y007636D02*
X014086Y007636D01*
X013987Y007538D02*
X013280Y007538D01*
X013280Y007439D02*
X013889Y007439D01*
X013564Y007341D02*
X013280Y007341D01*
X013280Y007242D02*
X013465Y007242D01*
X013410Y007144D02*
X013280Y007144D01*
X013280Y007045D02*
X013410Y007045D01*
X013410Y006947D02*
X013280Y006947D01*
X013280Y006848D02*
X013425Y006848D01*
X013524Y006750D02*
X013280Y006750D01*
X013280Y006651D02*
X013622Y006651D01*
X013978Y006651D02*
X015225Y006651D01*
X015225Y006553D02*
X013280Y006553D01*
X013280Y006454D02*
X015225Y006454D01*
X015225Y006356D02*
X015021Y006356D01*
X015120Y006257D02*
X015225Y006257D01*
X015225Y006159D02*
X015190Y006159D01*
X015190Y006060D02*
X015225Y006060D01*
X015225Y005962D02*
X015190Y005962D01*
X015225Y005765D02*
X015091Y005765D01*
X015030Y005666D02*
X015225Y005666D01*
X015225Y005568D02*
X015030Y005568D01*
X015030Y005469D02*
X015225Y005469D01*
X015225Y005371D02*
X015030Y005371D01*
X015030Y005272D02*
X015225Y005272D01*
X015225Y005174D02*
X015030Y005174D01*
X015030Y005075D02*
X015225Y005075D01*
X015225Y004977D02*
X015030Y004977D01*
X015030Y004878D02*
X015225Y004878D01*
X015225Y004780D02*
X015030Y004780D01*
X015030Y004681D02*
X015225Y004681D01*
X015225Y004583D02*
X015030Y004583D01*
X015030Y004484D02*
X015225Y004484D01*
X015225Y004386D02*
X015030Y004386D01*
X015030Y004287D02*
X015225Y004287D01*
X015225Y004189D02*
X015030Y004189D01*
X015030Y004090D02*
X015225Y004090D01*
X015225Y003992D02*
X015059Y003992D01*
X015182Y003893D02*
X015225Y003893D01*
X014570Y004090D02*
X014015Y004090D01*
X014015Y003992D02*
X014541Y003992D01*
X014418Y003893D02*
X014015Y003893D01*
X014015Y003795D02*
X014338Y003795D01*
X014297Y003696D02*
X014015Y003696D01*
X014015Y003601D02*
X014015Y004237D01*
X013927Y004325D01*
X013173Y004325D01*
X013085Y004237D01*
X013085Y004190D01*
X013020Y004255D01*
X012897Y004255D01*
X012847Y004305D01*
X011923Y004305D01*
X011835Y004217D01*
X011835Y003833D01*
X011893Y003775D01*
X011865Y003747D01*
X011845Y003713D01*
X011835Y003675D01*
X011835Y003540D01*
X012370Y003540D01*
X012370Y003510D01*
X011835Y003510D01*
X011835Y003375D01*
X011845Y003337D01*
X011865Y003303D01*
X011893Y003275D01*
X011835Y003217D01*
X011835Y002833D01*
X011893Y002775D01*
X011835Y002717D01*
X011835Y002333D01*
X011923Y002245D01*
X012847Y002245D01*
X012935Y002333D01*
X012935Y002717D01*
X012877Y002775D01*
X012897Y002795D01*
X013020Y002795D01*
X013085Y002860D01*
X013085Y002813D01*
X013173Y002725D01*
X013927Y002725D01*
X014015Y002813D01*
X014015Y003449D01*
X013939Y003525D01*
X014015Y003601D01*
X014012Y003598D02*
X014270Y003598D01*
X014270Y003499D02*
X013965Y003499D01*
X014015Y003401D02*
X014278Y003401D01*
X014319Y003302D02*
X014015Y003302D01*
X014015Y003204D02*
X014372Y003204D01*
X014470Y003105D02*
X014015Y003105D01*
X014015Y003007D02*
X014578Y003007D01*
X014433Y002908D02*
X014015Y002908D01*
X014011Y002810D02*
X014352Y002810D01*
X014303Y002711D02*
X012935Y002711D01*
X012935Y002613D02*
X014277Y002613D01*
X014271Y002475D02*
X014283Y002401D01*
X014309Y002322D01*
X014347Y002247D01*
X014396Y002180D01*
X014455Y002121D01*
X014522Y002072D01*
X014597Y002034D01*
X014676Y002008D01*
X014750Y001996D01*
X014750Y002475D01*
X014271Y002475D01*
X014281Y002416D02*
X012935Y002416D01*
X012935Y002514D02*
X014750Y002514D01*
X014750Y002416D02*
X014850Y002416D01*
X014850Y002317D02*
X014750Y002317D01*
X014750Y002219D02*
X014850Y002219D01*
X014850Y002120D02*
X014750Y002120D01*
X014750Y002022D02*
X014850Y002022D01*
X014966Y002022D02*
X015225Y002022D01*
X015225Y002120D02*
X015144Y002120D01*
X015225Y001923D02*
X012727Y001923D01*
X012629Y002022D02*
X014634Y002022D01*
X014456Y002120D02*
X012530Y002120D01*
X012826Y001825D02*
X015225Y001825D01*
X015225Y001726D02*
X012886Y001726D01*
X012886Y001628D02*
X015225Y001628D01*
X015225Y001529D02*
X013836Y001529D01*
X013850Y001431D02*
X015225Y001431D01*
X015225Y001332D02*
X013850Y001332D01*
X013850Y001234D02*
X015225Y001234D01*
X015224Y001135D02*
X013494Y001135D01*
X013494Y001100D02*
X013850Y001100D01*
X013850Y000815D01*
X013839Y000777D01*
X013820Y000743D01*
X013792Y000715D01*
X013758Y000695D01*
X013719Y000685D01*
X013494Y000685D01*
X013494Y001100D01*
X013494Y001037D02*
X013394Y001037D01*
X013394Y000938D02*
X013494Y000938D01*
X013494Y000840D02*
X013394Y000840D01*
X013394Y000741D02*
X013494Y000741D01*
X013818Y000741D02*
X015105Y000741D01*
X015155Y000840D02*
X013850Y000840D01*
X013850Y000938D02*
X015187Y000938D01*
X015216Y001037D02*
X013850Y001037D01*
X013494Y001234D02*
X013394Y001234D01*
X013394Y001332D02*
X013494Y001332D01*
X013494Y001431D02*
X013394Y001431D01*
X013394Y001529D02*
X013494Y001529D01*
X014368Y002219D02*
X011807Y002219D01*
X011851Y002317D02*
X011708Y002317D01*
X011610Y002416D02*
X011835Y002416D01*
X011835Y002514D02*
X011511Y002514D01*
X011588Y002613D02*
X011835Y002613D01*
X011835Y002711D02*
X011655Y002711D01*
X011655Y002810D02*
X011858Y002810D01*
X011835Y002908D02*
X011655Y002908D01*
X011655Y003007D02*
X011835Y003007D01*
X011835Y003105D02*
X011655Y003105D01*
X011655Y003204D02*
X011835Y003204D01*
X011866Y003302D02*
X011655Y003302D01*
X011655Y003401D02*
X011835Y003401D01*
X011835Y003499D02*
X011655Y003499D01*
X011655Y003598D02*
X011835Y003598D01*
X011841Y003696D02*
X011655Y003696D01*
X011655Y003795D02*
X011873Y003795D01*
X011835Y003893D02*
X011655Y003893D01*
X011655Y003992D02*
X011835Y003992D01*
X011835Y004090D02*
X011655Y004090D01*
X011664Y004189D02*
X011835Y004189D01*
X011905Y004287D02*
X011762Y004287D01*
X011861Y004386D02*
X014570Y004386D01*
X014570Y004484D02*
X012459Y004484D01*
X012558Y004583D02*
X014570Y004583D01*
X014570Y004681D02*
X014008Y004681D01*
X013962Y004635D02*
X014190Y004863D01*
X014190Y005187D01*
X013962Y005415D01*
X013638Y005415D01*
X013410Y005187D01*
X013410Y004863D01*
X013638Y004635D01*
X013962Y004635D01*
X014106Y004780D02*
X014570Y004780D01*
X014570Y004878D02*
X014190Y004878D01*
X014190Y004977D02*
X014570Y004977D01*
X014570Y005075D02*
X014190Y005075D01*
X014190Y005174D02*
X014570Y005174D01*
X014570Y005272D02*
X014105Y005272D01*
X014006Y005371D02*
X014570Y005371D01*
X014570Y005469D02*
X013280Y005469D01*
X013280Y005371D02*
X013594Y005371D01*
X013495Y005272D02*
X013247Y005272D01*
X013149Y005174D02*
X013410Y005174D01*
X013410Y005075D02*
X013050Y005075D01*
X012952Y004977D02*
X013410Y004977D01*
X013410Y004878D02*
X012853Y004878D01*
X012755Y004780D02*
X013494Y004780D01*
X013592Y004681D02*
X012656Y004681D01*
X012865Y004287D02*
X013135Y004287D01*
X013085Y003689D02*
X012936Y003689D01*
X012930Y003695D01*
X012935Y003675D01*
X012935Y003540D01*
X012400Y003540D01*
X012400Y003510D01*
X012935Y003510D01*
X012935Y003375D01*
X012930Y003355D01*
X012936Y003361D01*
X013085Y003361D01*
X013085Y003449D01*
X013161Y003525D01*
X013085Y003601D01*
X013085Y003689D01*
X013088Y003598D02*
X012935Y003598D01*
X012935Y003499D02*
X013135Y003499D01*
X013085Y003401D02*
X012935Y003401D01*
X013035Y002810D02*
X013089Y002810D01*
X012919Y002317D02*
X014311Y002317D01*
X012372Y001628D02*
X010547Y001628D01*
X010547Y001726D02*
X011649Y001726D01*
X011550Y001825D02*
X010547Y001825D01*
X010547Y001804D02*
X010547Y001952D01*
X010537Y001990D01*
X010517Y002025D01*
X010490Y002053D01*
X010455Y002072D01*
X010417Y002082D01*
X010269Y002082D01*
X010269Y001804D01*
X010547Y001804D01*
X010547Y001923D02*
X011452Y001923D01*
X011353Y002022D02*
X010519Y002022D01*
X010269Y002022D02*
X010211Y002022D01*
X010211Y001923D02*
X010269Y001923D01*
X010269Y001825D02*
X010211Y001825D01*
X010211Y001726D02*
X010269Y001726D01*
X010269Y001628D02*
X010211Y001628D01*
X010211Y001529D02*
X010269Y001529D01*
X010500Y001431D02*
X009840Y001431D01*
X009891Y001529D02*
X009960Y001529D01*
X009932Y001628D02*
X009918Y001628D01*
X009918Y001726D02*
X009932Y001726D01*
X009918Y001825D02*
X009932Y001825D01*
X009918Y001923D02*
X009932Y001923D01*
X009961Y002022D02*
X009891Y002022D01*
X009308Y002317D02*
X009193Y002317D01*
X009193Y002219D02*
X011156Y002219D01*
X011255Y002120D02*
X009193Y002120D01*
X009209Y002416D02*
X009149Y002416D01*
X009111Y002514D02*
X007040Y002514D01*
X007086Y002533D02*
X007167Y002614D01*
X007210Y002718D01*
X007210Y002832D01*
X007167Y002936D01*
X007086Y003017D01*
X006982Y003060D01*
X006868Y003060D01*
X006764Y003017D01*
X006752Y003005D01*
X006532Y003005D01*
X006455Y003082D01*
X006015Y003082D01*
X005927Y002995D01*
X005927Y002555D01*
X005935Y002548D01*
X005630Y002243D01*
X005630Y002173D01*
X005553Y002096D01*
X005553Y001657D01*
X005630Y001579D01*
X005630Y001447D01*
X005553Y001370D01*
X005553Y000930D01*
X005640Y000843D01*
X006080Y000843D01*
X006168Y000930D01*
X006168Y001370D01*
X006090Y001447D01*
X006090Y001579D01*
X006168Y001657D01*
X006168Y002096D01*
X006151Y002113D01*
X006465Y002427D01*
X006465Y002478D01*
X006532Y002545D01*
X006752Y002545D01*
X006764Y002533D01*
X006868Y002490D01*
X006982Y002490D01*
X007086Y002533D01*
X007166Y002613D02*
X007512Y002613D01*
X007414Y002711D02*
X007207Y002711D01*
X007210Y002810D02*
X007315Y002810D01*
X007217Y002908D02*
X007178Y002908D01*
X007195Y003007D02*
X007097Y003007D01*
X007195Y003105D02*
X006660Y003105D01*
X006647Y003093D02*
X006691Y003137D01*
X006743Y003115D01*
X006857Y003115D01*
X006961Y003158D01*
X007042Y003239D01*
X007085Y003343D01*
X007085Y003457D01*
X007042Y003561D01*
X006961Y003642D01*
X006857Y003685D01*
X006743Y003685D01*
X006691Y003663D01*
X006647Y003707D01*
X006208Y003707D01*
X006120Y003620D01*
X006120Y003180D01*
X006208Y003093D01*
X006647Y003093D01*
X006753Y003007D02*
X006531Y003007D01*
X006195Y003105D02*
X006017Y003105D01*
X006013Y003103D02*
X006047Y003122D01*
X006075Y003150D01*
X006095Y003185D01*
X006105Y003223D01*
X006105Y003371D01*
X005826Y003371D01*
X005826Y003093D01*
X005975Y003093D01*
X006013Y003103D01*
X005939Y003007D02*
X005901Y003007D01*
X005913Y002908D02*
X005927Y002908D01*
X005913Y002810D02*
X005927Y002810D01*
X005913Y002711D02*
X005927Y002711D01*
X005913Y002613D02*
X005927Y002613D01*
X005901Y002514D02*
X005871Y002514D01*
X005803Y002416D02*
X004090Y002416D01*
X004090Y002514D02*
X005339Y002514D01*
X005397Y002401D02*
X005265Y002401D01*
X005265Y002100D01*
X005241Y002100D01*
X005241Y002401D01*
X005109Y002401D01*
X005071Y002391D01*
X005037Y002371D01*
X005009Y002343D01*
X004989Y002309D01*
X004979Y002271D01*
X004979Y002100D01*
X005241Y002100D01*
X005241Y002075D01*
X005265Y002075D01*
X005265Y001774D01*
X005397Y001774D01*
X005435Y001784D01*
X005469Y001804D01*
X005497Y001832D01*
X005517Y001866D01*
X005527Y001904D01*
X005527Y002075D01*
X005265Y002075D01*
X005265Y002100D01*
X005527Y002100D01*
X005527Y002271D01*
X005517Y002309D01*
X005497Y002343D01*
X005469Y002371D01*
X005435Y002391D01*
X005397Y002401D01*
X005512Y002317D02*
X005704Y002317D01*
X005630Y002219D02*
X005527Y002219D01*
X005527Y002120D02*
X005577Y002120D01*
X005553Y002022D02*
X005527Y002022D01*
X005527Y001923D02*
X005553Y001923D01*
X005553Y001825D02*
X005489Y001825D01*
X005553Y001726D02*
X004577Y001726D01*
X004577Y001628D02*
X005582Y001628D01*
X005630Y001529D02*
X004577Y001529D01*
X004621Y001431D02*
X004988Y001431D01*
X004989Y001434D02*
X004979Y001396D01*
X004979Y001225D01*
X005241Y001225D01*
X005241Y001526D01*
X005109Y001526D01*
X005071Y001516D01*
X005037Y001496D01*
X005009Y001468D01*
X004989Y001434D01*
X004979Y001332D02*
X004621Y001332D01*
X004621Y001234D02*
X004979Y001234D01*
X004979Y001200D02*
X004979Y001029D01*
X004989Y000991D01*
X005009Y000957D01*
X005037Y000929D01*
X005071Y000909D01*
X005109Y000899D01*
X005241Y000899D01*
X005241Y001200D01*
X005265Y001200D01*
X005265Y000899D01*
X005397Y000899D01*
X005435Y000909D01*
X005469Y000929D01*
X005497Y000957D01*
X005517Y000991D01*
X005527Y001029D01*
X005527Y001200D01*
X005265Y001200D01*
X005265Y001225D01*
X005241Y001225D01*
X005241Y001200D01*
X004979Y001200D01*
X004979Y001135D02*
X004621Y001135D01*
X004621Y001037D02*
X004979Y001037D01*
X005028Y000938D02*
X004577Y000938D01*
X004623Y000840D02*
X007602Y000840D01*
X007695Y000938D02*
X006788Y000938D01*
X006787Y000935D02*
X006797Y000973D01*
X006797Y001121D01*
X006519Y001121D01*
X006519Y001179D01*
X006797Y001179D01*
X006797Y001327D01*
X006787Y001365D01*
X006767Y001400D01*
X006740Y001428D01*
X006705Y001447D01*
X006667Y001457D01*
X006519Y001457D01*
X006519Y001179D01*
X006461Y001179D01*
X006461Y001457D01*
X006313Y001457D01*
X006275Y001447D01*
X006240Y001428D01*
X006212Y001400D01*
X006193Y001365D01*
X006182Y001327D01*
X006182Y001179D01*
X006461Y001179D01*
X006461Y001121D01*
X006519Y001121D01*
X006519Y000843D01*
X006667Y000843D01*
X006705Y000853D01*
X006740Y000872D01*
X006767Y000900D01*
X006787Y000935D01*
X006797Y001037D02*
X007695Y001037D01*
X007695Y001135D02*
X006519Y001135D01*
X006461Y001135D02*
X006168Y001135D01*
X006182Y001121D02*
X006182Y000973D01*
X006193Y000935D01*
X006212Y000900D01*
X006240Y000872D01*
X006275Y000853D01*
X006313Y000843D01*
X006461Y000843D01*
X006461Y001121D01*
X006182Y001121D01*
X006182Y001037D02*
X006168Y001037D01*
X006168Y000938D02*
X006192Y000938D01*
X006461Y000938D02*
X006519Y000938D01*
X006519Y001037D02*
X006461Y001037D01*
X006461Y001234D02*
X006519Y001234D01*
X006519Y001332D02*
X006461Y001332D01*
X006461Y001431D02*
X006519Y001431D01*
X006246Y001431D02*
X006107Y001431D01*
X006090Y001529D02*
X007157Y001529D01*
X007157Y001431D02*
X006734Y001431D01*
X006796Y001332D02*
X007206Y001332D01*
X006797Y001234D02*
X007695Y001234D01*
X007695Y001332D02*
X007644Y001332D01*
X008155Y001332D02*
X008206Y001332D01*
X008155Y001234D02*
X009336Y001234D01*
X009325Y001135D02*
X008155Y001135D01*
X008155Y001037D02*
X009349Y001037D01*
X009419Y000938D02*
X008155Y000938D01*
X008155Y000840D02*
X010500Y000840D01*
X010532Y000741D02*
X008154Y000741D01*
X008055Y000643D02*
X015033Y000643D01*
X014935Y000544D02*
X007957Y000544D01*
X007858Y000446D02*
X014800Y000446D01*
X013070Y000741D02*
X013030Y000741D01*
X012282Y000741D02*
X012068Y000741D01*
X012070Y000743D02*
X012089Y000777D01*
X012100Y000815D01*
X012100Y001100D01*
X011744Y001100D01*
X011744Y000685D01*
X011969Y000685D01*
X012008Y000695D01*
X012042Y000715D01*
X012070Y000743D01*
X012100Y000840D02*
X012250Y000840D01*
X012250Y000938D02*
X012100Y000938D01*
X012100Y001037D02*
X012250Y001037D01*
X012250Y001135D02*
X011744Y001135D01*
X011744Y001037D02*
X011644Y001037D01*
X011644Y000938D02*
X011744Y000938D01*
X011744Y000840D02*
X011644Y000840D01*
X011644Y000741D02*
X011744Y000741D01*
X011320Y000741D02*
X011280Y000741D01*
X011644Y001234D02*
X011744Y001234D01*
X011744Y001332D02*
X011644Y001332D01*
X011644Y001431D02*
X011744Y001431D01*
X011744Y001529D02*
X011644Y001529D01*
X012086Y001529D02*
X012252Y001529D01*
X012250Y001431D02*
X012100Y001431D01*
X012100Y001332D02*
X012250Y001332D01*
X012250Y001234D02*
X012100Y001234D01*
X011134Y002810D02*
X010492Y002810D01*
X010515Y002908D02*
X011195Y002908D01*
X011195Y003007D02*
X010515Y003007D01*
X010515Y003105D02*
X011195Y003105D01*
X011195Y003204D02*
X010515Y003204D01*
X010484Y003302D02*
X011195Y003302D01*
X011195Y003401D02*
X010515Y003401D01*
X010515Y003499D02*
X011195Y003499D01*
X011195Y003598D02*
X010515Y003598D01*
X010515Y003696D02*
X011195Y003696D01*
X011195Y003795D02*
X010848Y003795D01*
X010929Y003893D02*
X011195Y003893D01*
X011195Y003992D02*
X010960Y003992D01*
X010957Y004090D02*
X011195Y004090D01*
X011195Y004189D02*
X010915Y004189D01*
X010787Y004287D02*
X011195Y004287D01*
X011210Y004386D02*
X009193Y004386D01*
X009193Y004287D02*
X009485Y004287D01*
X009415Y004189D02*
X009193Y004189D01*
X009193Y004090D02*
X009415Y004090D01*
X009415Y003992D02*
X009193Y003992D01*
X009193Y003893D02*
X009415Y003893D01*
X009453Y003795D02*
X009193Y003795D01*
X009193Y003696D02*
X009415Y003696D01*
X009415Y003598D02*
X009193Y003598D01*
X009193Y003499D02*
X009415Y003499D01*
X009415Y003401D02*
X009165Y003401D01*
X009171Y003302D02*
X009446Y003302D01*
X009415Y003204D02*
X009210Y003204D01*
X009210Y003105D02*
X009415Y003105D01*
X009415Y003007D02*
X009174Y003007D01*
X009367Y002908D02*
X009415Y002908D01*
X008701Y002416D02*
X008649Y002416D01*
X008434Y002416D02*
X008416Y002416D01*
X008416Y002317D02*
X008434Y002317D01*
X008434Y002219D02*
X008416Y002219D01*
X008416Y002120D02*
X008434Y002120D01*
X008434Y002022D02*
X008416Y002022D01*
X008416Y001923D02*
X008434Y001923D01*
X008434Y001825D02*
X008416Y001825D01*
X008416Y001726D02*
X008434Y001726D01*
X008434Y001628D02*
X008416Y001628D01*
X008416Y001529D02*
X008434Y001529D01*
X008434Y001431D02*
X008416Y001431D01*
X008416Y001332D02*
X008434Y001332D01*
X008644Y001332D02*
X008706Y001332D01*
X009144Y001332D02*
X009380Y001332D01*
X009380Y001431D02*
X009193Y001431D01*
X009193Y001529D02*
X009329Y001529D01*
X008201Y002416D02*
X008149Y002416D01*
X007701Y002416D02*
X007649Y002416D01*
X007201Y002416D02*
X006453Y002416D01*
X006501Y002514D02*
X006810Y002514D01*
X007157Y002317D02*
X006355Y002317D01*
X006256Y002219D02*
X007157Y002219D01*
X006870Y002120D02*
X006773Y002120D01*
X006768Y001628D02*
X006882Y001628D01*
X006212Y001628D02*
X006138Y001628D01*
X006168Y001726D02*
X006182Y001726D01*
X006168Y001825D02*
X006182Y001825D01*
X006168Y001923D02*
X006182Y001923D01*
X006168Y002022D02*
X006182Y002022D01*
X006158Y002120D02*
X006206Y002120D01*
X005497Y001468D02*
X005469Y001496D01*
X005435Y001516D01*
X005397Y001526D01*
X005265Y001526D01*
X005265Y001225D01*
X005527Y001225D01*
X005527Y001396D01*
X005517Y001434D01*
X005497Y001468D01*
X005517Y001431D02*
X005613Y001431D01*
X005553Y001332D02*
X005527Y001332D01*
X005527Y001234D02*
X005553Y001234D01*
X005553Y001135D02*
X005527Y001135D01*
X005527Y001037D02*
X005553Y001037D01*
X005553Y000938D02*
X005478Y000938D01*
X005265Y000938D02*
X005241Y000938D01*
X005241Y001037D02*
X005265Y001037D01*
X005265Y001135D02*
X005241Y001135D01*
X005241Y001234D02*
X005265Y001234D01*
X005265Y001332D02*
X005241Y001332D01*
X005241Y001431D02*
X005265Y001431D01*
X005241Y001774D02*
X005109Y001774D01*
X005071Y001784D01*
X005037Y001804D01*
X005009Y001832D01*
X004989Y001866D01*
X004979Y001904D01*
X004979Y002075D01*
X005241Y002075D01*
X005241Y001774D01*
X005241Y001825D02*
X005265Y001825D01*
X005265Y001923D02*
X005241Y001923D01*
X005241Y002022D02*
X005265Y002022D01*
X005265Y002120D02*
X005241Y002120D01*
X005241Y002219D02*
X005265Y002219D01*
X005265Y002317D02*
X005241Y002317D01*
X004994Y002317D02*
X004617Y002317D01*
X004621Y002219D02*
X004979Y002219D01*
X004979Y002120D02*
X004621Y002120D01*
X004621Y002022D02*
X004979Y002022D01*
X004979Y001923D02*
X004621Y001923D01*
X004584Y001825D02*
X005016Y001825D01*
X004705Y002540D02*
X004667Y002530D01*
X004519Y002530D01*
X004519Y002809D01*
X004797Y002809D01*
X004797Y002660D01*
X004787Y002622D01*
X004767Y002588D01*
X004740Y002560D01*
X004705Y002540D01*
X004782Y002613D02*
X005137Y002613D01*
X005039Y002711D02*
X004797Y002711D01*
X004519Y002711D02*
X004461Y002711D01*
X004461Y002613D02*
X004519Y002613D01*
X004519Y002908D02*
X004461Y002908D01*
X004461Y003007D02*
X004519Y003007D01*
X004519Y003105D02*
X004461Y003105D01*
X004182Y002711D02*
X004168Y002711D01*
X004162Y002613D02*
X004198Y002613D01*
X005342Y003105D02*
X005578Y003105D01*
X005582Y003103D02*
X005620Y003093D01*
X005769Y003093D01*
X005769Y003371D01*
X005826Y003371D01*
X005826Y003429D01*
X005769Y003429D01*
X005769Y003707D01*
X005620Y003707D01*
X005582Y003697D01*
X005548Y003678D01*
X005520Y003650D01*
X005500Y003615D01*
X005490Y003577D01*
X005490Y003429D01*
X005769Y003429D01*
X005769Y003371D01*
X005490Y003371D01*
X005490Y003223D01*
X005500Y003185D01*
X005520Y003150D01*
X005548Y003122D01*
X005582Y003103D01*
X005495Y003204D02*
X005342Y003204D01*
X005342Y003302D02*
X005490Y003302D01*
X005342Y003401D02*
X005769Y003401D01*
X005826Y003401D02*
X006120Y003401D01*
X006105Y003429D02*
X006105Y003577D01*
X006095Y003615D01*
X006075Y003650D01*
X006047Y003678D01*
X006013Y003697D01*
X005975Y003707D01*
X005826Y003707D01*
X005826Y003429D01*
X006105Y003429D01*
X006105Y003499D02*
X006120Y003499D01*
X006120Y003598D02*
X006100Y003598D01*
X006015Y003696D02*
X006196Y003696D01*
X006157Y003893D02*
X006068Y003893D01*
X006075Y003900D02*
X006047Y003872D01*
X006013Y003853D01*
X005975Y003843D01*
X005826Y003843D01*
X005826Y004121D01*
X005769Y004121D01*
X005769Y003843D01*
X005620Y003843D01*
X005582Y003853D01*
X005548Y003872D01*
X005520Y003900D01*
X005500Y003935D01*
X005490Y003973D01*
X005490Y004121D01*
X005769Y004121D01*
X005769Y004179D01*
X005769Y004457D01*
X005620Y004457D01*
X005582Y004447D01*
X005548Y004428D01*
X005520Y004400D01*
X005500Y004365D01*
X005490Y004327D01*
X005490Y004179D01*
X005769Y004179D01*
X005826Y004179D01*
X005826Y004457D01*
X005975Y004457D01*
X006013Y004447D01*
X006047Y004428D01*
X006075Y004400D01*
X006095Y004365D01*
X006105Y004327D01*
X006105Y004179D01*
X005826Y004179D01*
X005826Y004121D01*
X006105Y004121D01*
X006105Y003973D01*
X006095Y003935D01*
X006075Y003900D01*
X006105Y003992D02*
X006120Y003992D01*
X006120Y004090D02*
X006105Y004090D01*
X006105Y004189D02*
X006120Y004189D01*
X006120Y004287D02*
X006105Y004287D01*
X006083Y004386D02*
X006136Y004386D01*
X005826Y004386D02*
X005769Y004386D01*
X005769Y004287D02*
X005826Y004287D01*
X005826Y004189D02*
X005769Y004189D01*
X005769Y004090D02*
X005826Y004090D01*
X005826Y003992D02*
X005769Y003992D01*
X005769Y003893D02*
X005826Y003893D01*
X005826Y003696D02*
X005769Y003696D01*
X005769Y003598D02*
X005826Y003598D01*
X005826Y003499D02*
X005769Y003499D01*
X005769Y003302D02*
X005826Y003302D01*
X005826Y003204D02*
X005769Y003204D01*
X005769Y003105D02*
X005826Y003105D01*
X006100Y003204D02*
X006120Y003204D01*
X006120Y003302D02*
X006105Y003302D01*
X006659Y003696D02*
X006929Y003696D01*
X007006Y003598D02*
X007157Y003598D01*
X007157Y003499D02*
X007067Y003499D01*
X007085Y003401D02*
X007185Y003401D01*
X007195Y003302D02*
X007068Y003302D01*
X007007Y003204D02*
X007195Y003204D01*
X006830Y003795D02*
X005342Y003795D01*
X005342Y003893D02*
X005527Y003893D01*
X005490Y003992D02*
X005342Y003992D01*
X005342Y004090D02*
X005490Y004090D01*
X005490Y004189D02*
X005342Y004189D01*
X005387Y004287D02*
X005490Y004287D01*
X005486Y004386D02*
X005512Y004386D01*
X005584Y004484D02*
X007222Y004484D01*
X007157Y004386D02*
X006719Y004386D01*
X006988Y004287D02*
X007157Y004287D01*
X007157Y004189D02*
X007087Y004189D01*
X006732Y003893D02*
X006698Y003893D01*
X007628Y004484D02*
X007695Y004484D01*
X007720Y004583D02*
X005683Y004583D01*
X005717Y004681D02*
X007592Y004681D01*
X007494Y004780D02*
X005717Y004780D01*
X005717Y004878D02*
X007410Y004878D01*
X007410Y004977D02*
X005717Y004977D01*
X005717Y005075D02*
X007410Y005075D01*
X007410Y005174D02*
X005717Y005174D01*
X005717Y005272D02*
X007495Y005272D01*
X007594Y005371D02*
X005717Y005371D01*
X005681Y005469D02*
X008570Y005469D01*
X008570Y005568D02*
X005583Y005568D01*
X005607Y005666D02*
X005484Y005666D01*
X005509Y005765D02*
X005386Y005765D01*
X005410Y005962D02*
X005189Y005962D01*
X005090Y006060D02*
X005410Y006060D01*
X005410Y006159D02*
X004992Y006159D01*
X005480Y006257D02*
X003120Y006257D01*
X003021Y006356D02*
X005579Y006356D01*
X006021Y006356D02*
X008579Y006356D01*
X008480Y006257D02*
X006120Y006257D01*
X006091Y005765D02*
X008509Y005765D01*
X008570Y005666D02*
X005993Y005666D01*
X004978Y006651D02*
X007622Y006651D01*
X007524Y006750D02*
X005076Y006750D01*
X004622Y006651D02*
X001978Y006651D01*
X001962Y006635D02*
X002190Y006863D01*
X002190Y006995D01*
X001830Y006995D01*
X001830Y007055D01*
X001770Y007055D01*
X001770Y007415D01*
X001638Y007415D01*
X001410Y007187D01*
X001410Y007055D01*
X001770Y007055D01*
X001770Y006995D01*
X001410Y006995D01*
X001410Y006863D01*
X001638Y006635D01*
X001770Y006635D01*
X001770Y006995D01*
X001830Y006995D01*
X001830Y006635D01*
X001962Y006635D01*
X001830Y006651D02*
X001770Y006651D01*
X001770Y006750D02*
X001830Y006750D01*
X001830Y006848D02*
X001770Y006848D01*
X001770Y006947D02*
X001830Y006947D01*
X001830Y007045D02*
X004410Y007045D01*
X004410Y006947D02*
X002190Y006947D01*
X002175Y006848D02*
X004425Y006848D01*
X004524Y006750D02*
X002076Y006750D01*
X002190Y007055D02*
X001830Y007055D01*
X001830Y007415D01*
X001962Y007415D01*
X002190Y007187D01*
X002190Y007055D01*
X002190Y007144D02*
X004410Y007144D01*
X004465Y007242D02*
X002135Y007242D01*
X002036Y007341D02*
X004564Y007341D01*
X005036Y007341D02*
X005665Y007341D01*
X005764Y007439D02*
X000375Y007439D01*
X000375Y007341D02*
X001564Y007341D01*
X001465Y007242D02*
X000375Y007242D01*
X000375Y007144D02*
X001410Y007144D01*
X001410Y006947D02*
X000375Y006947D01*
X000375Y007045D02*
X001770Y007045D01*
X001770Y007144D02*
X001830Y007144D01*
X001830Y007242D02*
X001770Y007242D01*
X001770Y007341D02*
X001830Y007341D01*
X001425Y006848D02*
X000375Y006848D01*
X000375Y006750D02*
X001524Y006750D01*
X001622Y006651D02*
X000375Y006651D01*
X000375Y006553D02*
X012258Y006553D01*
X012258Y006651D02*
X010978Y006651D01*
X011076Y006750D02*
X012258Y006750D01*
X012258Y006848D02*
X011175Y006848D01*
X011190Y006947D02*
X012178Y006947D01*
X012080Y007045D02*
X011190Y007045D01*
X011190Y007144D02*
X011981Y007144D01*
X011883Y007242D02*
X011135Y007242D01*
X011036Y007341D02*
X011784Y007341D01*
X011686Y007439D02*
X010336Y007439D01*
X010238Y007538D02*
X011587Y007538D01*
X011489Y007636D02*
X010139Y007636D01*
X010041Y007735D02*
X011390Y007735D01*
X011292Y007833D02*
X009942Y007833D01*
X010304Y007932D02*
X010796Y007932D01*
X010670Y008030D02*
X010430Y008030D01*
X010511Y008129D02*
X010589Y008129D01*
X009568Y008621D02*
X009532Y008621D01*
X009480Y008720D02*
X009620Y008720D01*
X009718Y008818D02*
X009382Y008818D01*
X009188Y008917D02*
X009912Y008917D01*
X010188Y008917D02*
X010241Y008917D01*
X010340Y009015D02*
X000375Y009015D01*
X000375Y008917D02*
X006912Y008917D01*
X006718Y008818D02*
X000375Y008818D01*
X000375Y008720D02*
X006620Y008720D01*
X006568Y008621D02*
X000375Y008621D01*
X000375Y008523D02*
X006527Y008523D01*
X006520Y008424D02*
X000375Y008424D01*
X000375Y008326D02*
X006520Y008326D01*
X006548Y008227D02*
X000375Y008227D01*
X000375Y008129D02*
X006453Y008129D01*
X006355Y008030D02*
X000375Y008030D01*
X000375Y007932D02*
X006256Y007932D01*
X006158Y007833D02*
X000375Y007833D01*
X000375Y007735D02*
X006059Y007735D01*
X005961Y007636D02*
X000375Y007636D01*
X000375Y007538D02*
X005862Y007538D01*
X006217Y007242D02*
X007465Y007242D01*
X007410Y007144D02*
X006119Y007144D01*
X006020Y007045D02*
X007410Y007045D01*
X007410Y006947D02*
X005922Y006947D01*
X005823Y006848D02*
X007425Y006848D01*
X007564Y007341D02*
X006316Y007341D01*
X006414Y007439D02*
X007570Y007439D01*
X007570Y007538D02*
X006513Y007538D01*
X006611Y007636D02*
X007586Y007636D01*
X007684Y007735D02*
X006710Y007735D01*
X006808Y007833D02*
X007783Y007833D01*
X007796Y007932D02*
X007304Y007932D01*
X007430Y008030D02*
X007670Y008030D01*
X007589Y008129D02*
X007511Y008129D01*
X008236Y007636D02*
X009489Y007636D01*
X009587Y007538D02*
X008138Y007538D01*
X008039Y007439D02*
X009686Y007439D01*
X009784Y007341D02*
X008036Y007341D01*
X008135Y007242D02*
X009883Y007242D01*
X009981Y007144D02*
X008190Y007144D01*
X008190Y007045D02*
X010080Y007045D01*
X010178Y006947D02*
X008190Y006947D01*
X008175Y006848D02*
X010277Y006848D01*
X010524Y006750D02*
X008076Y006750D01*
X007978Y006651D02*
X010622Y006651D01*
X011480Y006257D02*
X009120Y006257D01*
X009021Y006356D02*
X011579Y006356D01*
X010564Y007341D02*
X010435Y007341D01*
X009390Y007735D02*
X008280Y007735D01*
X008280Y007833D02*
X009292Y007833D01*
X008796Y007932D02*
X008304Y007932D01*
X008430Y008030D02*
X008670Y008030D01*
X008589Y008129D02*
X008511Y008129D01*
X008532Y008621D02*
X008568Y008621D01*
X008620Y008720D02*
X008480Y008720D01*
X008382Y008818D02*
X008718Y008818D01*
X008912Y008917D02*
X008188Y008917D01*
X007912Y008917D02*
X007188Y008917D01*
X007382Y008818D02*
X007718Y008818D01*
X007620Y008720D02*
X007480Y008720D01*
X007532Y008621D02*
X007568Y008621D01*
X007945Y009870D02*
X008155Y009870D01*
X008350Y009951D01*
X008499Y010100D01*
X008550Y010222D01*
X008601Y010100D01*
X008750Y009951D01*
X008945Y009870D01*
X009155Y009870D01*
X009350Y009951D01*
X009499Y010100D01*
X009550Y010222D01*
X009601Y010100D01*
X009750Y009951D01*
X009945Y009870D01*
X010155Y009870D01*
X010350Y009951D01*
X010499Y010100D01*
X010550Y010222D01*
X010601Y010100D01*
X010750Y009951D01*
X010945Y009870D01*
X011155Y009870D01*
X011350Y009951D01*
X011499Y010100D01*
X011580Y010295D01*
X011580Y010505D01*
X011499Y010700D01*
X011350Y010849D01*
X011155Y010930D01*
X010945Y010930D01*
X010750Y010849D01*
X010601Y010700D01*
X010550Y010578D01*
X010499Y010700D01*
X010350Y010849D01*
X010155Y010930D01*
X009945Y010930D01*
X009750Y010849D01*
X009601Y010700D01*
X009550Y010578D01*
X009499Y010700D01*
X009350Y010849D01*
X009155Y010930D01*
X008945Y010930D01*
X008750Y010849D01*
X008601Y010700D01*
X008550Y010578D01*
X008499Y010700D01*
X008350Y010849D01*
X008155Y010930D01*
X007945Y010930D01*
X007750Y010849D01*
X007601Y010700D01*
X007550Y010578D01*
X007499Y010700D01*
X007350Y010849D01*
X007155Y010930D01*
X006945Y010930D01*
X006750Y010849D01*
X006601Y010700D01*
X006520Y010505D01*
X006520Y010295D01*
X006601Y010100D01*
X006750Y009951D01*
X006945Y009870D01*
X007155Y009870D01*
X007350Y009951D01*
X007499Y010100D01*
X007550Y010222D01*
X007601Y010100D01*
X007750Y009951D01*
X007945Y009870D01*
X007868Y009902D02*
X007232Y009902D01*
X007400Y010000D02*
X007700Y010000D01*
X007602Y010099D02*
X007498Y010099D01*
X007540Y010197D02*
X007560Y010197D01*
X007545Y010591D02*
X007555Y010591D01*
X007596Y010690D02*
X007504Y010690D01*
X007412Y010788D02*
X007688Y010788D01*
X007840Y010887D02*
X007260Y010887D01*
X006840Y010887D02*
X006694Y010887D01*
X006688Y010788D02*
X006596Y010788D01*
X006596Y010690D02*
X006497Y010690D01*
X006555Y010591D02*
X006399Y010591D01*
X006300Y010493D02*
X006520Y010493D01*
X006520Y010394D02*
X006202Y010394D01*
X006103Y010296D02*
X006520Y010296D01*
X006560Y010197D02*
X006005Y010197D01*
X005906Y010099D02*
X006602Y010099D01*
X006700Y010000D02*
X005808Y010000D01*
X006868Y009902D02*
X000931Y009902D01*
X000730Y009803D02*
X011128Y009803D01*
X011029Y009705D02*
X000601Y009705D01*
X000530Y009606D02*
X010931Y009606D01*
X010832Y009508D02*
X000460Y009508D01*
X000428Y009409D02*
X010734Y009409D01*
X010635Y009311D02*
X000396Y009311D01*
X000380Y009212D02*
X010537Y009212D01*
X010438Y009114D02*
X000375Y009114D01*
X005342Y003696D02*
X005580Y003696D01*
X005495Y003598D02*
X005342Y003598D01*
X005342Y003499D02*
X005490Y003499D01*
X008190Y005075D02*
X008212Y005075D01*
X008190Y005174D02*
X008311Y005174D01*
X008409Y005272D02*
X008105Y005272D01*
X008006Y005371D02*
X008508Y005371D01*
X009128Y004484D02*
X011309Y004484D01*
X011190Y005075D02*
X011425Y005075D01*
X011326Y005174D02*
X011190Y005174D01*
X010563Y004287D02*
X010445Y004287D01*
X010477Y003795D02*
X010502Y003795D01*
X013280Y005568D02*
X014570Y005568D01*
X014570Y005666D02*
X013280Y005666D01*
X013280Y005962D02*
X014410Y005962D01*
X014410Y006060D02*
X013280Y006060D01*
X013280Y006159D02*
X014410Y006159D01*
X014480Y006257D02*
X013280Y006257D01*
X013280Y006356D02*
X014579Y006356D01*
X014076Y006750D02*
X015225Y006750D01*
X015225Y006848D02*
X014175Y006848D01*
X014190Y006947D02*
X015225Y006947D01*
X015225Y007045D02*
X014190Y007045D01*
X014244Y007144D02*
X015225Y007144D01*
X015225Y007242D02*
X014342Y007242D01*
X014441Y007341D02*
X015225Y007341D01*
X015225Y007439D02*
X014539Y007439D01*
X014638Y007538D02*
X015225Y007538D01*
X015225Y007636D02*
X014736Y007636D01*
X014835Y007735D02*
X015225Y007735D01*
X015225Y007833D02*
X014933Y007833D01*
X015032Y007932D02*
X015225Y007932D01*
X015225Y008030D02*
X015130Y008030D01*
X015155Y008129D02*
X015225Y008129D01*
X015225Y008227D02*
X015155Y008227D01*
X015155Y008326D02*
X015225Y008326D01*
X015225Y008424D02*
X015155Y008424D01*
X015155Y008523D02*
X015225Y008523D01*
X015225Y008621D02*
X015155Y008621D01*
X015155Y008720D02*
X015225Y008720D01*
X015225Y008818D02*
X015155Y008818D01*
X015155Y008917D02*
X015225Y008917D01*
X015225Y009015D02*
X015155Y009015D01*
X015155Y009114D02*
X015225Y009114D01*
X015220Y009212D02*
X015155Y009212D01*
X015204Y009311D02*
X015090Y009311D01*
X015172Y009409D02*
X014991Y009409D01*
X014893Y009508D02*
X015140Y009508D01*
X015070Y009606D02*
X014794Y009606D01*
X014696Y009705D02*
X014999Y009705D01*
X014870Y009803D02*
X014597Y009803D01*
X014669Y009902D02*
X011232Y009902D01*
X011400Y010000D02*
X012292Y010000D01*
X012194Y010099D02*
X011498Y010099D01*
X011540Y010197D02*
X012095Y010197D01*
X011997Y010296D02*
X011580Y010296D01*
X011580Y010394D02*
X011898Y010394D01*
X011800Y010493D02*
X011580Y010493D01*
X011545Y010591D02*
X011701Y010591D01*
X011603Y010690D02*
X011504Y010690D01*
X011504Y010788D02*
X011412Y010788D01*
X011406Y010887D02*
X011260Y010887D01*
X010840Y010887D02*
X010260Y010887D01*
X010412Y010788D02*
X010688Y010788D01*
X010596Y010690D02*
X010504Y010690D01*
X010545Y010591D02*
X010555Y010591D01*
X010540Y010197D02*
X010560Y010197D01*
X010602Y010099D02*
X010498Y010099D01*
X010400Y010000D02*
X010700Y010000D01*
X010868Y009902D02*
X010232Y009902D01*
X009868Y009902D02*
X009232Y009902D01*
X009400Y010000D02*
X009700Y010000D01*
X009602Y010099D02*
X009498Y010099D01*
X009540Y010197D02*
X009560Y010197D01*
X009545Y010591D02*
X009555Y010591D01*
X009596Y010690D02*
X009504Y010690D01*
X009412Y010788D02*
X009688Y010788D01*
X009840Y010887D02*
X009260Y010887D01*
X008840Y010887D02*
X008260Y010887D01*
X008412Y010788D02*
X008688Y010788D01*
X008596Y010690D02*
X008504Y010690D01*
X008545Y010591D02*
X008555Y010591D01*
X008540Y010197D02*
X008560Y010197D01*
X008602Y010099D02*
X008498Y010099D01*
X008400Y010000D02*
X008700Y010000D01*
X008868Y009902D02*
X008232Y009902D01*
X010892Y008917D02*
X010912Y008917D01*
X011286Y009311D02*
X014439Y009311D01*
X014350Y009212D02*
X014538Y009212D01*
X014459Y009114D02*
X014636Y009114D01*
X014695Y009015D02*
X014523Y009015D01*
X014561Y008917D02*
X014695Y008917D01*
X014100Y009114D02*
X014000Y009114D01*
X014000Y009212D02*
X014100Y009212D01*
X014341Y009409D02*
X011384Y009409D01*
X014410Y005863D02*
X014570Y005703D01*
X014570Y004287D02*
X013965Y004287D01*
X014015Y004189D02*
X014570Y004189D01*
X006184Y001332D02*
X006168Y001332D01*
X006168Y001234D02*
X006182Y001234D01*
X004367Y000446D02*
X000800Y000446D01*
D21*
X006800Y003400D03*
X006925Y002775D03*
X007026Y001876D03*
X008925Y003150D03*
X010675Y004025D03*
X009300Y004775D03*
X009610Y001150D03*
M02*
