%
M48
M72
T01C0.0130
T02C0.0320
T03C0.0400
%
T01
X2400Y1900
X5150Y2650
X5585Y1400
X5650Y4275
X7525Y4400
X12775Y4150
X12775Y3650
X12775Y2650
X14525Y2650
X15525Y1775
X16400Y2650
X16150Y4150
X16400Y5150
T02
X15400Y5150
X16400Y6150
X15400Y7150
X13400Y6150
X12400Y7150
X10400Y6150
X9400Y7150
X7400Y6150
X6400Y7150
X4400Y6150
X3400Y7150
X3400Y5150
X6400Y5150
X9400Y5150
X9400Y3900
X10400Y2900
X9400Y1900
X12400Y5150
X18400Y5150
X19400Y6150
X18400Y7150
T03
X18400Y8900
X19400Y8900
X16400Y8900
X15400Y8900
X14400Y8900
X13400Y8900
X12400Y8900
X20150Y3650
X20150Y2650
X963Y2650
X963Y3650
M30
