G75*
G70*
%OFA0B0*%
%FSLAX24Y24*%
%IPPOS*%
%LPD*%
%AMOC8*
5,1,8,0,0,1.08239X$1,22.5*
%
%ADD10C,0.0000*%
%ADD11R,0.0866X0.0236*%
%ADD12R,0.0315X0.0315*%
%ADD13C,0.0760*%
%ADD14OC8,0.0480*%
%ADD15R,0.0327X0.0248*%
%ADD16R,0.0800X0.0260*%
%ADD17R,0.0630X0.0512*%
%ADD18R,0.0512X0.0630*%
%ADD19C,0.0160*%
%ADD20C,0.0100*%
%ADD21C,0.0270*%
D10*
X002150Y000150D02*
X018900Y000150D01*
X018995Y000152D01*
X019090Y000159D01*
X019185Y000170D01*
X019279Y000186D01*
X019372Y000206D01*
X019463Y000231D01*
X019554Y000260D01*
X019643Y000293D01*
X019731Y000331D01*
X019816Y000372D01*
X019900Y000418D01*
X019981Y000467D01*
X020060Y000521D01*
X020136Y000578D01*
X020210Y000639D01*
X020280Y000703D01*
X020347Y000770D01*
X020411Y000840D01*
X020472Y000914D01*
X020529Y000990D01*
X020583Y001069D01*
X020632Y001150D01*
X020678Y001234D01*
X020719Y001319D01*
X020757Y001407D01*
X020790Y001496D01*
X020819Y001587D01*
X020844Y001678D01*
X020864Y001771D01*
X020880Y001865D01*
X020891Y001960D01*
X020898Y002055D01*
X020900Y002150D01*
X020900Y009025D01*
X020898Y009120D01*
X020891Y009215D01*
X020880Y009310D01*
X020864Y009404D01*
X020844Y009497D01*
X020819Y009588D01*
X020790Y009679D01*
X020757Y009768D01*
X020719Y009856D01*
X020678Y009941D01*
X020632Y010025D01*
X020583Y010106D01*
X020529Y010185D01*
X020472Y010261D01*
X020411Y010335D01*
X020347Y010405D01*
X020280Y010472D01*
X020210Y010536D01*
X020136Y010597D01*
X020060Y010654D01*
X019981Y010708D01*
X019900Y010757D01*
X019816Y010803D01*
X019731Y010844D01*
X019643Y010882D01*
X019554Y010915D01*
X019463Y010944D01*
X019372Y010969D01*
X019279Y010989D01*
X019185Y011005D01*
X019090Y011016D01*
X018995Y011023D01*
X018900Y011025D01*
X002150Y011025D01*
X002055Y011023D01*
X001960Y011016D01*
X001865Y011005D01*
X001771Y010989D01*
X001678Y010969D01*
X001587Y010944D01*
X001496Y010915D01*
X001407Y010882D01*
X001319Y010844D01*
X001234Y010803D01*
X001150Y010757D01*
X001069Y010708D01*
X000990Y010654D01*
X000914Y010597D01*
X000840Y010536D01*
X000770Y010472D01*
X000703Y010405D01*
X000639Y010335D01*
X000578Y010261D01*
X000521Y010185D01*
X000467Y010106D01*
X000418Y010025D01*
X000372Y009941D01*
X000331Y009856D01*
X000293Y009768D01*
X000260Y009679D01*
X000231Y009588D01*
X000206Y009497D01*
X000186Y009404D01*
X000170Y009310D01*
X000159Y009215D01*
X000152Y009120D01*
X000150Y009025D01*
X000150Y002150D01*
X000152Y002055D01*
X000159Y001960D01*
X000170Y001865D01*
X000186Y001771D01*
X000206Y001678D01*
X000231Y001587D01*
X000260Y001496D01*
X000293Y001407D01*
X000331Y001319D01*
X000372Y001234D01*
X000418Y001150D01*
X000467Y001069D01*
X000521Y000990D01*
X000578Y000914D01*
X000639Y000840D01*
X000703Y000770D01*
X000770Y000703D01*
X000840Y000639D01*
X000914Y000578D01*
X000990Y000521D01*
X001069Y000467D01*
X001150Y000418D01*
X001234Y000372D01*
X001319Y000331D01*
X001407Y000293D01*
X001496Y000260D01*
X001587Y000231D01*
X001678Y000206D01*
X001771Y000186D01*
X001865Y000170D01*
X001960Y000159D01*
X002055Y000152D01*
X002150Y000150D01*
D11*
X002376Y002650D03*
X002376Y003150D03*
X002376Y003650D03*
X002376Y004150D03*
X004424Y004150D03*
X004424Y003650D03*
X004424Y003150D03*
X004424Y002650D03*
X011501Y002650D03*
X011501Y003150D03*
X011501Y003650D03*
X011501Y004150D03*
X013549Y004150D03*
X013549Y003650D03*
X013549Y003150D03*
X013549Y002650D03*
D12*
X013027Y001775D03*
X012398Y001775D03*
X007840Y001025D03*
X007210Y001025D03*
X006215Y001900D03*
X005585Y001900D03*
X004965Y001900D03*
X004335Y001900D03*
X003715Y001900D03*
X003085Y001900D03*
X003085Y001150D03*
X003715Y001150D03*
X002399Y001150D03*
X001769Y001150D03*
X005585Y002650D03*
X006215Y002650D03*
X007525Y003335D03*
X007525Y003965D03*
X005965Y003650D03*
X005335Y003650D03*
X001588Y007025D03*
X001588Y007655D03*
D13*
X000963Y003650D03*
X000963Y002650D03*
X012400Y008900D03*
X013400Y008900D03*
X014400Y008900D03*
X015400Y008900D03*
X016400Y008900D03*
X018400Y008900D03*
X019400Y008900D03*
X020150Y003650D03*
X020150Y002650D03*
D14*
X018400Y005150D03*
X019400Y006150D03*
X018400Y007150D03*
X016400Y006150D03*
X015400Y007150D03*
X013400Y006150D03*
X012400Y007150D03*
X010400Y006150D03*
X009400Y007150D03*
X007400Y006150D03*
X006400Y007150D03*
X004400Y006150D03*
X003400Y007150D03*
X003400Y005150D03*
X006400Y005150D03*
X009400Y005150D03*
X009400Y003900D03*
X010400Y002900D03*
X009400Y001900D03*
X012400Y005150D03*
X015400Y005150D03*
D15*
X000775Y005010D03*
X000775Y005915D03*
X000775Y006510D03*
X000775Y007415D03*
D16*
X015315Y004150D03*
X015315Y003650D03*
X015315Y003150D03*
X015315Y002650D03*
X017735Y002650D03*
X017735Y003150D03*
X017735Y003650D03*
X017735Y004150D03*
D17*
X018900Y004044D03*
X018900Y003256D03*
D18*
X017169Y001775D03*
X016381Y001775D03*
X014669Y001775D03*
X013881Y001775D03*
D19*
X014669Y001775D02*
X015525Y001775D01*
X016400Y001669D02*
X016400Y002650D01*
X015315Y002650D01*
X014525Y002650D01*
X013549Y002650D02*
X012775Y002650D01*
X011650Y001900D02*
X009400Y001900D01*
X009275Y002900D02*
X007840Y001465D01*
X007840Y001025D01*
X006775Y001400D02*
X006775Y002775D01*
X006900Y002900D01*
X006900Y004650D01*
X006400Y005150D01*
X005775Y004900D02*
X005775Y005525D01*
X006400Y006150D01*
X007400Y006150D01*
X009400Y007150D02*
X010650Y007150D01*
X012400Y008900D01*
X013400Y008900D02*
X013400Y008150D01*
X012400Y007150D01*
X013400Y006150D02*
X010400Y006150D01*
X010400Y004025D01*
X010775Y003650D01*
X011501Y003650D01*
X011501Y003150D02*
X010650Y003150D01*
X010400Y002900D01*
X009275Y002900D01*
X007525Y003965D02*
X007525Y004400D01*
X006525Y004150D02*
X005775Y004900D01*
X005650Y004275D02*
X004400Y005525D01*
X004400Y006150D01*
X003400Y006150D02*
X003400Y007150D01*
X003400Y006150D02*
X002400Y005150D01*
X002400Y004174D01*
X002376Y003650D02*
X000963Y003650D01*
X000963Y004463D01*
X000775Y004650D01*
X000775Y005010D01*
X001385Y005010D01*
X001588Y005213D01*
X001588Y006307D01*
X001385Y006510D01*
X001588Y006713D01*
X001588Y007025D01*
X001385Y006510D02*
X000775Y006510D01*
X005335Y003960D02*
X005650Y004275D01*
X005335Y003960D02*
X005335Y003650D01*
X004424Y003650D01*
X004424Y003150D02*
X003900Y003150D01*
X003715Y002965D01*
X003715Y001900D01*
X004335Y001900D01*
X003715Y001900D02*
X003715Y001150D01*
X005025Y001150D01*
X005275Y000900D01*
X006275Y000900D01*
X006775Y001400D01*
X005585Y001400D02*
X005585Y001900D01*
X005585Y002650D01*
X005150Y002650D02*
X004424Y002650D01*
X004965Y001900D02*
X005585Y001900D01*
X006215Y002650D02*
X006215Y002965D01*
X006525Y003275D01*
X006525Y004150D01*
X003085Y003465D02*
X002900Y003650D01*
X002376Y003650D01*
X003085Y003465D02*
X003085Y001900D01*
X003085Y001150D01*
X002400Y001151D02*
X002400Y001900D01*
X002400Y002650D01*
X012775Y003650D02*
X013549Y003650D01*
X013549Y004150D02*
X012775Y004150D01*
X015315Y004150D02*
X016150Y004150D01*
X017735Y004150D02*
X018275Y004150D01*
X018381Y004044D01*
X018900Y004044D01*
X020150Y003650D02*
X020150Y004588D01*
X019400Y005338D01*
X019400Y006150D01*
X016400Y006150D01*
X013400Y006150D01*
X014400Y008150D02*
X015400Y007150D01*
X017150Y007150D02*
X015400Y008900D01*
X014400Y008900D02*
X014400Y008150D01*
X017150Y007150D02*
X018400Y007150D01*
X018381Y003256D02*
X018275Y003150D01*
X017735Y003150D01*
X018381Y003256D02*
X018900Y003256D01*
D20*
X001192Y000626D02*
X000877Y000877D01*
X000626Y001192D01*
X000451Y001555D01*
X000361Y001948D01*
X000350Y002150D01*
X000350Y009025D01*
X000361Y009227D01*
X000451Y009620D01*
X000626Y009983D01*
X000877Y010298D01*
X001192Y010549D01*
X001555Y010724D01*
X001948Y010814D01*
X002150Y010825D01*
X018900Y010825D01*
X019102Y010814D01*
X019495Y010724D01*
X019858Y010549D01*
X020173Y010298D01*
X020424Y009983D01*
X020599Y009620D01*
X020689Y009227D01*
X020700Y009025D01*
X020700Y002150D01*
X020689Y001948D01*
X020599Y001555D01*
X020424Y001192D01*
X020173Y000877D01*
X019858Y000626D01*
X019495Y000451D01*
X019102Y000361D01*
X018900Y000350D01*
X002150Y000350D01*
X001948Y000361D01*
X001555Y000451D01*
X001192Y000626D01*
X001200Y000622D02*
X019850Y000622D01*
X019976Y000721D02*
X008063Y000721D01*
X008060Y000718D02*
X008147Y000805D01*
X008147Y001245D01*
X008070Y001322D01*
X008070Y001370D01*
X009370Y002670D01*
X010078Y002670D01*
X010238Y002510D01*
X010562Y002510D01*
X010790Y002738D01*
X010790Y002920D01*
X010968Y002920D01*
X010988Y002900D01*
X010918Y002830D01*
X010918Y002470D01*
X011006Y002382D01*
X011849Y002382D01*
X011597Y002130D01*
X009722Y002130D01*
X009562Y002290D01*
X009238Y002290D01*
X009010Y002062D01*
X009010Y001738D01*
X009238Y001510D01*
X009562Y001510D01*
X009722Y001670D01*
X011745Y001670D01*
X011880Y001805D01*
X011880Y001847D01*
X012198Y002165D01*
X012198Y002082D01*
X012178Y002082D01*
X012090Y001995D01*
X012090Y001555D01*
X012178Y001468D01*
X012617Y001468D01*
X012705Y001555D01*
X012705Y001995D01*
X012617Y002082D01*
X012598Y002082D01*
X012598Y002424D01*
X012614Y002408D01*
X012718Y002365D01*
X012832Y002365D01*
X012936Y002408D01*
X012948Y002420D01*
X013015Y002420D01*
X013053Y002382D01*
X014044Y002382D01*
X014132Y002470D01*
X014132Y002830D01*
X014062Y002900D01*
X014112Y002950D01*
X014358Y002950D01*
X014608Y003200D01*
X014725Y003317D01*
X014725Y004192D01*
X014765Y004232D01*
X014765Y003958D01*
X014823Y003900D01*
X014765Y003842D01*
X014765Y003458D01*
X014823Y003400D01*
X014765Y003342D01*
X014765Y002958D01*
X014823Y002900D01*
X014803Y002880D01*
X014698Y002880D01*
X014686Y002892D01*
X014582Y002935D01*
X014468Y002935D01*
X014364Y002892D01*
X014283Y002811D01*
X014240Y002707D01*
X014240Y002593D01*
X014283Y002489D01*
X014364Y002408D01*
X014468Y002365D01*
X014582Y002365D01*
X014686Y002408D01*
X014698Y002420D01*
X014803Y002420D01*
X014853Y002370D01*
X015777Y002370D01*
X015827Y002420D01*
X016170Y002420D01*
X016170Y002240D01*
X016063Y002240D01*
X015975Y002152D01*
X015975Y001398D01*
X016063Y001310D01*
X016699Y001310D01*
X016780Y001390D01*
X016793Y001368D01*
X016821Y001340D01*
X016855Y001320D01*
X016893Y001310D01*
X017119Y001310D01*
X017119Y001725D01*
X017219Y001725D01*
X017219Y001825D01*
X017575Y001825D01*
X017575Y002110D01*
X017564Y002148D01*
X017545Y002182D01*
X017517Y002210D01*
X017483Y002230D01*
X017444Y002240D01*
X017219Y002240D01*
X017219Y001825D01*
X017119Y001825D01*
X017119Y002240D01*
X016893Y002240D01*
X016855Y002230D01*
X016821Y002210D01*
X016793Y002182D01*
X016780Y002160D01*
X016699Y002240D01*
X016630Y002240D01*
X016630Y002477D01*
X016642Y002489D01*
X016685Y002593D01*
X016685Y002707D01*
X016642Y002811D01*
X016561Y002892D01*
X016457Y002935D01*
X016343Y002935D01*
X016239Y002892D01*
X016227Y002880D01*
X015827Y002880D01*
X015807Y002900D01*
X015865Y002958D01*
X015865Y003342D01*
X015807Y003400D01*
X015865Y003458D01*
X015865Y003842D01*
X015807Y003900D01*
X015827Y003920D01*
X015977Y003920D01*
X015989Y003908D01*
X016093Y003865D01*
X016207Y003865D01*
X016311Y003908D01*
X016392Y003989D01*
X016435Y004093D01*
X016435Y004207D01*
X016392Y004311D01*
X016311Y004392D01*
X016207Y004435D01*
X016093Y004435D01*
X015989Y004392D01*
X015977Y004380D01*
X015913Y004380D01*
X016398Y004865D01*
X016457Y004865D01*
X016561Y004908D01*
X016642Y004989D01*
X016685Y005093D01*
X016685Y005207D01*
X016642Y005311D01*
X016561Y005392D01*
X016457Y005435D01*
X016343Y005435D01*
X016239Y005392D01*
X016158Y005311D01*
X016115Y005207D01*
X016115Y005148D01*
X015692Y004725D01*
X014692Y004725D01*
X014575Y004608D01*
X014325Y004358D01*
X014325Y003483D01*
X014192Y003350D01*
X014112Y003350D01*
X014062Y003400D01*
X014132Y003470D01*
X014132Y003830D01*
X014062Y003900D01*
X014132Y003970D01*
X014132Y004330D01*
X014044Y004418D01*
X013053Y004418D01*
X013015Y004380D01*
X012948Y004380D01*
X012936Y004392D01*
X012832Y004435D01*
X012718Y004435D01*
X012614Y004392D01*
X012533Y004311D01*
X012490Y004207D01*
X012490Y004093D01*
X012533Y003989D01*
X012614Y003908D01*
X012634Y003900D01*
X012614Y003892D01*
X012533Y003811D01*
X012490Y003707D01*
X012490Y003593D01*
X012533Y003489D01*
X012614Y003408D01*
X012718Y003365D01*
X012832Y003365D01*
X012936Y003408D01*
X012948Y003420D01*
X013015Y003420D01*
X013035Y003400D01*
X012985Y003350D01*
X012505Y003350D01*
X012388Y003233D01*
X012350Y003195D01*
X012350Y004108D01*
X012225Y004233D01*
X012108Y004350D01*
X012065Y004350D01*
X011997Y004418D01*
X011006Y004418D01*
X010918Y004330D01*
X010918Y003970D01*
X010988Y003900D01*
X010968Y003880D01*
X010870Y003880D01*
X010630Y004120D01*
X010630Y005828D01*
X010722Y005920D01*
X013078Y005920D01*
X013238Y005760D01*
X013562Y005760D01*
X013722Y005920D01*
X016078Y005920D01*
X016238Y005760D01*
X016562Y005760D01*
X016722Y005920D01*
X019078Y005920D01*
X019170Y005828D01*
X019170Y005242D01*
X019305Y005108D01*
X019920Y004492D01*
X019920Y004128D01*
X019850Y004099D01*
X019701Y003950D01*
X019620Y003755D01*
X019620Y003545D01*
X019701Y003350D01*
X019850Y003201D01*
X019973Y003150D01*
X019947Y003141D01*
X019872Y003103D01*
X019805Y003054D01*
X019746Y002995D01*
X019697Y002928D01*
X019659Y002853D01*
X019633Y002774D01*
X019621Y002700D01*
X020100Y002700D01*
X020100Y002600D01*
X020200Y002600D01*
X020200Y002700D01*
X020679Y002700D01*
X020667Y002774D01*
X020641Y002853D01*
X020603Y002928D01*
X020554Y002995D01*
X020495Y003054D01*
X020428Y003103D01*
X020353Y003141D01*
X020327Y003150D01*
X020450Y003201D01*
X020599Y003350D01*
X020680Y003545D01*
X020680Y003755D01*
X020599Y003950D01*
X020450Y004099D01*
X020380Y004128D01*
X020380Y004683D01*
X019630Y005433D01*
X019630Y005828D01*
X019790Y005988D01*
X019790Y006312D01*
X019562Y006540D01*
X019238Y006540D01*
X019078Y006380D01*
X016722Y006380D01*
X016562Y006540D01*
X016238Y006540D01*
X016078Y006380D01*
X013722Y006380D01*
X013562Y006540D01*
X013238Y006540D01*
X013078Y006380D01*
X010722Y006380D01*
X010562Y006540D01*
X010238Y006540D01*
X010010Y006312D01*
X010010Y005988D01*
X010170Y005828D01*
X010170Y003930D01*
X010305Y003795D01*
X010680Y003420D01*
X010968Y003420D01*
X010988Y003400D01*
X010968Y003380D01*
X010555Y003380D01*
X010465Y003290D01*
X010238Y003290D01*
X010078Y003130D01*
X009180Y003130D01*
X009045Y002995D01*
X007610Y001560D01*
X007610Y001322D01*
X007532Y001245D01*
X007532Y000805D01*
X007620Y000718D01*
X008060Y000718D01*
X008147Y000819D02*
X020100Y000819D01*
X020205Y000918D02*
X008147Y000918D01*
X008147Y001016D02*
X020284Y001016D01*
X020362Y001115D02*
X008147Y001115D01*
X008147Y001213D02*
X020434Y001213D01*
X020482Y001312D02*
X017450Y001312D01*
X017444Y001310D02*
X017483Y001320D01*
X017517Y001340D01*
X017545Y001368D01*
X017564Y001402D01*
X017575Y001440D01*
X017575Y001725D01*
X017219Y001725D01*
X017219Y001310D01*
X017444Y001310D01*
X017566Y001410D02*
X020529Y001410D01*
X020576Y001509D02*
X017575Y001509D01*
X017575Y001607D02*
X020611Y001607D01*
X020633Y001706D02*
X017575Y001706D01*
X017575Y001903D02*
X020678Y001903D01*
X020692Y002001D02*
X017575Y002001D01*
X017575Y002100D02*
X020697Y002100D01*
X020700Y002198D02*
X020430Y002198D01*
X020428Y002197D02*
X020495Y002246D01*
X020554Y002305D01*
X020603Y002372D01*
X020641Y002447D01*
X020667Y002526D01*
X020679Y002600D01*
X020200Y002600D01*
X020200Y002121D01*
X020274Y002133D01*
X020353Y002159D01*
X020428Y002197D01*
X020546Y002297D02*
X020700Y002297D01*
X020700Y002395D02*
X020615Y002395D01*
X020656Y002494D02*
X020700Y002494D01*
X020700Y002592D02*
X020677Y002592D01*
X020700Y002691D02*
X020200Y002691D01*
X020200Y002592D02*
X020100Y002592D01*
X020100Y002600D02*
X020100Y002121D01*
X020026Y002133D01*
X019947Y002159D01*
X019872Y002197D01*
X019805Y002246D01*
X019746Y002305D01*
X019697Y002372D01*
X019659Y002447D01*
X019633Y002526D01*
X019621Y002600D01*
X020100Y002600D01*
X020100Y002691D02*
X018285Y002691D01*
X018285Y002789D02*
X019638Y002789D01*
X019676Y002888D02*
X019314Y002888D01*
X019277Y002850D02*
X019365Y002938D01*
X019365Y003574D01*
X019289Y003650D01*
X019365Y003726D01*
X019365Y004362D01*
X019277Y004450D01*
X018523Y004450D01*
X018435Y004362D01*
X018435Y004315D01*
X018370Y004380D01*
X018247Y004380D01*
X018197Y004430D01*
X017273Y004430D01*
X017185Y004342D01*
X017185Y003958D01*
X017243Y003900D01*
X017215Y003872D01*
X017195Y003838D01*
X017185Y003800D01*
X017185Y003665D01*
X017720Y003665D01*
X017720Y003635D01*
X017185Y003635D01*
X017185Y003500D01*
X017195Y003462D01*
X017215Y003428D01*
X017243Y003400D01*
X017185Y003342D01*
X017185Y002958D01*
X017243Y002900D01*
X017185Y002842D01*
X017185Y002458D01*
X017273Y002370D01*
X018197Y002370D01*
X018285Y002458D01*
X018285Y002842D01*
X018227Y002900D01*
X018247Y002920D01*
X018370Y002920D01*
X018435Y002985D01*
X018435Y002938D01*
X018523Y002850D01*
X019277Y002850D01*
X019365Y002986D02*
X019739Y002986D01*
X019846Y003085D02*
X019365Y003085D01*
X019365Y003183D02*
X019892Y003183D01*
X019769Y003282D02*
X019365Y003282D01*
X019365Y003380D02*
X019688Y003380D01*
X019647Y003479D02*
X019365Y003479D01*
X019362Y003577D02*
X019620Y003577D01*
X019620Y003676D02*
X019315Y003676D01*
X019365Y003774D02*
X019628Y003774D01*
X019669Y003873D02*
X019365Y003873D01*
X019365Y003971D02*
X019722Y003971D01*
X019820Y004070D02*
X019365Y004070D01*
X019365Y004168D02*
X019920Y004168D01*
X019920Y004267D02*
X019365Y004267D01*
X019362Y004365D02*
X019920Y004365D01*
X019920Y004464D02*
X015996Y004464D01*
X016095Y004562D02*
X019850Y004562D01*
X019752Y004661D02*
X016193Y004661D01*
X016292Y004759D02*
X019653Y004759D01*
X019555Y004858D02*
X018659Y004858D01*
X018562Y004760D02*
X018790Y004988D01*
X018790Y005312D01*
X018562Y005540D01*
X018238Y005540D01*
X018010Y005312D01*
X018010Y004988D01*
X018238Y004760D01*
X018562Y004760D01*
X018758Y004956D02*
X019456Y004956D01*
X019358Y005055D02*
X018790Y005055D01*
X018790Y005153D02*
X019259Y005153D01*
X019170Y005252D02*
X018790Y005252D01*
X018751Y005350D02*
X019170Y005350D01*
X019170Y005449D02*
X018653Y005449D01*
X018147Y005449D02*
X015653Y005449D01*
X015562Y005540D02*
X015238Y005540D01*
X015010Y005312D01*
X015010Y004988D01*
X015238Y004760D01*
X015562Y004760D01*
X015790Y004988D01*
X015790Y005312D01*
X015562Y005540D01*
X015751Y005350D02*
X016197Y005350D01*
X016134Y005252D02*
X015790Y005252D01*
X015790Y005153D02*
X016115Y005153D01*
X016022Y005055D02*
X015790Y005055D01*
X015758Y004956D02*
X015923Y004956D01*
X015825Y004858D02*
X015659Y004858D01*
X015726Y004759D02*
X010630Y004759D01*
X010630Y004661D02*
X014628Y004661D01*
X014529Y004562D02*
X010630Y004562D01*
X010630Y004464D02*
X014431Y004464D01*
X014332Y004365D02*
X014097Y004365D01*
X014132Y004267D02*
X014325Y004267D01*
X014325Y004168D02*
X014132Y004168D01*
X014132Y004070D02*
X014325Y004070D01*
X014325Y003971D02*
X014132Y003971D01*
X014089Y003873D02*
X014325Y003873D01*
X014325Y003774D02*
X014132Y003774D01*
X014132Y003676D02*
X014325Y003676D01*
X014325Y003577D02*
X014132Y003577D01*
X014132Y003479D02*
X014321Y003479D01*
X014222Y003380D02*
X014082Y003380D01*
X014275Y003150D02*
X013549Y003150D01*
X012588Y003150D01*
X012398Y002960D01*
X012398Y001775D01*
X012090Y001804D02*
X011879Y001804D01*
X011935Y001903D02*
X012090Y001903D01*
X012096Y002001D02*
X012034Y002001D01*
X012132Y002100D02*
X012198Y002100D01*
X012150Y002400D02*
X011650Y001900D01*
X011781Y001706D02*
X012090Y001706D01*
X012090Y001607D02*
X009659Y001607D01*
X009141Y001607D02*
X008307Y001607D01*
X008209Y001509D02*
X012137Y001509D01*
X012658Y001509D02*
X012767Y001509D01*
X012778Y001497D02*
X012812Y001478D01*
X012850Y001468D01*
X012999Y001468D01*
X012999Y001746D01*
X013056Y001746D01*
X013056Y001468D01*
X013205Y001468D01*
X013243Y001478D01*
X013277Y001497D01*
X013305Y001525D01*
X013325Y001560D01*
X013335Y001598D01*
X013335Y001746D01*
X013056Y001746D01*
X013056Y001804D01*
X012999Y001804D01*
X012999Y002082D01*
X012850Y002082D01*
X012812Y002072D01*
X012778Y002053D01*
X012750Y002025D01*
X012730Y001990D01*
X012720Y001952D01*
X012720Y001804D01*
X012705Y001804D01*
X012720Y001804D02*
X012999Y001804D01*
X013056Y001804D01*
X013056Y002082D01*
X013205Y002082D01*
X013243Y002072D01*
X013277Y002053D01*
X013305Y002025D01*
X013325Y001990D01*
X013335Y001952D01*
X013335Y001804D01*
X013831Y001804D01*
X013831Y001825D02*
X013831Y001725D01*
X013475Y001725D01*
X013475Y001440D01*
X013486Y001402D01*
X013505Y001368D01*
X013533Y001340D01*
X013567Y001320D01*
X013606Y001310D01*
X013831Y001310D01*
X013831Y001725D01*
X013931Y001725D01*
X013931Y001310D01*
X014157Y001310D01*
X014195Y001320D01*
X014229Y001340D01*
X014257Y001368D01*
X014270Y001390D01*
X014351Y001310D01*
X014987Y001310D01*
X015075Y001398D01*
X015075Y001545D01*
X015352Y001545D01*
X015364Y001533D01*
X015468Y001490D01*
X015582Y001490D01*
X015686Y001533D01*
X015767Y001614D01*
X015810Y001718D01*
X015810Y001832D01*
X015767Y001936D01*
X015686Y002017D01*
X015582Y002060D01*
X015468Y002060D01*
X015364Y002017D01*
X015352Y002005D01*
X015075Y002005D01*
X015075Y002152D01*
X014987Y002240D01*
X014351Y002240D01*
X014270Y002160D01*
X014257Y002182D01*
X014229Y002210D01*
X014195Y002230D01*
X014157Y002240D01*
X013931Y002240D01*
X013931Y001825D01*
X013831Y001825D01*
X013475Y001825D01*
X013475Y002110D01*
X013486Y002148D01*
X013505Y002182D01*
X013533Y002210D01*
X013567Y002230D01*
X013606Y002240D01*
X013831Y002240D01*
X013831Y001825D01*
X013831Y001903D02*
X013931Y001903D01*
X013931Y002001D02*
X013831Y002001D01*
X013831Y002100D02*
X013931Y002100D01*
X013931Y002198D02*
X013831Y002198D01*
X013521Y002198D02*
X012598Y002198D01*
X012598Y002100D02*
X013475Y002100D01*
X013475Y002001D02*
X013319Y002001D01*
X013335Y001903D02*
X013475Y001903D01*
X013335Y001804D02*
X013056Y001804D01*
X012999Y001804D02*
X012999Y001746D01*
X012720Y001746D01*
X012720Y001598D01*
X012730Y001560D01*
X012750Y001525D01*
X012778Y001497D01*
X012720Y001607D02*
X012705Y001607D01*
X012705Y001706D02*
X012720Y001706D01*
X012999Y001706D02*
X013056Y001706D01*
X013056Y001607D02*
X012999Y001607D01*
X012999Y001509D02*
X013056Y001509D01*
X013288Y001509D02*
X013475Y001509D01*
X013475Y001607D02*
X013335Y001607D01*
X013335Y001706D02*
X013475Y001706D01*
X013831Y001706D02*
X013931Y001706D01*
X013931Y001607D02*
X013831Y001607D01*
X013831Y001509D02*
X013931Y001509D01*
X013931Y001410D02*
X013831Y001410D01*
X013831Y001312D02*
X013931Y001312D01*
X014163Y001312D02*
X014349Y001312D01*
X014988Y001312D02*
X016062Y001312D01*
X015975Y001410D02*
X015075Y001410D01*
X015075Y001509D02*
X015424Y001509D01*
X015626Y001509D02*
X015975Y001509D01*
X015975Y001607D02*
X015760Y001607D01*
X015805Y001706D02*
X015975Y001706D01*
X015975Y001804D02*
X015810Y001804D01*
X015781Y001903D02*
X015975Y001903D01*
X015975Y002001D02*
X015702Y002001D01*
X015975Y002100D02*
X015075Y002100D01*
X015029Y002198D02*
X016021Y002198D01*
X016170Y002297D02*
X012598Y002297D01*
X012598Y002395D02*
X012646Y002395D01*
X012904Y002395D02*
X013040Y002395D01*
X013056Y002001D02*
X012999Y002001D01*
X012999Y001903D02*
X013056Y001903D01*
X012736Y002001D02*
X012699Y002001D01*
X012705Y001903D02*
X012720Y001903D01*
X012150Y002400D02*
X012150Y004025D01*
X012025Y004150D01*
X011501Y004150D01*
X010953Y004365D02*
X010630Y004365D01*
X010630Y004267D02*
X010918Y004267D01*
X010918Y004168D02*
X010630Y004168D01*
X010681Y004070D02*
X010918Y004070D01*
X010918Y003971D02*
X010779Y003971D01*
X010326Y003774D02*
X009790Y003774D01*
X009790Y003738D02*
X009562Y003510D01*
X009238Y003510D01*
X009010Y003738D01*
X009010Y004062D01*
X009238Y004290D01*
X009562Y004290D01*
X009790Y004062D01*
X009790Y003738D01*
X009727Y003676D02*
X010424Y003676D01*
X010523Y003577D02*
X009629Y003577D01*
X009790Y003873D02*
X010227Y003873D01*
X010170Y003971D02*
X009790Y003971D01*
X009782Y004070D02*
X010170Y004070D01*
X010170Y004168D02*
X009683Y004168D01*
X009585Y004267D02*
X010170Y004267D01*
X010170Y004365D02*
X007810Y004365D01*
X007810Y004343D02*
X007810Y004457D01*
X007767Y004561D01*
X007686Y004642D01*
X007582Y004685D01*
X007468Y004685D01*
X007364Y004642D01*
X007283Y004561D01*
X007240Y004457D01*
X007240Y004343D01*
X007280Y004247D01*
X007218Y004185D01*
X007218Y003745D01*
X007305Y003657D01*
X007745Y003657D01*
X007832Y003745D01*
X007832Y004185D01*
X007770Y004247D01*
X007810Y004343D01*
X007778Y004267D02*
X009215Y004267D01*
X009117Y004168D02*
X007832Y004168D01*
X007832Y004070D02*
X009018Y004070D01*
X009010Y003971D02*
X007832Y003971D01*
X007832Y003873D02*
X009010Y003873D01*
X009010Y003774D02*
X007832Y003774D01*
X007763Y003676D02*
X009073Y003676D01*
X009171Y003577D02*
X007807Y003577D01*
X007803Y003585D02*
X007775Y003613D01*
X007740Y003632D01*
X007702Y003643D01*
X007554Y003643D01*
X007554Y003364D01*
X007496Y003364D01*
X007496Y003643D01*
X007348Y003643D01*
X007310Y003632D01*
X007275Y003613D01*
X007247Y003585D01*
X007228Y003550D01*
X007218Y003512D01*
X007218Y003364D01*
X007496Y003364D01*
X007496Y003306D01*
X007554Y003306D01*
X007554Y003364D01*
X007832Y003364D01*
X007832Y003512D01*
X007822Y003550D01*
X007803Y003585D01*
X007832Y003479D02*
X010621Y003479D01*
X010968Y003380D02*
X007832Y003380D01*
X007832Y003306D02*
X007554Y003306D01*
X007554Y003028D01*
X007702Y003028D01*
X007740Y003038D01*
X007775Y003058D01*
X007803Y003085D01*
X007822Y003120D01*
X007832Y003158D01*
X007832Y003306D01*
X007832Y003282D02*
X010230Y003282D01*
X010132Y003183D02*
X007832Y003183D01*
X007802Y003085D02*
X009134Y003085D01*
X009036Y002986D02*
X007130Y002986D01*
X007130Y002888D02*
X008937Y002888D01*
X008839Y002789D02*
X007114Y002789D01*
X007130Y002805D02*
X007005Y002680D01*
X007005Y001325D01*
X007033Y001332D01*
X007181Y001332D01*
X007181Y001054D01*
X007239Y001054D01*
X007239Y001332D01*
X007387Y001332D01*
X007425Y001322D01*
X007460Y001303D01*
X007488Y001275D01*
X007507Y001240D01*
X007518Y001202D01*
X007518Y001054D01*
X007239Y001054D01*
X007239Y000996D01*
X007518Y000996D01*
X007518Y000848D01*
X007507Y000810D01*
X007488Y000775D01*
X007460Y000747D01*
X007425Y000728D01*
X007387Y000718D01*
X007239Y000718D01*
X007239Y000996D01*
X007181Y000996D01*
X007181Y000718D01*
X007033Y000718D01*
X006995Y000728D01*
X006960Y000747D01*
X006933Y000775D01*
X006913Y000810D01*
X006903Y000848D01*
X006903Y000996D01*
X007181Y000996D01*
X007181Y001054D01*
X006903Y001054D01*
X006903Y001202D01*
X006903Y001202D01*
X006870Y001170D01*
X006370Y000670D01*
X005180Y000670D01*
X004930Y000920D01*
X004012Y000920D01*
X003935Y000843D01*
X003495Y000843D01*
X003407Y000930D01*
X003407Y001370D01*
X003485Y001447D01*
X003485Y001603D01*
X003407Y001680D01*
X003407Y002120D01*
X003485Y002197D01*
X003485Y003060D01*
X003805Y003380D01*
X003890Y003380D01*
X003910Y003400D01*
X003841Y003470D01*
X003841Y003830D01*
X003910Y003900D01*
X003841Y003970D01*
X003841Y004330D01*
X003928Y004418D01*
X004919Y004418D01*
X005007Y004330D01*
X005007Y003970D01*
X004937Y003900D01*
X004957Y003880D01*
X005038Y003880D01*
X005105Y003947D01*
X005105Y004055D01*
X005325Y004275D01*
X004170Y005430D01*
X004170Y005828D01*
X004010Y005988D01*
X004010Y006312D01*
X004238Y006540D01*
X004562Y006540D01*
X004790Y006312D01*
X004790Y005988D01*
X004630Y005828D01*
X004630Y005620D01*
X005690Y004560D01*
X005707Y004560D01*
X005811Y004517D01*
X005892Y004436D01*
X005935Y004332D01*
X005935Y004218D01*
X005892Y004114D01*
X005811Y004033D01*
X005707Y003990D01*
X005690Y003990D01*
X005606Y003906D01*
X005643Y003870D01*
X005643Y003430D01*
X005555Y003343D01*
X005115Y003343D01*
X005038Y003420D01*
X004957Y003420D01*
X004937Y003400D01*
X005007Y003330D01*
X005007Y002970D01*
X004937Y002900D01*
X004957Y002880D01*
X004977Y002880D01*
X004989Y002892D01*
X005093Y002935D01*
X005207Y002935D01*
X005303Y002895D01*
X005365Y002957D01*
X005805Y002957D01*
X005893Y002870D01*
X005893Y002430D01*
X005815Y002353D01*
X005815Y002197D01*
X005893Y002120D01*
X005893Y001680D01*
X005815Y001603D01*
X005815Y001573D01*
X005827Y001561D01*
X005870Y001457D01*
X005870Y001343D01*
X005827Y001239D01*
X005746Y001158D01*
X005678Y001130D01*
X006180Y001130D01*
X006545Y001495D01*
X006545Y002870D01*
X006670Y002995D01*
X006670Y003095D01*
X006620Y003045D01*
X006484Y002908D01*
X006522Y002870D01*
X006522Y002430D01*
X006435Y002343D01*
X005995Y002343D01*
X005907Y002430D01*
X005907Y002870D01*
X005985Y002947D01*
X005985Y003060D01*
X006295Y003370D01*
X006295Y004055D01*
X005680Y004670D01*
X005545Y004805D01*
X005545Y005620D01*
X006170Y006245D01*
X006305Y006380D01*
X007078Y006380D01*
X007238Y006540D01*
X007562Y006540D01*
X007790Y006312D01*
X007790Y005988D01*
X007562Y005760D01*
X007238Y005760D01*
X007078Y005920D01*
X006495Y005920D01*
X006005Y005430D01*
X006005Y004995D01*
X006010Y004990D01*
X006010Y005312D01*
X006238Y005540D01*
X006562Y005540D01*
X006790Y005312D01*
X006790Y005085D01*
X007130Y004745D01*
X007130Y002805D01*
X007016Y002691D02*
X008740Y002691D01*
X008642Y002592D02*
X007005Y002592D01*
X007005Y002494D02*
X008543Y002494D01*
X008445Y002395D02*
X007005Y002395D01*
X007005Y002297D02*
X008346Y002297D01*
X008248Y002198D02*
X007005Y002198D01*
X007005Y002100D02*
X008149Y002100D01*
X008051Y002001D02*
X007005Y002001D01*
X007005Y001903D02*
X007952Y001903D01*
X007854Y001804D02*
X007005Y001804D01*
X007005Y001706D02*
X007755Y001706D01*
X007657Y001607D02*
X007005Y001607D01*
X007005Y001509D02*
X007610Y001509D01*
X007610Y001410D02*
X007005Y001410D01*
X007181Y001312D02*
X007239Y001312D01*
X007239Y001213D02*
X007181Y001213D01*
X007181Y001115D02*
X007239Y001115D01*
X007239Y001016D02*
X007532Y001016D01*
X007518Y000918D02*
X007532Y000918D01*
X007532Y000819D02*
X007510Y000819D01*
X007617Y000721D02*
X007399Y000721D01*
X007239Y000721D02*
X007181Y000721D01*
X007181Y000819D02*
X007239Y000819D01*
X007239Y000918D02*
X007181Y000918D01*
X007181Y001016D02*
X006716Y001016D01*
X006618Y000918D02*
X006903Y000918D01*
X006910Y000819D02*
X006519Y000819D01*
X006421Y000721D02*
X007022Y000721D01*
X006903Y001115D02*
X006815Y001115D01*
X006361Y001312D02*
X005857Y001312D01*
X005870Y001410D02*
X006460Y001410D01*
X006545Y001509D02*
X005849Y001509D01*
X005819Y001607D02*
X005992Y001607D01*
X006000Y001603D02*
X006038Y001593D01*
X006186Y001593D01*
X006186Y001871D01*
X006244Y001871D01*
X006244Y001929D01*
X006522Y001929D01*
X006522Y002077D01*
X006512Y002115D01*
X006492Y002150D01*
X006465Y002178D01*
X006430Y002197D01*
X006392Y002207D01*
X006244Y002207D01*
X006244Y001929D01*
X006186Y001929D01*
X006186Y002207D01*
X006038Y002207D01*
X006000Y002197D01*
X005965Y002178D01*
X005937Y002150D01*
X005918Y002115D01*
X005907Y002077D01*
X005907Y001929D01*
X006186Y001929D01*
X006186Y001871D01*
X005907Y001871D01*
X005907Y001723D01*
X005918Y001685D01*
X005937Y001650D01*
X005965Y001622D01*
X006000Y001603D01*
X005912Y001706D02*
X005893Y001706D01*
X005893Y001804D02*
X005907Y001804D01*
X005893Y001903D02*
X006186Y001903D01*
X006244Y001903D02*
X006545Y001903D01*
X006522Y001871D02*
X006244Y001871D01*
X006244Y001593D01*
X006392Y001593D01*
X006430Y001603D01*
X006465Y001622D01*
X006492Y001650D01*
X006512Y001685D01*
X006522Y001723D01*
X006522Y001871D01*
X006522Y001804D02*
X006545Y001804D01*
X006545Y001706D02*
X006518Y001706D01*
X006545Y001607D02*
X006438Y001607D01*
X006244Y001607D02*
X006186Y001607D01*
X006186Y001706D02*
X006244Y001706D01*
X006244Y001804D02*
X006186Y001804D01*
X006186Y002001D02*
X006244Y002001D01*
X006244Y002100D02*
X006186Y002100D01*
X006186Y002198D02*
X006244Y002198D01*
X006427Y002198D02*
X006545Y002198D01*
X006545Y002100D02*
X006516Y002100D01*
X006522Y002001D02*
X006545Y002001D01*
X006545Y002297D02*
X005815Y002297D01*
X005815Y002198D02*
X006003Y002198D01*
X005913Y002100D02*
X005893Y002100D01*
X005893Y002001D02*
X005907Y002001D01*
X005943Y002395D02*
X005857Y002395D01*
X005893Y002494D02*
X005907Y002494D01*
X005893Y002592D02*
X005907Y002592D01*
X005893Y002691D02*
X005907Y002691D01*
X005893Y002789D02*
X005907Y002789D01*
X005925Y002888D02*
X005875Y002888D01*
X005985Y002986D02*
X005007Y002986D01*
X005007Y003085D02*
X006009Y003085D01*
X006108Y003183D02*
X005007Y003183D01*
X005007Y003282D02*
X006206Y003282D01*
X006180Y003353D02*
X006142Y003343D01*
X005994Y003343D01*
X005994Y003621D01*
X005994Y003679D01*
X005936Y003679D01*
X005936Y003957D01*
X005788Y003957D01*
X005750Y003947D01*
X005715Y003928D01*
X005687Y003900D01*
X005668Y003865D01*
X005657Y003827D01*
X005657Y003679D01*
X005936Y003679D01*
X005936Y003621D01*
X005657Y003621D01*
X005657Y003473D01*
X005668Y003435D01*
X005687Y003400D01*
X005715Y003372D01*
X005750Y003353D01*
X005788Y003343D01*
X005936Y003343D01*
X005936Y003621D01*
X005994Y003621D01*
X006272Y003621D01*
X006272Y003473D01*
X006262Y003435D01*
X006242Y003400D01*
X006215Y003372D01*
X006180Y003353D01*
X006222Y003380D02*
X006295Y003380D01*
X006295Y003479D02*
X006272Y003479D01*
X006272Y003577D02*
X006295Y003577D01*
X006295Y003676D02*
X005994Y003676D01*
X005994Y003679D02*
X006272Y003679D01*
X006272Y003827D01*
X006262Y003865D01*
X006242Y003900D01*
X006215Y003928D01*
X006180Y003947D01*
X006142Y003957D01*
X005994Y003957D01*
X005994Y003679D01*
X005936Y003676D02*
X005643Y003676D01*
X005643Y003774D02*
X005657Y003774D01*
X005640Y003873D02*
X005672Y003873D01*
X005671Y003971D02*
X006295Y003971D01*
X006295Y003873D02*
X006258Y003873D01*
X006272Y003774D02*
X006295Y003774D01*
X005994Y003774D02*
X005936Y003774D01*
X005936Y003873D02*
X005994Y003873D01*
X005848Y004070D02*
X006280Y004070D01*
X006182Y004168D02*
X005914Y004168D01*
X005935Y004267D02*
X006083Y004267D01*
X005985Y004365D02*
X005921Y004365D01*
X005886Y004464D02*
X005865Y004464D01*
X005788Y004562D02*
X005688Y004562D01*
X005689Y004661D02*
X005590Y004661D01*
X005591Y004759D02*
X005491Y004759D01*
X005545Y004858D02*
X005393Y004858D01*
X005294Y004956D02*
X005545Y004956D01*
X005545Y005055D02*
X005196Y005055D01*
X005097Y005153D02*
X005545Y005153D01*
X005545Y005252D02*
X004999Y005252D01*
X004900Y005350D02*
X005545Y005350D01*
X005545Y005449D02*
X004802Y005449D01*
X004703Y005547D02*
X005545Y005547D01*
X005570Y005646D02*
X004630Y005646D01*
X004630Y005744D02*
X005669Y005744D01*
X005767Y005843D02*
X004644Y005843D01*
X004743Y005941D02*
X005866Y005941D01*
X005964Y006040D02*
X004790Y006040D01*
X004790Y006138D02*
X006063Y006138D01*
X006161Y006237D02*
X004790Y006237D01*
X004766Y006335D02*
X006260Y006335D01*
X006238Y006760D02*
X006010Y006988D01*
X006010Y007120D01*
X006370Y007120D01*
X006370Y007180D01*
X006370Y007540D01*
X006238Y007540D01*
X006010Y007312D01*
X006010Y007180D01*
X006370Y007180D01*
X006430Y007180D01*
X006430Y007540D01*
X006562Y007540D01*
X006790Y007312D01*
X006790Y007180D01*
X006430Y007180D01*
X006430Y007120D01*
X006790Y007120D01*
X006790Y006988D01*
X006562Y006760D01*
X006430Y006760D01*
X006430Y007120D01*
X006370Y007120D01*
X006370Y006760D01*
X006238Y006760D01*
X006171Y006828D02*
X003630Y006828D01*
X003790Y006988D01*
X003790Y007312D01*
X003562Y007540D01*
X003238Y007540D01*
X003010Y007312D01*
X003010Y006988D01*
X003170Y006828D01*
X001895Y006828D01*
X001895Y006805D02*
X001817Y006728D01*
X001817Y006617D01*
X001710Y006510D01*
X001817Y006402D01*
X001817Y005117D01*
X001683Y004983D01*
X001615Y004914D01*
X001480Y004780D01*
X001045Y004780D01*
X001008Y004743D01*
X001058Y004692D01*
X001192Y004558D01*
X001192Y004128D01*
X001263Y004099D01*
X001412Y003950D01*
X001441Y003880D01*
X001843Y003880D01*
X001863Y003900D01*
X001793Y003970D01*
X001793Y004330D01*
X001881Y004418D01*
X002170Y004418D01*
X002170Y005245D01*
X003170Y006245D01*
X003170Y006828D01*
X003170Y006729D02*
X001819Y006729D01*
X001817Y006631D02*
X003170Y006631D01*
X003170Y006532D02*
X001732Y006532D01*
X001786Y006434D02*
X003170Y006434D01*
X003170Y006335D02*
X001817Y006335D01*
X001817Y006237D02*
X003161Y006237D01*
X003063Y006138D02*
X001817Y006138D01*
X001817Y006040D02*
X002964Y006040D01*
X002866Y005941D02*
X001817Y005941D01*
X001817Y005843D02*
X002767Y005843D01*
X002669Y005744D02*
X001817Y005744D01*
X001817Y005646D02*
X002570Y005646D01*
X002472Y005547D02*
X001817Y005547D01*
X001817Y005449D02*
X002373Y005449D01*
X002275Y005350D02*
X001817Y005350D01*
X001817Y005252D02*
X002176Y005252D01*
X002170Y005153D02*
X001817Y005153D01*
X001755Y005055D02*
X002170Y005055D01*
X002170Y004956D02*
X001656Y004956D01*
X001558Y004858D02*
X002170Y004858D01*
X002170Y004759D02*
X001024Y004759D01*
X001090Y004661D02*
X002170Y004661D01*
X002170Y004562D02*
X001188Y004562D01*
X001192Y004464D02*
X002170Y004464D01*
X001828Y004365D02*
X001192Y004365D01*
X001192Y004267D02*
X001793Y004267D01*
X001793Y004168D02*
X001192Y004168D01*
X001292Y004070D02*
X001793Y004070D01*
X001793Y003971D02*
X001391Y003971D01*
X000733Y004128D02*
X000662Y004099D01*
X000513Y003950D01*
X000433Y003755D01*
X000433Y003545D01*
X000513Y003350D01*
X000662Y003201D01*
X000785Y003150D01*
X000759Y003141D01*
X000685Y003103D01*
X000617Y003054D01*
X000558Y002995D01*
X000509Y002928D01*
X000471Y002853D01*
X000446Y002774D01*
X000434Y002700D01*
X000912Y002700D01*
X000912Y002600D01*
X000434Y002600D01*
X000446Y002526D01*
X000471Y002447D01*
X000509Y002372D01*
X000558Y002305D01*
X000617Y002246D01*
X000685Y002197D01*
X000759Y002159D01*
X000838Y002133D01*
X000913Y002121D01*
X000913Y002600D01*
X001012Y002600D01*
X001012Y002121D01*
X001087Y002133D01*
X001166Y002159D01*
X001240Y002197D01*
X001308Y002246D01*
X001367Y002305D01*
X001416Y002372D01*
X001454Y002447D01*
X001479Y002526D01*
X001491Y002600D01*
X001013Y002600D01*
X001013Y002700D01*
X001491Y002700D01*
X001479Y002774D01*
X001454Y002853D01*
X001416Y002928D01*
X001367Y002995D01*
X001308Y003054D01*
X001240Y003103D01*
X001166Y003141D01*
X001140Y003150D01*
X001263Y003201D01*
X001412Y003350D01*
X001441Y003420D01*
X001843Y003420D01*
X001866Y003397D01*
X001851Y003388D01*
X001823Y003360D01*
X001804Y003326D01*
X001793Y003288D01*
X001793Y003159D01*
X002367Y003159D01*
X002367Y003141D01*
X001793Y003141D01*
X001793Y003012D01*
X001804Y002974D01*
X001823Y002940D01*
X001851Y002912D01*
X001866Y002903D01*
X001793Y002830D01*
X001793Y002470D01*
X001881Y002382D01*
X002170Y002382D01*
X002170Y002073D01*
X002158Y002061D01*
X002115Y001957D01*
X002115Y001843D01*
X002158Y001739D01*
X002170Y001727D01*
X002170Y001448D01*
X002091Y001370D01*
X002091Y000930D01*
X002179Y000843D01*
X002619Y000843D01*
X002706Y000930D01*
X002706Y001370D01*
X002630Y001446D01*
X002630Y001727D01*
X002642Y001739D01*
X002685Y001843D01*
X002685Y001957D01*
X002642Y002061D01*
X002630Y002073D01*
X002630Y002382D01*
X002855Y002382D01*
X002855Y002197D01*
X002778Y002120D01*
X002778Y001680D01*
X002855Y001603D01*
X002855Y001447D01*
X002778Y001370D01*
X002778Y000930D01*
X002865Y000843D01*
X003305Y000843D01*
X003393Y000930D01*
X003393Y001370D01*
X003315Y001447D01*
X003315Y001603D01*
X003393Y001680D01*
X003393Y002120D01*
X003315Y002197D01*
X003315Y003560D01*
X003130Y003745D01*
X002995Y003880D01*
X002910Y003880D01*
X002890Y003900D01*
X002959Y003970D01*
X002959Y004330D01*
X002872Y004418D01*
X002630Y004418D01*
X002630Y005055D01*
X003495Y005920D01*
X003630Y006055D01*
X003630Y006828D01*
X003630Y006729D02*
X020700Y006729D01*
X020700Y006631D02*
X003630Y006631D01*
X003630Y006532D02*
X004231Y006532D01*
X004132Y006434D02*
X003630Y006434D01*
X003630Y006335D02*
X004034Y006335D01*
X004010Y006237D02*
X003630Y006237D01*
X003630Y006138D02*
X004010Y006138D01*
X004010Y006040D02*
X003615Y006040D01*
X003516Y005941D02*
X004057Y005941D01*
X004156Y005843D02*
X003418Y005843D01*
X003319Y005744D02*
X004170Y005744D01*
X004170Y005646D02*
X003221Y005646D01*
X003238Y005540D02*
X003010Y005312D01*
X003010Y004988D01*
X003238Y004760D01*
X003562Y004760D01*
X003790Y004988D01*
X003790Y005312D01*
X003562Y005540D01*
X003238Y005540D01*
X003122Y005547D02*
X004170Y005547D01*
X004170Y005449D02*
X003653Y005449D01*
X003751Y005350D02*
X004250Y005350D01*
X004348Y005252D02*
X003790Y005252D01*
X003790Y005153D02*
X004447Y005153D01*
X004545Y005055D02*
X003790Y005055D01*
X003758Y004956D02*
X004644Y004956D01*
X004742Y004858D02*
X003659Y004858D01*
X003141Y004858D02*
X002630Y004858D01*
X002630Y004956D02*
X003042Y004956D01*
X003010Y005055D02*
X002630Y005055D01*
X002728Y005153D02*
X003010Y005153D01*
X003010Y005252D02*
X002827Y005252D01*
X002925Y005350D02*
X003049Y005350D01*
X003024Y005449D02*
X003147Y005449D01*
X002630Y004759D02*
X004841Y004759D01*
X004939Y004661D02*
X002630Y004661D01*
X002630Y004562D02*
X005038Y004562D01*
X005136Y004464D02*
X002630Y004464D01*
X002925Y004365D02*
X003875Y004365D01*
X003841Y004267D02*
X002959Y004267D01*
X002959Y004168D02*
X003841Y004168D01*
X003841Y004070D02*
X002959Y004070D01*
X002959Y003971D02*
X003841Y003971D01*
X003883Y003873D02*
X003003Y003873D01*
X003101Y003774D02*
X003841Y003774D01*
X003841Y003676D02*
X003200Y003676D01*
X003298Y003577D02*
X003841Y003577D01*
X003841Y003479D02*
X003315Y003479D01*
X003315Y003380D02*
X003890Y003380D01*
X003706Y003282D02*
X003315Y003282D01*
X003315Y003183D02*
X003608Y003183D01*
X003509Y003085D02*
X003315Y003085D01*
X003315Y002986D02*
X003485Y002986D01*
X003485Y002888D02*
X003315Y002888D01*
X003315Y002789D02*
X003485Y002789D01*
X003485Y002691D02*
X003315Y002691D01*
X003315Y002592D02*
X003485Y002592D01*
X003485Y002494D02*
X003315Y002494D01*
X003315Y002395D02*
X003485Y002395D01*
X003485Y002297D02*
X003315Y002297D01*
X003315Y002198D02*
X003485Y002198D01*
X003407Y002100D02*
X003393Y002100D01*
X003393Y002001D02*
X003407Y002001D01*
X003393Y001903D02*
X003407Y001903D01*
X003393Y001804D02*
X003407Y001804D01*
X003393Y001706D02*
X003407Y001706D01*
X003481Y001607D02*
X003319Y001607D01*
X003315Y001509D02*
X003485Y001509D01*
X003448Y001410D02*
X003352Y001410D01*
X003393Y001312D02*
X003407Y001312D01*
X003393Y001213D02*
X003407Y001213D01*
X003393Y001115D02*
X003407Y001115D01*
X003393Y001016D02*
X003407Y001016D01*
X003420Y000918D02*
X003380Y000918D01*
X002790Y000918D02*
X002694Y000918D01*
X002706Y001016D02*
X002778Y001016D01*
X002778Y001115D02*
X002706Y001115D01*
X002706Y001213D02*
X002778Y001213D01*
X002778Y001312D02*
X002706Y001312D01*
X002666Y001410D02*
X002818Y001410D01*
X002855Y001509D02*
X002630Y001509D01*
X002630Y001607D02*
X002851Y001607D01*
X002778Y001706D02*
X002630Y001706D01*
X002669Y001804D02*
X002778Y001804D01*
X002778Y001903D02*
X002685Y001903D01*
X002667Y002001D02*
X002778Y002001D01*
X002778Y002100D02*
X002630Y002100D01*
X002630Y002198D02*
X002855Y002198D01*
X002855Y002297D02*
X002630Y002297D01*
X002170Y002297D02*
X001359Y002297D01*
X001427Y002395D02*
X001868Y002395D01*
X001793Y002494D02*
X001469Y002494D01*
X001490Y002592D02*
X001793Y002592D01*
X001793Y002691D02*
X001013Y002691D01*
X001012Y002592D02*
X000913Y002592D01*
X000913Y002494D02*
X001012Y002494D01*
X001012Y002395D02*
X000913Y002395D01*
X000913Y002297D02*
X001012Y002297D01*
X001012Y002198D02*
X000913Y002198D01*
X000683Y002198D02*
X000350Y002198D01*
X000353Y002100D02*
X002170Y002100D01*
X002170Y002198D02*
X001242Y002198D01*
X000566Y002297D02*
X000350Y002297D01*
X000350Y002395D02*
X000498Y002395D01*
X000456Y002494D02*
X000350Y002494D01*
X000350Y002592D02*
X000435Y002592D01*
X000350Y002691D02*
X000912Y002691D01*
X000552Y002986D02*
X000350Y002986D01*
X000350Y002888D02*
X000489Y002888D01*
X000450Y002789D02*
X000350Y002789D01*
X000350Y003085D02*
X000659Y003085D01*
X000705Y003183D02*
X000350Y003183D01*
X000350Y003282D02*
X000581Y003282D01*
X000501Y003380D02*
X000350Y003380D01*
X000350Y003479D02*
X000460Y003479D01*
X000433Y003577D02*
X000350Y003577D01*
X000350Y003676D02*
X000433Y003676D01*
X000440Y003774D02*
X000350Y003774D01*
X000350Y003873D02*
X000481Y003873D01*
X000534Y003971D02*
X000350Y003971D01*
X000350Y004070D02*
X000633Y004070D01*
X000733Y004128D02*
X000733Y004367D01*
X000545Y004555D01*
X000545Y004740D01*
X000462Y004824D01*
X000462Y005196D01*
X000549Y005284D01*
X001001Y005284D01*
X001045Y005240D01*
X001289Y005240D01*
X001358Y005308D01*
X001358Y006212D01*
X001289Y006280D01*
X001045Y006280D01*
X001001Y006236D01*
X000549Y006236D01*
X000462Y006324D01*
X000462Y006696D01*
X000549Y006784D01*
X001001Y006784D01*
X001045Y006740D01*
X001289Y006740D01*
X001318Y006768D01*
X001280Y006805D01*
X001280Y007245D01*
X001368Y007332D01*
X001807Y007332D01*
X001895Y007245D01*
X001895Y006805D01*
X001895Y006926D02*
X003072Y006926D01*
X003010Y007025D02*
X001895Y007025D01*
X001895Y007123D02*
X003010Y007123D01*
X003010Y007222D02*
X001895Y007222D01*
X001820Y007320D02*
X003019Y007320D01*
X003117Y007419D02*
X001873Y007419D01*
X001865Y007405D02*
X001885Y007440D01*
X001895Y007478D01*
X001895Y007626D01*
X001616Y007626D01*
X001616Y007347D01*
X001765Y007347D01*
X001803Y007358D01*
X001837Y007377D01*
X001865Y007405D01*
X001895Y007517D02*
X003216Y007517D01*
X003584Y007517D02*
X006216Y007517D01*
X006117Y007419D02*
X003683Y007419D01*
X003781Y007320D02*
X006019Y007320D01*
X006010Y007222D02*
X003790Y007222D01*
X003790Y007123D02*
X006370Y007123D01*
X006430Y007123D02*
X009010Y007123D01*
X009010Y007025D02*
X006790Y007025D01*
X006728Y006926D02*
X009072Y006926D01*
X009010Y006988D02*
X009238Y006760D01*
X009562Y006760D01*
X009722Y006920D01*
X010745Y006920D01*
X012224Y008399D01*
X012295Y008370D01*
X012505Y008370D01*
X012700Y008451D01*
X012849Y008600D01*
X012900Y008722D01*
X012951Y008600D01*
X013100Y008451D01*
X013170Y008422D01*
X013170Y008245D01*
X012465Y007540D01*
X012238Y007540D01*
X012010Y007312D01*
X012010Y006988D01*
X012238Y006760D01*
X012562Y006760D01*
X012790Y006988D01*
X012790Y007215D01*
X013630Y008055D01*
X013630Y008422D01*
X013700Y008451D01*
X013849Y008600D01*
X013900Y008722D01*
X013951Y008600D01*
X014100Y008451D01*
X014170Y008422D01*
X014170Y008055D01*
X015010Y007215D01*
X015010Y006988D01*
X015238Y006760D01*
X015562Y006760D01*
X015790Y006988D01*
X015790Y007312D01*
X015562Y007540D01*
X015335Y007540D01*
X014630Y008245D01*
X014630Y008422D01*
X014700Y008451D01*
X014849Y008600D01*
X014900Y008722D01*
X014951Y008600D01*
X015100Y008451D01*
X015295Y008370D01*
X015505Y008370D01*
X015576Y008399D01*
X017055Y006920D01*
X018078Y006920D01*
X018238Y006760D01*
X018562Y006760D01*
X018790Y006988D01*
X018790Y007312D01*
X018562Y007540D01*
X018238Y007540D01*
X018078Y007380D01*
X017245Y007380D01*
X016227Y008398D01*
X016295Y008370D01*
X016505Y008370D01*
X016700Y008451D01*
X016849Y008600D01*
X016930Y008795D01*
X016930Y009005D01*
X016849Y009200D01*
X016700Y009349D01*
X016505Y009430D01*
X016295Y009430D01*
X016100Y009349D01*
X015951Y009200D01*
X015900Y009078D01*
X015849Y009200D01*
X015700Y009349D01*
X015505Y009430D01*
X015295Y009430D01*
X015100Y009349D01*
X014951Y009200D01*
X014900Y009078D01*
X014849Y009200D01*
X014700Y009349D01*
X014505Y009430D01*
X014295Y009430D01*
X014100Y009349D01*
X013951Y009200D01*
X013900Y009078D01*
X013849Y009200D01*
X013700Y009349D01*
X013505Y009430D01*
X013295Y009430D01*
X013100Y009349D01*
X012951Y009200D01*
X012900Y009078D01*
X012849Y009200D01*
X012700Y009349D01*
X012505Y009430D01*
X012295Y009430D01*
X012100Y009349D01*
X011951Y009200D01*
X011870Y009005D01*
X011870Y008795D01*
X011899Y008724D01*
X010555Y007380D01*
X009722Y007380D01*
X009562Y007540D01*
X009238Y007540D01*
X009010Y007312D01*
X009010Y006988D01*
X009171Y006828D02*
X006629Y006828D01*
X006430Y006828D02*
X006370Y006828D01*
X006370Y006926D02*
X006430Y006926D01*
X006430Y007025D02*
X006370Y007025D01*
X006370Y007222D02*
X006430Y007222D01*
X006430Y007320D02*
X006370Y007320D01*
X006370Y007419D02*
X006430Y007419D01*
X006430Y007517D02*
X006370Y007517D01*
X006584Y007517D02*
X009216Y007517D01*
X009117Y007419D02*
X006683Y007419D01*
X006781Y007320D02*
X009019Y007320D01*
X009010Y007222D02*
X006790Y007222D01*
X006072Y006926D02*
X003728Y006926D01*
X003790Y007025D02*
X006010Y007025D01*
X007132Y006434D02*
X004668Y006434D01*
X004569Y006532D02*
X007231Y006532D01*
X007569Y006532D02*
X010231Y006532D01*
X010132Y006434D02*
X007668Y006434D01*
X007766Y006335D02*
X010034Y006335D01*
X010010Y006237D02*
X007790Y006237D01*
X007790Y006138D02*
X010010Y006138D01*
X010010Y006040D02*
X007790Y006040D01*
X007743Y005941D02*
X010057Y005941D01*
X010156Y005843D02*
X007644Y005843D01*
X007156Y005843D02*
X006418Y005843D01*
X006319Y005744D02*
X010170Y005744D01*
X010170Y005646D02*
X006221Y005646D01*
X006122Y005547D02*
X010170Y005547D01*
X010170Y005449D02*
X009653Y005449D01*
X009562Y005540D02*
X009238Y005540D01*
X009010Y005312D01*
X009010Y004988D01*
X009238Y004760D01*
X009562Y004760D01*
X009790Y004988D01*
X009790Y005312D01*
X009562Y005540D01*
X009751Y005350D02*
X010170Y005350D01*
X010170Y005252D02*
X009790Y005252D01*
X009790Y005153D02*
X010170Y005153D01*
X010170Y005055D02*
X009790Y005055D01*
X009758Y004956D02*
X010170Y004956D01*
X010170Y004858D02*
X009659Y004858D01*
X009141Y004858D02*
X007018Y004858D01*
X006919Y004956D02*
X009042Y004956D01*
X009010Y005055D02*
X006821Y005055D01*
X006790Y005153D02*
X009010Y005153D01*
X009010Y005252D02*
X006790Y005252D01*
X006751Y005350D02*
X009049Y005350D01*
X009147Y005449D02*
X006653Y005449D01*
X006147Y005449D02*
X006024Y005449D01*
X006005Y005350D02*
X006049Y005350D01*
X006010Y005252D02*
X006005Y005252D01*
X006005Y005153D02*
X006010Y005153D01*
X006005Y005055D02*
X006010Y005055D01*
X007116Y004759D02*
X010170Y004759D01*
X010170Y004661D02*
X007641Y004661D01*
X007766Y004562D02*
X010170Y004562D01*
X010170Y004464D02*
X007807Y004464D01*
X007409Y004661D02*
X007130Y004661D01*
X007130Y004562D02*
X007284Y004562D01*
X007243Y004464D02*
X007130Y004464D01*
X007130Y004365D02*
X007240Y004365D01*
X007272Y004267D02*
X007130Y004267D01*
X007130Y004168D02*
X007218Y004168D01*
X007218Y004070D02*
X007130Y004070D01*
X007130Y003971D02*
X007218Y003971D01*
X007218Y003873D02*
X007130Y003873D01*
X007130Y003774D02*
X007218Y003774D01*
X007287Y003676D02*
X007130Y003676D01*
X007130Y003577D02*
X007243Y003577D01*
X007218Y003479D02*
X007130Y003479D01*
X007130Y003380D02*
X007218Y003380D01*
X007218Y003306D02*
X007218Y003158D01*
X007228Y003120D01*
X007247Y003085D01*
X007275Y003058D01*
X007310Y003038D01*
X007348Y003028D01*
X007496Y003028D01*
X007496Y003306D01*
X007218Y003306D01*
X007218Y003282D02*
X007130Y003282D01*
X007130Y003183D02*
X007218Y003183D01*
X007248Y003085D02*
X007130Y003085D01*
X007496Y003085D02*
X007554Y003085D01*
X007554Y003183D02*
X007496Y003183D01*
X007496Y003282D02*
X007554Y003282D01*
X007554Y003380D02*
X007496Y003380D01*
X007496Y003479D02*
X007554Y003479D01*
X007554Y003577D02*
X007496Y003577D01*
X006670Y003085D02*
X006660Y003085D01*
X006661Y002986D02*
X006561Y002986D01*
X006562Y002888D02*
X006505Y002888D01*
X006522Y002789D02*
X006545Y002789D01*
X006545Y002691D02*
X006522Y002691D01*
X006522Y002592D02*
X006545Y002592D01*
X006545Y002494D02*
X006522Y002494D01*
X006545Y002395D02*
X006487Y002395D01*
X004984Y002888D02*
X004949Y002888D01*
X004957Y003380D02*
X005078Y003380D01*
X005592Y003380D02*
X005708Y003380D01*
X005657Y003479D02*
X005643Y003479D01*
X005643Y003577D02*
X005657Y003577D01*
X005936Y003577D02*
X005994Y003577D01*
X005994Y003479D02*
X005936Y003479D01*
X005936Y003380D02*
X005994Y003380D01*
X005105Y003971D02*
X005007Y003971D01*
X005007Y004070D02*
X005119Y004070D01*
X005218Y004168D02*
X005007Y004168D01*
X005007Y004267D02*
X005316Y004267D01*
X005235Y004365D02*
X004972Y004365D01*
X002400Y004174D02*
X002376Y004150D01*
X001843Y003380D02*
X001424Y003380D01*
X001344Y003282D02*
X001793Y003282D01*
X001793Y003183D02*
X001220Y003183D01*
X001266Y003085D02*
X001793Y003085D01*
X001800Y002986D02*
X001373Y002986D01*
X001436Y002888D02*
X001851Y002888D01*
X001793Y002789D02*
X001475Y002789D01*
X002376Y002650D02*
X002400Y002650D01*
X002133Y002001D02*
X000358Y002001D01*
X000372Y001903D02*
X002115Y001903D01*
X002131Y001804D02*
X000394Y001804D01*
X000417Y001706D02*
X002170Y001706D01*
X002170Y001607D02*
X000439Y001607D01*
X000474Y001509D02*
X002170Y001509D01*
X002132Y001410D02*
X002036Y001410D01*
X002047Y001400D02*
X002019Y001428D01*
X001984Y001447D01*
X001946Y001457D01*
X001798Y001457D01*
X001798Y001179D01*
X002077Y001179D01*
X002077Y001327D01*
X002066Y001365D01*
X002047Y001400D01*
X002077Y001312D02*
X002091Y001312D01*
X002077Y001213D02*
X002091Y001213D01*
X002077Y001121D02*
X001798Y001121D01*
X001798Y001179D01*
X001740Y001179D01*
X001740Y001121D01*
X001798Y001121D01*
X001798Y000843D01*
X001946Y000843D01*
X001984Y000853D01*
X002019Y000872D01*
X002047Y000900D01*
X002066Y000935D01*
X002077Y000973D01*
X002077Y001121D01*
X002077Y001115D02*
X002091Y001115D01*
X002077Y001016D02*
X002091Y001016D01*
X002104Y000918D02*
X002056Y000918D01*
X001798Y000918D02*
X001740Y000918D01*
X001740Y000843D02*
X001592Y000843D01*
X001554Y000853D01*
X001519Y000872D01*
X001492Y000900D01*
X001472Y000935D01*
X001462Y000973D01*
X001462Y001121D01*
X001740Y001121D01*
X001740Y000843D01*
X001482Y000918D02*
X000845Y000918D01*
X000766Y001016D02*
X001462Y001016D01*
X001462Y001115D02*
X000688Y001115D01*
X000616Y001213D02*
X001462Y001213D01*
X001462Y001179D02*
X001740Y001179D01*
X001740Y001457D01*
X001592Y001457D01*
X001554Y001447D01*
X001519Y001428D01*
X001492Y001400D01*
X001472Y001365D01*
X001462Y001327D01*
X001462Y001179D01*
X001462Y001312D02*
X000568Y001312D01*
X000521Y001410D02*
X001502Y001410D01*
X001740Y001410D02*
X001798Y001410D01*
X001798Y001312D02*
X001740Y001312D01*
X001740Y001213D02*
X001798Y001213D01*
X001798Y001115D02*
X001740Y001115D01*
X001740Y001016D02*
X001798Y001016D01*
X002399Y001150D02*
X002400Y001151D01*
X001405Y000524D02*
X019645Y000524D01*
X019381Y000425D02*
X001669Y000425D01*
X001074Y000721D02*
X005129Y000721D01*
X005031Y000819D02*
X000950Y000819D01*
X004010Y000918D02*
X004932Y000918D01*
X005801Y001213D02*
X006263Y001213D01*
X007444Y001312D02*
X007599Y001312D01*
X007532Y001213D02*
X007515Y001213D01*
X007518Y001115D02*
X007532Y001115D01*
X008081Y001312D02*
X013600Y001312D01*
X013483Y001410D02*
X008110Y001410D01*
X008406Y001706D02*
X009043Y001706D01*
X009010Y001804D02*
X008504Y001804D01*
X008603Y001903D02*
X009010Y001903D01*
X009010Y002001D02*
X008701Y002001D01*
X008800Y002100D02*
X009048Y002100D01*
X009146Y002198D02*
X008898Y002198D01*
X008997Y002297D02*
X011764Y002297D01*
X011665Y002198D02*
X009653Y002198D01*
X009095Y002395D02*
X010993Y002395D01*
X010918Y002494D02*
X009194Y002494D01*
X009292Y002592D02*
X010156Y002592D01*
X010644Y002592D02*
X010918Y002592D01*
X010918Y002691D02*
X010742Y002691D01*
X010790Y002789D02*
X010918Y002789D01*
X010976Y002888D02*
X010790Y002888D01*
X012350Y003282D02*
X012436Y003282D01*
X012350Y003380D02*
X012682Y003380D01*
X012543Y003479D02*
X012350Y003479D01*
X012350Y003577D02*
X012497Y003577D01*
X012490Y003676D02*
X012350Y003676D01*
X012350Y003774D02*
X012518Y003774D01*
X012594Y003873D02*
X012350Y003873D01*
X012350Y003971D02*
X012551Y003971D01*
X012500Y004070D02*
X012350Y004070D01*
X012290Y004168D02*
X012490Y004168D01*
X012515Y004267D02*
X012191Y004267D01*
X012050Y004365D02*
X012587Y004365D01*
X012562Y004760D02*
X012238Y004760D01*
X012010Y004988D01*
X012010Y005312D01*
X012238Y005540D01*
X012562Y005540D01*
X012790Y005312D01*
X012790Y004988D01*
X012562Y004760D01*
X012659Y004858D02*
X015141Y004858D01*
X015042Y004956D02*
X012758Y004956D01*
X012790Y005055D02*
X015010Y005055D01*
X015010Y005153D02*
X012790Y005153D01*
X012790Y005252D02*
X015010Y005252D01*
X015049Y005350D02*
X012751Y005350D01*
X012653Y005449D02*
X015147Y005449D01*
X016156Y005843D02*
X013644Y005843D01*
X013156Y005843D02*
X010644Y005843D01*
X010630Y005744D02*
X019170Y005744D01*
X019170Y005646D02*
X010630Y005646D01*
X010630Y005547D02*
X019170Y005547D01*
X019630Y005547D02*
X020700Y005547D01*
X020700Y005449D02*
X019630Y005449D01*
X019713Y005350D02*
X020700Y005350D01*
X020700Y005252D02*
X019811Y005252D01*
X019910Y005153D02*
X020700Y005153D01*
X020700Y005055D02*
X020008Y005055D01*
X020107Y004956D02*
X020700Y004956D01*
X020700Y004858D02*
X020205Y004858D01*
X020304Y004759D02*
X020700Y004759D01*
X020700Y004661D02*
X020380Y004661D01*
X020380Y004562D02*
X020700Y004562D01*
X020700Y004464D02*
X020380Y004464D01*
X020380Y004365D02*
X020700Y004365D01*
X020700Y004267D02*
X020380Y004267D01*
X020380Y004168D02*
X020700Y004168D01*
X020700Y004070D02*
X020480Y004070D01*
X020578Y003971D02*
X020700Y003971D01*
X020700Y003873D02*
X020631Y003873D01*
X020672Y003774D02*
X020700Y003774D01*
X020700Y003676D02*
X020680Y003676D01*
X020680Y003577D02*
X020700Y003577D01*
X020700Y003479D02*
X020653Y003479D01*
X020612Y003380D02*
X020700Y003380D01*
X020700Y003282D02*
X020531Y003282D01*
X020408Y003183D02*
X020700Y003183D01*
X020700Y003085D02*
X020454Y003085D01*
X020561Y002986D02*
X020700Y002986D01*
X020700Y002888D02*
X020624Y002888D01*
X020662Y002789D02*
X020700Y002789D01*
X020200Y002494D02*
X020100Y002494D01*
X020100Y002395D02*
X020200Y002395D01*
X020200Y002297D02*
X020100Y002297D01*
X020100Y002198D02*
X020200Y002198D01*
X019870Y002198D02*
X017529Y002198D01*
X017219Y002198D02*
X017119Y002198D01*
X017119Y002100D02*
X017219Y002100D01*
X017219Y002001D02*
X017119Y002001D01*
X017119Y001903D02*
X017219Y001903D01*
X017219Y001804D02*
X020656Y001804D01*
X019754Y002297D02*
X016630Y002297D01*
X016630Y002395D02*
X017248Y002395D01*
X017185Y002494D02*
X016644Y002494D01*
X016684Y002592D02*
X017185Y002592D01*
X017185Y002691D02*
X016685Y002691D01*
X016651Y002789D02*
X017185Y002789D01*
X017230Y002888D02*
X016566Y002888D01*
X016234Y002888D02*
X015820Y002888D01*
X015865Y002986D02*
X017185Y002986D01*
X017185Y003085D02*
X015865Y003085D01*
X015865Y003183D02*
X017185Y003183D01*
X017185Y003282D02*
X015865Y003282D01*
X015827Y003380D02*
X017223Y003380D01*
X017191Y003479D02*
X015865Y003479D01*
X015865Y003577D02*
X017185Y003577D01*
X017185Y003676D02*
X015865Y003676D01*
X015865Y003774D02*
X017185Y003774D01*
X017215Y003873D02*
X016225Y003873D01*
X016075Y003873D02*
X015835Y003873D01*
X016374Y003971D02*
X017185Y003971D01*
X017185Y004070D02*
X016425Y004070D01*
X016435Y004168D02*
X017185Y004168D01*
X017185Y004267D02*
X016410Y004267D01*
X016338Y004365D02*
X017208Y004365D01*
X016390Y004858D02*
X018141Y004858D01*
X018042Y004956D02*
X016609Y004956D01*
X016669Y005055D02*
X018010Y005055D01*
X018010Y005153D02*
X016685Y005153D01*
X016666Y005252D02*
X018010Y005252D01*
X018049Y005350D02*
X016603Y005350D01*
X016400Y005150D02*
X015775Y004525D01*
X014775Y004525D01*
X014525Y004275D01*
X014525Y003400D01*
X014275Y003150D01*
X014492Y003085D02*
X014765Y003085D01*
X014765Y003183D02*
X014591Y003183D01*
X014689Y003282D02*
X014765Y003282D01*
X014725Y003380D02*
X014803Y003380D01*
X014765Y003479D02*
X014725Y003479D01*
X014725Y003577D02*
X014765Y003577D01*
X014765Y003676D02*
X014725Y003676D01*
X014725Y003774D02*
X014765Y003774D01*
X014795Y003873D02*
X014725Y003873D01*
X014725Y003971D02*
X014765Y003971D01*
X014765Y004070D02*
X014725Y004070D01*
X014725Y004168D02*
X014765Y004168D01*
X013015Y003380D02*
X012868Y003380D01*
X014074Y002888D02*
X014359Y002888D01*
X014394Y002986D02*
X014765Y002986D01*
X014810Y002888D02*
X014691Y002888D01*
X014274Y002789D02*
X014132Y002789D01*
X014132Y002691D02*
X014240Y002691D01*
X014241Y002592D02*
X014132Y002592D01*
X014132Y002494D02*
X014281Y002494D01*
X014396Y002395D02*
X014057Y002395D01*
X014241Y002198D02*
X014309Y002198D01*
X014654Y002395D02*
X014828Y002395D01*
X015802Y002395D02*
X016170Y002395D01*
X016741Y002198D02*
X016809Y002198D01*
X017119Y001706D02*
X017219Y001706D01*
X017219Y001607D02*
X017119Y001607D01*
X017119Y001509D02*
X017219Y001509D01*
X017219Y001410D02*
X017119Y001410D01*
X017119Y001312D02*
X017219Y001312D01*
X016887Y001312D02*
X016701Y001312D01*
X016400Y001669D02*
X016381Y001775D01*
X018222Y002395D02*
X019685Y002395D01*
X019644Y002494D02*
X018285Y002494D01*
X018285Y002592D02*
X019623Y002592D01*
X018486Y002888D02*
X018240Y002888D01*
X018280Y003480D02*
X018285Y003500D01*
X018285Y003635D01*
X017750Y003635D01*
X017750Y003665D01*
X018285Y003665D01*
X018285Y003800D01*
X018280Y003820D01*
X018286Y003814D01*
X018435Y003814D01*
X018435Y003726D01*
X018511Y003650D01*
X018435Y003574D01*
X018435Y003486D01*
X018286Y003486D01*
X018280Y003480D01*
X018285Y003577D02*
X018438Y003577D01*
X018485Y003676D02*
X018285Y003676D01*
X018285Y003774D02*
X018435Y003774D01*
X018438Y004365D02*
X018385Y004365D01*
X019630Y005646D02*
X020700Y005646D01*
X020700Y005744D02*
X019630Y005744D01*
X019644Y005843D02*
X020700Y005843D01*
X020700Y005941D02*
X019743Y005941D01*
X019790Y006040D02*
X020700Y006040D01*
X020700Y006138D02*
X019790Y006138D01*
X019790Y006237D02*
X020700Y006237D01*
X020700Y006335D02*
X019766Y006335D01*
X019668Y006434D02*
X020700Y006434D01*
X020700Y006532D02*
X019569Y006532D01*
X019231Y006532D02*
X016569Y006532D01*
X016668Y006434D02*
X019132Y006434D01*
X018728Y006926D02*
X020700Y006926D01*
X020700Y006828D02*
X018629Y006828D01*
X018790Y007025D02*
X020700Y007025D01*
X020700Y007123D02*
X018790Y007123D01*
X018790Y007222D02*
X020700Y007222D01*
X020700Y007320D02*
X018781Y007320D01*
X018683Y007419D02*
X020700Y007419D01*
X020700Y007517D02*
X018584Y007517D01*
X018216Y007517D02*
X017108Y007517D01*
X017010Y007616D02*
X020700Y007616D01*
X020700Y007714D02*
X016911Y007714D01*
X016813Y007813D02*
X020700Y007813D01*
X020700Y007911D02*
X016714Y007911D01*
X016616Y008010D02*
X020700Y008010D01*
X020700Y008108D02*
X016517Y008108D01*
X016419Y008207D02*
X020700Y008207D01*
X020700Y008305D02*
X016320Y008305D01*
X016586Y008404D02*
X018214Y008404D01*
X018295Y008370D02*
X018505Y008370D01*
X018700Y008451D01*
X018849Y008600D01*
X018900Y008723D01*
X018909Y008697D01*
X018947Y008622D01*
X018996Y008555D01*
X019055Y008496D01*
X019122Y008447D01*
X019197Y008409D01*
X019276Y008383D01*
X019350Y008371D01*
X019350Y008850D01*
X019450Y008850D01*
X019450Y008950D01*
X019350Y008950D01*
X019350Y009429D01*
X019276Y009417D01*
X019197Y009391D01*
X019122Y009353D01*
X019055Y009304D01*
X018996Y009245D01*
X018947Y009178D01*
X018909Y009103D01*
X018900Y009077D01*
X018849Y009200D01*
X018700Y009349D01*
X018505Y009430D01*
X018295Y009430D01*
X018100Y009349D01*
X017951Y009200D01*
X017870Y009005D01*
X017870Y008795D01*
X017951Y008600D01*
X018100Y008451D01*
X018295Y008370D01*
X018048Y008502D02*
X016752Y008502D01*
X016850Y008601D02*
X017950Y008601D01*
X017910Y008699D02*
X016890Y008699D01*
X016930Y008798D02*
X017870Y008798D01*
X017870Y008896D02*
X016930Y008896D01*
X016930Y008995D02*
X017870Y008995D01*
X017906Y009093D02*
X016894Y009093D01*
X016853Y009192D02*
X017947Y009192D01*
X018041Y009290D02*
X016759Y009290D01*
X016605Y009389D02*
X018195Y009389D01*
X018605Y009389D02*
X019191Y009389D01*
X019350Y009389D02*
X019450Y009389D01*
X019450Y009429D02*
X019450Y008950D01*
X019929Y008950D01*
X019917Y009024D01*
X019891Y009103D01*
X019853Y009178D01*
X019804Y009245D01*
X019745Y009304D01*
X019678Y009353D01*
X019603Y009391D01*
X019524Y009417D01*
X019450Y009429D01*
X019450Y009290D02*
X019350Y009290D01*
X019350Y009192D02*
X019450Y009192D01*
X019450Y009093D02*
X019350Y009093D01*
X019350Y008995D02*
X019450Y008995D01*
X019450Y008896D02*
X020700Y008896D01*
X020700Y008798D02*
X019920Y008798D01*
X019917Y008776D02*
X019929Y008850D01*
X019450Y008850D01*
X019450Y008371D01*
X019524Y008383D01*
X019603Y008409D01*
X019678Y008447D01*
X019745Y008496D01*
X019804Y008555D01*
X019853Y008622D01*
X019891Y008697D01*
X019917Y008776D01*
X019892Y008699D02*
X020700Y008699D01*
X020700Y008601D02*
X019838Y008601D01*
X019752Y008502D02*
X020700Y008502D01*
X020700Y008404D02*
X019587Y008404D01*
X019450Y008404D02*
X019350Y008404D01*
X019350Y008502D02*
X019450Y008502D01*
X019450Y008601D02*
X019350Y008601D01*
X019350Y008699D02*
X019450Y008699D01*
X019450Y008798D02*
X019350Y008798D01*
X019048Y008502D02*
X018752Y008502D01*
X018850Y008601D02*
X018962Y008601D01*
X018908Y008699D02*
X018890Y008699D01*
X018586Y008404D02*
X019213Y008404D01*
X019922Y008995D02*
X020700Y008995D01*
X020696Y009093D02*
X019895Y009093D01*
X019843Y009192D02*
X020691Y009192D01*
X020674Y009290D02*
X019759Y009290D01*
X019609Y009389D02*
X020652Y009389D01*
X020629Y009487D02*
X000421Y009487D01*
X000398Y009389D02*
X012195Y009389D01*
X012041Y009290D02*
X000376Y009290D01*
X000359Y009192D02*
X011947Y009192D01*
X011906Y009093D02*
X000354Y009093D01*
X000350Y008995D02*
X011870Y008995D01*
X011870Y008896D02*
X000350Y008896D01*
X000350Y008798D02*
X011870Y008798D01*
X011874Y008699D02*
X000350Y008699D01*
X000350Y008601D02*
X011775Y008601D01*
X011677Y008502D02*
X000350Y008502D01*
X000350Y008404D02*
X011578Y008404D01*
X011480Y008305D02*
X000350Y008305D01*
X000350Y008207D02*
X011381Y008207D01*
X011283Y008108D02*
X000350Y008108D01*
X000350Y008010D02*
X011184Y008010D01*
X011086Y007911D02*
X001858Y007911D01*
X001865Y007905D02*
X001837Y007932D01*
X001803Y007952D01*
X001765Y007962D01*
X001616Y007962D01*
X001616Y007684D01*
X001559Y007684D01*
X001559Y007962D01*
X001410Y007962D01*
X001372Y007952D01*
X001338Y007932D01*
X001310Y007905D01*
X001290Y007870D01*
X001280Y007832D01*
X001280Y007684D01*
X001559Y007684D01*
X001559Y007626D01*
X001616Y007626D01*
X001616Y007684D01*
X001895Y007684D01*
X001895Y007832D01*
X001885Y007870D01*
X001865Y007905D01*
X001895Y007813D02*
X010987Y007813D01*
X010889Y007714D02*
X001895Y007714D01*
X001895Y007616D02*
X010790Y007616D01*
X010692Y007517D02*
X009584Y007517D01*
X009683Y007419D02*
X010593Y007419D01*
X011047Y007222D02*
X012010Y007222D01*
X012019Y007320D02*
X011145Y007320D01*
X011244Y007419D02*
X012117Y007419D01*
X012216Y007517D02*
X011342Y007517D01*
X011441Y007616D02*
X012540Y007616D01*
X012639Y007714D02*
X011539Y007714D01*
X011638Y007813D02*
X012737Y007813D01*
X012836Y007911D02*
X011736Y007911D01*
X011835Y008010D02*
X012934Y008010D01*
X013033Y008108D02*
X011933Y008108D01*
X012032Y008207D02*
X013131Y008207D01*
X013170Y008305D02*
X012130Y008305D01*
X012586Y008404D02*
X013170Y008404D01*
X013048Y008502D02*
X012752Y008502D01*
X012850Y008601D02*
X012950Y008601D01*
X012910Y008699D02*
X012890Y008699D01*
X013630Y008404D02*
X014170Y008404D01*
X014170Y008305D02*
X013630Y008305D01*
X013630Y008207D02*
X014170Y008207D01*
X014170Y008108D02*
X013630Y008108D01*
X013585Y008010D02*
X014215Y008010D01*
X014314Y007911D02*
X013486Y007911D01*
X013388Y007813D02*
X014412Y007813D01*
X014511Y007714D02*
X013289Y007714D01*
X013191Y007616D02*
X014609Y007616D01*
X014708Y007517D02*
X013092Y007517D01*
X012994Y007419D02*
X014806Y007419D01*
X014905Y007320D02*
X012895Y007320D01*
X012797Y007222D02*
X015003Y007222D01*
X015010Y007123D02*
X012790Y007123D01*
X012790Y007025D02*
X015010Y007025D01*
X015072Y006926D02*
X012728Y006926D01*
X012629Y006828D02*
X015171Y006828D01*
X015629Y006828D02*
X018171Y006828D01*
X018117Y007419D02*
X017207Y007419D01*
X016753Y007222D02*
X015790Y007222D01*
X015781Y007320D02*
X016655Y007320D01*
X016556Y007419D02*
X015683Y007419D01*
X015584Y007517D02*
X016458Y007517D01*
X016359Y007616D02*
X015260Y007616D01*
X015161Y007714D02*
X016261Y007714D01*
X016162Y007813D02*
X015063Y007813D01*
X014964Y007911D02*
X016064Y007911D01*
X015965Y008010D02*
X014866Y008010D01*
X014767Y008108D02*
X015867Y008108D01*
X015768Y008207D02*
X014669Y008207D01*
X014630Y008305D02*
X015670Y008305D01*
X015214Y008404D02*
X014630Y008404D01*
X014752Y008502D02*
X015048Y008502D01*
X014950Y008601D02*
X014850Y008601D01*
X014890Y008699D02*
X014910Y008699D01*
X014894Y009093D02*
X014906Y009093D01*
X014947Y009192D02*
X014853Y009192D01*
X014759Y009290D02*
X015041Y009290D01*
X015195Y009389D02*
X014605Y009389D01*
X014195Y009389D02*
X013605Y009389D01*
X013759Y009290D02*
X014041Y009290D01*
X013947Y009192D02*
X013853Y009192D01*
X013894Y009093D02*
X013906Y009093D01*
X013890Y008699D02*
X013910Y008699D01*
X013950Y008601D02*
X013850Y008601D01*
X013752Y008502D02*
X014048Y008502D01*
X012906Y009093D02*
X012894Y009093D01*
X012853Y009192D02*
X012947Y009192D01*
X013041Y009290D02*
X012759Y009290D01*
X012605Y009389D02*
X013195Y009389D01*
X015605Y009389D02*
X016195Y009389D01*
X016041Y009290D02*
X015759Y009290D01*
X015853Y009192D02*
X015947Y009192D01*
X015906Y009093D02*
X015894Y009093D01*
X018759Y009290D02*
X019041Y009290D01*
X018957Y009192D02*
X018853Y009192D01*
X018894Y009093D02*
X018905Y009093D01*
X020473Y009881D02*
X000577Y009881D01*
X000530Y009783D02*
X020520Y009783D01*
X020568Y009684D02*
X000482Y009684D01*
X000443Y009586D02*
X020607Y009586D01*
X020426Y009980D02*
X000624Y009980D01*
X000702Y010078D02*
X020348Y010078D01*
X020269Y010177D02*
X000781Y010177D01*
X000859Y010275D02*
X020191Y010275D01*
X020078Y010374D02*
X000972Y010374D01*
X001096Y010472D02*
X019954Y010472D01*
X019813Y010571D02*
X001237Y010571D01*
X001441Y010669D02*
X019609Y010669D01*
X019304Y010768D02*
X001746Y010768D01*
X001616Y007911D02*
X001559Y007911D01*
X001559Y007813D02*
X001616Y007813D01*
X001616Y007714D02*
X001559Y007714D01*
X001559Y007626D02*
X001280Y007626D01*
X001280Y007478D01*
X001290Y007440D01*
X001310Y007405D01*
X001338Y007377D01*
X001372Y007358D01*
X001410Y007347D01*
X001559Y007347D01*
X001559Y007626D01*
X001559Y007616D02*
X001616Y007616D01*
X001616Y007517D02*
X001559Y007517D01*
X001559Y007419D02*
X001616Y007419D01*
X001355Y007320D02*
X001088Y007320D01*
X001088Y007271D02*
X001088Y007403D01*
X000787Y007403D01*
X000787Y007141D01*
X000958Y007141D01*
X000996Y007151D01*
X001030Y007171D01*
X001058Y007199D01*
X001078Y007233D01*
X001088Y007271D01*
X001071Y007222D02*
X001280Y007222D01*
X001280Y007123D02*
X000350Y007123D01*
X000350Y007025D02*
X001280Y007025D01*
X001280Y006926D02*
X000350Y006926D01*
X000350Y006828D02*
X001280Y006828D01*
X000763Y007141D02*
X000763Y007403D01*
X000787Y007403D01*
X000787Y007427D01*
X001088Y007427D01*
X001088Y007559D01*
X001078Y007597D01*
X001058Y007631D01*
X001030Y007659D01*
X000996Y007679D01*
X000958Y007689D01*
X000787Y007689D01*
X000787Y007427D01*
X000763Y007427D01*
X000763Y007403D01*
X000462Y007403D01*
X000462Y007271D01*
X000472Y007233D01*
X000492Y007199D01*
X000520Y007171D01*
X000554Y007151D01*
X000592Y007141D01*
X000763Y007141D01*
X000763Y007222D02*
X000787Y007222D01*
X000787Y007320D02*
X000763Y007320D01*
X000763Y007419D02*
X000350Y007419D01*
X000350Y007517D02*
X000462Y007517D01*
X000462Y007559D02*
X000462Y007427D01*
X000763Y007427D01*
X000763Y007689D01*
X000592Y007689D01*
X000554Y007679D01*
X000520Y007659D01*
X000492Y007631D01*
X000472Y007597D01*
X000462Y007559D01*
X000482Y007616D02*
X000350Y007616D01*
X000350Y007714D02*
X001280Y007714D01*
X001280Y007616D02*
X001068Y007616D01*
X001088Y007517D02*
X001280Y007517D01*
X001302Y007419D02*
X000787Y007419D01*
X000787Y007517D02*
X000763Y007517D01*
X000763Y007616D02*
X000787Y007616D01*
X000350Y007813D02*
X001280Y007813D01*
X001317Y007911D02*
X000350Y007911D01*
X000350Y007320D02*
X000462Y007320D01*
X000479Y007222D02*
X000350Y007222D01*
X000350Y006729D02*
X000495Y006729D01*
X000462Y006631D02*
X000350Y006631D01*
X000350Y006532D02*
X000462Y006532D01*
X000462Y006434D02*
X000350Y006434D01*
X000350Y006335D02*
X000462Y006335D01*
X000549Y006237D02*
X000350Y006237D01*
X000350Y006138D02*
X000498Y006138D01*
X000492Y006131D02*
X000472Y006097D01*
X000462Y006059D01*
X000462Y005927D01*
X000763Y005927D01*
X000763Y005903D01*
X000787Y005903D01*
X000787Y005641D01*
X000958Y005641D01*
X000996Y005651D01*
X001030Y005671D01*
X001058Y005699D01*
X001078Y005733D01*
X001088Y005771D01*
X001088Y005903D01*
X000787Y005903D01*
X000787Y005927D01*
X001088Y005927D01*
X001088Y006059D01*
X001078Y006097D01*
X001058Y006131D01*
X001030Y006159D01*
X000996Y006179D01*
X000958Y006189D01*
X000787Y006189D01*
X000787Y005927D01*
X000763Y005927D01*
X000763Y006189D01*
X000592Y006189D01*
X000554Y006179D01*
X000520Y006159D01*
X000492Y006131D01*
X000462Y006040D02*
X000350Y006040D01*
X000350Y005941D02*
X000462Y005941D01*
X000462Y005903D02*
X000462Y005771D01*
X000472Y005733D01*
X000492Y005699D01*
X000520Y005671D01*
X000554Y005651D01*
X000592Y005641D01*
X000763Y005641D01*
X000763Y005903D01*
X000462Y005903D01*
X000462Y005843D02*
X000350Y005843D01*
X000350Y005744D02*
X000469Y005744D01*
X000576Y005646D02*
X000350Y005646D01*
X000350Y005547D02*
X001358Y005547D01*
X001358Y005449D02*
X000350Y005449D01*
X000350Y005350D02*
X001358Y005350D01*
X001301Y005252D02*
X001033Y005252D01*
X000517Y005252D02*
X000350Y005252D01*
X000350Y005153D02*
X000462Y005153D01*
X000462Y005055D02*
X000350Y005055D01*
X000350Y004956D02*
X000462Y004956D01*
X000462Y004858D02*
X000350Y004858D01*
X000350Y004759D02*
X000526Y004759D01*
X000545Y004661D02*
X000350Y004661D01*
X000350Y004562D02*
X000545Y004562D01*
X000636Y004464D02*
X000350Y004464D01*
X000350Y004365D02*
X000733Y004365D01*
X000733Y004267D02*
X000350Y004267D01*
X000350Y004168D02*
X000733Y004168D01*
X000763Y005646D02*
X000787Y005646D01*
X000787Y005744D02*
X000763Y005744D01*
X000763Y005843D02*
X000787Y005843D01*
X000787Y005941D02*
X000763Y005941D01*
X000763Y006040D02*
X000787Y006040D01*
X000787Y006138D02*
X000763Y006138D01*
X001001Y006237D02*
X001333Y006237D01*
X001358Y006138D02*
X001052Y006138D01*
X001088Y006040D02*
X001358Y006040D01*
X001358Y005941D02*
X001088Y005941D01*
X001088Y005843D02*
X001358Y005843D01*
X001358Y005744D02*
X001081Y005744D01*
X000974Y005646D02*
X001358Y005646D01*
X009629Y006828D02*
X012171Y006828D01*
X012072Y006926D02*
X010751Y006926D01*
X010850Y007025D02*
X012010Y007025D01*
X012010Y007123D02*
X010948Y007123D01*
X010569Y006532D02*
X013231Y006532D01*
X013132Y006434D02*
X010668Y006434D01*
X010630Y005449D02*
X012147Y005449D01*
X012049Y005350D02*
X010630Y005350D01*
X010630Y005252D02*
X012010Y005252D01*
X012010Y005153D02*
X010630Y005153D01*
X010630Y005055D02*
X012010Y005055D01*
X012042Y004956D02*
X010630Y004956D01*
X010630Y004858D02*
X012141Y004858D01*
X013668Y006434D02*
X016132Y006434D01*
X016231Y006532D02*
X013569Y006532D01*
X015728Y006926D02*
X017049Y006926D01*
X016950Y007025D02*
X015790Y007025D01*
X015790Y007123D02*
X016852Y007123D01*
X016400Y006150D02*
X016150Y006150D01*
X016644Y005843D02*
X019156Y005843D01*
D21*
X016400Y005150D03*
X016150Y004150D03*
X016400Y002650D03*
X015525Y001775D03*
X014525Y002650D03*
X012775Y002650D03*
X012775Y003650D03*
X012775Y004150D03*
X007525Y004400D03*
X005650Y004275D03*
X005150Y002650D03*
X005585Y001400D03*
X002400Y001900D03*
M02*
