%
M48
M72
T01C0.0130
T02C0.0320
T03C0.0400
%
T01
X6800Y3400
X6925Y2775
X7026Y1876
X8925Y3150
X10675Y4025
X9300Y4775
X9610Y1150
T02
X10800Y5025
X11800Y6025
X10800Y7025
X8800Y6025
X7800Y5025
X5800Y6025
X4800Y5025
X2800Y6025
X1800Y5025
X1800Y7025
X4800Y7025
X7800Y7025
X13800Y7025
X14800Y6025
X13800Y5025
T03
X2863Y2463
X2863Y3463
X7050Y8400
X8050Y8400
X9050Y8400
X10050Y8400
X11050Y8400
X13050Y8775
X14050Y8775
X11050Y10400
X10050Y10400
X9050Y10400
X8050Y10400
X7050Y10400
X14800Y3525
X14800Y2525
M30
