%
M48
M72
T01C0.0130
T02C0.0320
T03C0.0400
%
T01
X6775Y3800
X6900Y3175
X7001Y2276
X8900Y3550
X10650Y4425
X9275Y5175
X9585Y1550
T02
X10775Y5425
X11775Y6425
X10775Y7425
X8775Y6425
X7775Y7425
X5775Y6425
X4775Y7425
X2775Y6425
X1775Y7425
X1775Y5425
X4775Y5425
X7775Y5425
X13775Y5425
X14775Y6425
X13775Y7425
T03
X2838Y2863
X2838Y3863
X8025Y9175
X9025Y9175
X10025Y9175
X11025Y9175
X12025Y9175
X13025Y9175
X14025Y9175
X14775Y3925
X14775Y2925
M30
