G75*
%MOIN*%
%OFA0B0*%
%FSLAX24Y24*%
%IPPOS*%
%LPD*%
%AMOC8*
5,1,8,0,0,1.08239X$1,22.5*
%
%ADD10C,0.0000*%
D10*
X002150Y000150D02*
X018900Y000150D01*
X018987Y000152D01*
X019074Y000158D01*
X019161Y000167D01*
X019247Y000180D01*
X019333Y000197D01*
X019418Y000218D01*
X019501Y000243D01*
X019584Y000271D01*
X019665Y000302D01*
X019745Y000337D01*
X019823Y000376D01*
X019900Y000418D01*
X019975Y000463D01*
X020047Y000512D01*
X020118Y000563D01*
X020186Y000618D01*
X020251Y000675D01*
X020314Y000736D01*
X020375Y000799D01*
X020432Y000864D01*
X020487Y000932D01*
X020538Y001003D01*
X020587Y001075D01*
X020632Y001150D01*
X020674Y001227D01*
X020713Y001305D01*
X020748Y001385D01*
X020779Y001466D01*
X020807Y001549D01*
X020832Y001632D01*
X020853Y001717D01*
X020870Y001803D01*
X020883Y001889D01*
X020892Y001976D01*
X020898Y002063D01*
X020900Y002150D01*
X020900Y009025D01*
X020898Y009112D01*
X020892Y009199D01*
X020883Y009286D01*
X020870Y009372D01*
X020853Y009458D01*
X020832Y009543D01*
X020807Y009626D01*
X020779Y009709D01*
X020748Y009790D01*
X020713Y009870D01*
X020674Y009948D01*
X020632Y010025D01*
X020587Y010100D01*
X020538Y010172D01*
X020487Y010243D01*
X020432Y010311D01*
X020375Y010376D01*
X020314Y010439D01*
X020251Y010500D01*
X020186Y010557D01*
X020118Y010612D01*
X020047Y010663D01*
X019975Y010712D01*
X019900Y010757D01*
X019823Y010799D01*
X019745Y010838D01*
X019665Y010873D01*
X019584Y010904D01*
X019501Y010932D01*
X019418Y010957D01*
X019333Y010978D01*
X019247Y010995D01*
X019161Y011008D01*
X019074Y011017D01*
X018987Y011023D01*
X018900Y011025D01*
X002150Y011025D01*
X002063Y011023D01*
X001976Y011017D01*
X001889Y011008D01*
X001803Y010995D01*
X001717Y010978D01*
X001632Y010957D01*
X001549Y010932D01*
X001466Y010904D01*
X001385Y010873D01*
X001305Y010838D01*
X001227Y010799D01*
X001150Y010757D01*
X001075Y010712D01*
X001003Y010663D01*
X000932Y010612D01*
X000864Y010557D01*
X000799Y010500D01*
X000736Y010439D01*
X000675Y010376D01*
X000618Y010311D01*
X000563Y010243D01*
X000512Y010172D01*
X000463Y010100D01*
X000418Y010025D01*
X000376Y009948D01*
X000337Y009870D01*
X000302Y009790D01*
X000271Y009709D01*
X000243Y009626D01*
X000218Y009543D01*
X000197Y009458D01*
X000180Y009372D01*
X000167Y009286D01*
X000158Y009199D01*
X000152Y009112D01*
X000150Y009025D01*
X000150Y002150D01*
X000152Y002063D01*
X000158Y001976D01*
X000167Y001889D01*
X000180Y001803D01*
X000197Y001717D01*
X000218Y001632D01*
X000243Y001549D01*
X000271Y001466D01*
X000302Y001385D01*
X000337Y001305D01*
X000376Y001227D01*
X000418Y001150D01*
X000463Y001075D01*
X000512Y001003D01*
X000563Y000932D01*
X000618Y000864D01*
X000675Y000799D01*
X000736Y000736D01*
X000799Y000675D01*
X000864Y000618D01*
X000932Y000563D01*
X001003Y000512D01*
X001075Y000463D01*
X001150Y000418D01*
X001227Y000376D01*
X001305Y000337D01*
X001385Y000302D01*
X001466Y000271D01*
X001549Y000243D01*
X001632Y000218D01*
X001717Y000197D01*
X001803Y000180D01*
X001889Y000167D01*
X001976Y000158D01*
X002063Y000152D01*
X002150Y000150D01*
M02*
