G75*
%MOIN*%
%OFA0B0*%
%FSLAX24Y24*%
%IPPOS*%
%LPD*%
%AMOC8*
5,1,8,0,0,1.08239X$1,22.5*
%
%ADD10C,0.0000*%
D10*
X001175Y000150D02*
X014425Y000150D01*
X014485Y000152D01*
X014546Y000157D01*
X014605Y000166D01*
X014664Y000179D01*
X014723Y000195D01*
X014780Y000215D01*
X014835Y000238D01*
X014890Y000265D01*
X014942Y000294D01*
X014993Y000327D01*
X015042Y000363D01*
X015088Y000401D01*
X015132Y000443D01*
X015174Y000487D01*
X015212Y000533D01*
X015248Y000582D01*
X015281Y000633D01*
X015310Y000685D01*
X015337Y000740D01*
X015360Y000795D01*
X015380Y000852D01*
X015396Y000911D01*
X015409Y000970D01*
X015418Y001029D01*
X015423Y001090D01*
X015425Y001150D01*
X015425Y009150D01*
X015423Y009210D01*
X015418Y009271D01*
X015409Y009330D01*
X015396Y009389D01*
X015380Y009448D01*
X015360Y009505D01*
X015337Y009560D01*
X015310Y009615D01*
X015281Y009667D01*
X015248Y009718D01*
X015212Y009767D01*
X015174Y009813D01*
X015132Y009857D01*
X015088Y009899D01*
X015042Y009937D01*
X014993Y009973D01*
X014942Y010006D01*
X014890Y010035D01*
X014835Y010062D01*
X014780Y010085D01*
X014723Y010105D01*
X014664Y010121D01*
X014605Y010134D01*
X014546Y010143D01*
X014485Y010148D01*
X014425Y010150D01*
X012425Y010150D01*
X011425Y011150D01*
X006675Y011150D01*
X005675Y010150D01*
X001175Y010150D01*
X001115Y010148D01*
X001054Y010143D01*
X000995Y010134D01*
X000936Y010121D01*
X000877Y010105D01*
X000820Y010085D01*
X000765Y010062D01*
X000710Y010035D01*
X000658Y010006D01*
X000607Y009973D01*
X000558Y009937D01*
X000512Y009899D01*
X000468Y009857D01*
X000426Y009813D01*
X000388Y009767D01*
X000352Y009718D01*
X000319Y009667D01*
X000290Y009615D01*
X000263Y009560D01*
X000240Y009505D01*
X000220Y009448D01*
X000204Y009389D01*
X000191Y009330D01*
X000182Y009271D01*
X000177Y009210D01*
X000175Y009150D01*
X000175Y001150D01*
X000177Y001090D01*
X000182Y001029D01*
X000191Y000970D01*
X000204Y000911D01*
X000220Y000852D01*
X000240Y000795D01*
X000263Y000740D01*
X000290Y000685D01*
X000319Y000633D01*
X000352Y000582D01*
X000388Y000533D01*
X000426Y000487D01*
X000468Y000443D01*
X000512Y000401D01*
X000558Y000363D01*
X000607Y000327D01*
X000658Y000294D01*
X000710Y000265D01*
X000765Y000238D01*
X000820Y000215D01*
X000877Y000195D01*
X000936Y000179D01*
X000995Y000166D01*
X001054Y000157D01*
X001115Y000152D01*
X001175Y000150D01*
M02*
