G75*
G70*
%OFA0B0*%
%FSLAX24Y24*%
%IPPOS*%
%LPD*%
%AMOC8*
5,1,8,0,0,1.08239X$1,22.5*
%
%ADD10R,0.0926X0.0296*%
%ADD11R,0.0375X0.0375*%
%ADD12C,0.0820*%
%ADD13OC8,0.0540*%
%ADD14R,0.0387X0.0308*%
%ADD15R,0.0860X0.0320*%
%ADD16R,0.0690X0.0572*%
%ADD17R,0.0572X0.0690*%
D10*
X002376Y002650D03*
X002376Y003150D03*
X002376Y003650D03*
X002376Y004150D03*
X004424Y004150D03*
X004424Y003650D03*
X004424Y003150D03*
X004424Y002650D03*
X011501Y002650D03*
X011501Y003150D03*
X011501Y003650D03*
X011501Y004150D03*
X013549Y004150D03*
X013549Y003650D03*
X013549Y003150D03*
X013549Y002650D03*
D11*
X001769Y001150D03*
X002399Y001150D03*
X003085Y001150D03*
X003715Y001150D03*
X003715Y001900D03*
X004335Y001900D03*
X004965Y001900D03*
X005585Y001900D03*
X006215Y001900D03*
X006215Y002650D03*
X005585Y002650D03*
X005335Y003650D03*
X005965Y003650D03*
X007525Y003335D03*
X007525Y003965D03*
X003085Y001900D03*
X007210Y001025D03*
X007840Y001025D03*
X012398Y001775D03*
X013027Y001775D03*
X001588Y007025D03*
X001588Y007655D03*
D12*
X000963Y003650D03*
X000963Y002650D03*
X012400Y008900D03*
X013400Y008900D03*
X014400Y008900D03*
X015400Y008900D03*
X016400Y008900D03*
X018400Y008900D03*
X019400Y008900D03*
X020150Y003650D03*
X020150Y002650D03*
D13*
X018400Y005150D03*
X019400Y006150D03*
X018400Y007150D03*
X016400Y006150D03*
X015400Y007150D03*
X013400Y006150D03*
X012400Y007150D03*
X010400Y006150D03*
X009400Y007150D03*
X007400Y006150D03*
X006400Y007150D03*
X004400Y006150D03*
X003400Y007150D03*
X003400Y005150D03*
X006400Y005150D03*
X009400Y005150D03*
X009400Y003900D03*
X010400Y002900D03*
X009400Y001900D03*
X012400Y005150D03*
X015400Y005150D03*
D14*
X000775Y005010D03*
X000775Y005915D03*
X000775Y006510D03*
X000775Y007415D03*
D15*
X015315Y004150D03*
X015315Y003650D03*
X015315Y003150D03*
X015315Y002650D03*
X017735Y002650D03*
X017735Y003150D03*
X017735Y003650D03*
X017735Y004150D03*
D16*
X018900Y004044D03*
X018900Y003256D03*
D17*
X017169Y001775D03*
X016381Y001775D03*
X014669Y001775D03*
X013881Y001775D03*
M02*
