G75*
%MOIN*%
%OFA0B0*%
%FSLAX24Y24*%
%IPPOS*%
%LPD*%
%AMOC8*
5,1,8,0,0,1.08239X$1,22.5*
%
%ADD10R,0.0315X0.0315*%
%ADD11R,0.0248X0.0327*%
%ADD12R,0.0800X0.0260*%
%ADD13R,0.0630X0.0512*%
%ADD14R,0.0512X0.0630*%
%ADD15R,0.0236X0.0866*%
D10*
X003860Y002838D03*
X004490Y002838D03*
X004490Y003463D03*
X003860Y003463D03*
X003860Y004088D03*
X004490Y004088D03*
X005798Y004150D03*
X006427Y004150D03*
X006427Y003400D03*
X005798Y003400D03*
X005605Y002775D03*
X006235Y002775D03*
X006490Y001876D03*
X005860Y001876D03*
X005860Y001150D03*
X006490Y001150D03*
X009610Y001775D03*
X010240Y001775D03*
D11*
X005253Y002088D03*
X004347Y002088D03*
X004347Y001213D03*
X005253Y001213D03*
D12*
X009965Y002525D03*
X009965Y003025D03*
X009965Y003525D03*
X009965Y004025D03*
X012385Y004025D03*
X012385Y003525D03*
X012385Y003025D03*
X012385Y002525D03*
D13*
X013550Y003131D03*
X013550Y003919D03*
D14*
X013444Y001150D03*
X012656Y001150D03*
X011694Y001150D03*
X010906Y001150D03*
D15*
X008925Y001876D03*
X008425Y001876D03*
X007925Y001876D03*
X007425Y001876D03*
X007425Y003924D03*
X007925Y003924D03*
X008425Y003924D03*
X008925Y003924D03*
M02*
